<svg width="620" height="277" viewBox="0 0 620 277" fill="none" xmlns="http://www.w3.org/2000/svg">
<g clip-path="url(#clip0)">
<path d="M103 182C99.0157 186 92.5558 186 88.5714 182C84.5871 178 78.1272 178 74.1429 182C70.1585 186 63.6986 186 59.7143 182C55.73 178 49.2701 178 45.2857 182C41.3014 186 34.8415 186 30.8571 182C26.8728 178 20.4129 178 16.4286 182C12.4442 186 5.98434 186 2 182" stroke="#1191FF" stroke-width="3"/>
<path d="M103 193C99.0157 197 92.5558 197 88.5714 193C84.5871 189 78.1272 189 74.1429 193C70.1585 197 63.6986 197 59.7143 193C55.73 189 49.2701 189 45.2857 193C41.3014 197 34.8415 197 30.8571 193C26.8728 189 20.4129 189 16.4286 193C12.4442 197 5.98434 197 2 193" stroke="#1191FF" stroke-width="3"/>
<path d="M103 204C99.0157 208 92.5558 208 88.5714 204C84.5871 200 78.1272 200 74.1429 204C70.1585 208 63.6986 208 59.7143 204C55.73 200 49.2701 200 45.2857 204C41.3014 208 34.8415 208 30.8571 204C26.8728 200 20.4129 200 16.4286 204C12.4442 208 5.98434 208 2 204" stroke="#1191FF" stroke-width="3"/>
<path d="M103 215C99.0157 219 92.5558 219 88.5714 215C84.5871 211 78.1272 211 74.1429 215C70.1585 219 63.6986 219 59.7143 215C55.73 211 49.2701 211 45.2857 215C41.3014 219 34.8415 219 30.8571 215C26.8728 211 20.4129 211 16.4286 215C12.4442 219 5.98434 219 2 215" stroke="#1191FF" stroke-width="3"/>
<path d="M493 7C488.858 3 482.142 3 478 7C473.858 11 467.142 11 463 7C458.858 3 452.142 3 448 7C443.858 11 437.142 11 433 7C428.858 3 422.142 3 418 7" stroke="#1191FF" stroke-width="3"/>
<path d="M493 16C488.858 12 482.142 12 478 16C473.858 20 467.142 20 463 16C458.858 12 452.142 12 448 16C443.858 20 437.142 20 433 16C428.858 12 422.142 12 418 16" stroke="#1191FF" stroke-width="3"/>
<path d="M493 25C488.858 21 482.142 21 478 25C473.858 29 467.142 29 463 25C458.858 21 452.142 21 448 25C443.858 29 437.142 29 433 25C428.858 21 422.142 21 418 25" stroke="#1191FF" stroke-width="3"/>
<path d="M493 34C488.858 30 482.142 30 478 34C473.858 38 467.142 38 463 34C458.858 30 452.142 30 448 34C443.858 38 437.142 38 433 34C428.858 30 422.142 30 418 34" stroke="#1191FF" stroke-width="3"/>
<path d="M493 43C488.858 39 482.142 39 478 43C473.858 47 467.142 47 463 43C458.858 39 452.142 39 448 43C443.858 47 437.142 47 433 43C428.858 39 422.142 39 418 43" stroke="#1191FF" stroke-width="3"/>
<path d="M493 52C488.858 48 482.142 48 478 52C473.858 56 467.142 56 463 52C458.858 48 452.142 48 448 52C443.858 56 437.142 56 433 52C428.858 48 422.142 48 418 52" stroke="#1191FF" stroke-width="3"/>
<path d="M103 226C99.0157 230 92.5558 230 88.5714 226C84.5871 222 78.1272 222 74.1429 226C70.1585 230 63.6986 230 59.7143 226C55.73 222 49.2701 222 45.2857 226C41.3014 230 34.8415 230 30.8571 226C26.8728 222 20.4129 222 16.4286 226C12.4442 230 5.98434 230 2 226" stroke="#1191FF" stroke-width="3"/>
<path d="M103 237C99.0157 241 92.5558 241 88.5714 237C84.5871 233 78.1272 233 74.1429 237C70.1585 241 63.6986 241 59.7143 237C55.73 233 49.2701 233 45.2857 237C41.3014 241 34.8415 241 30.8571 237C26.8728 233 20.4129 233 16.4286 237C12.4442 241 5.98434 241 2 237" stroke="#1191FF" stroke-width="3"/>
<path d="M103 248C99.0157 252 92.5558 252 88.5714 248C84.5871 244 78.1272 244 74.1429 248C70.1585 252 63.6986 252 59.7143 248C55.73 244 49.2701 244 45.2857 248C41.3014 252 34.8415 252 30.8571 248C26.8728 244 20.4129 244 16.4286 248C12.4442 252 5.98434 252 2 248" stroke="#1191FF" stroke-width="3"/>
<path d="M103 259C99.0157 263 92.5558 263 88.5714 259C84.5871 255 78.1272 255 74.1429 259C70.1585 263 63.6986 263 59.7143 259C55.73 255 49.2701 255 45.2857 259C41.3014 263 34.8415 263 30.8571 259C26.8728 255 20.4129 255 16.4286 259C12.4442 263 5.98434 263 2 259" stroke="#1191FF" stroke-width="3"/>
<path d="M103 270C99.0157 274 92.5558 274 88.5714 270C84.5871 266 78.1272 266 74.1429 270C70.1585 274 63.6986 274 59.7143 270C55.73 266 49.2701 266 45.2857 270C41.3014 274 34.8415 274 30.8571 270C26.8728 266 20.4129 266 16.4286 270C12.4442 274 5.98434 274 2 270" stroke="#1191FF" stroke-width="3"/>
<rect x="69.5" y="50.5" width="114" height="114" rx="3.5" stroke="#1191FF" stroke-width="3"/>
<rect x="75.5" y="56.5" width="102" height="102" rx="1.5" stroke="#1191FF" stroke-width="3"/>
<rect x="197.5" y="128.5" width="76" height="76" rx="1.5" stroke="#1191FF" stroke-width="3"/>
<rect x="544.5" y="7.5" width="68" height="68" rx="1.5" stroke="#1191FF" stroke-width="3"/>
<rect x="431.5" y="69.5" width="56" height="56" rx="1.5" stroke="#1191FF" stroke-width="3"/>
<rect x="437.5" y="75.5" width="44" height="44" rx="1.5" stroke="#1191FF" stroke-width="3"/>
<rect x="443.5" y="81.5" width="32" height="32" rx="1.5" stroke="#1191FF" stroke-width="3"/>
<rect x="449.5" y="87.5" width="20" height="20" rx="1.5" stroke="#1191FF" stroke-width="3"/>
<rect x="455.5" y="93.5" width="8" height="8" rx="1.5" stroke="#1191FF" stroke-width="3"/>
<rect x="118.5" y="178.5" width="59" height="59" rx="1.5" stroke="#1191FF" stroke-width="3"/>
<rect x="363.5" y="145.5" width="124" height="124" rx="1.5" stroke="#1191FF" stroke-width="3"/>
<rect x="293.5" y="89.5" width="50" height="50" rx="1.5" stroke="#1191FF" stroke-width="3"/>
<rect x="7.5" y="7.5" width="48" height="48" rx="1.5" stroke="#1191FF" stroke-width="3"/>
<rect x="191.5" y="122.5" width="88" height="88" rx="3.5" stroke="#1191FF" stroke-width="3"/>
<rect x="112.5" y="172.5" width="71" height="71" rx="3.5" stroke="#1191FF" stroke-width="3"/>
<rect x="501.5" y="89.5" width="88" height="88" rx="3.5" stroke="#1191FF" stroke-width="3"/>
<rect x="538.5" y="1.5" width="80" height="80" rx="6.5" stroke="#1191FF" stroke-width="3"/>
<rect x="425.5" y="63.5" width="68" height="68" rx="3.5" stroke="#1191FF" stroke-width="3"/>
<rect x="1.5" y="172.5" width="102" height="103" rx="6.5" stroke="#1191FF" stroke-width="3"/>
<rect x="1.5" y="1.5" width="60" height="60" rx="6.5" stroke="#1191FF" stroke-width="3"/>
<rect x="287.5" y="83.5" width="62" height="62" rx="3.5" stroke="#1191FF" stroke-width="3"/>
<rect x="385.5" y="99.5" width="32" height="32" rx="3.5" stroke="#1191FF" stroke-width="3"/>
<rect x="191.5" y="80.5" width="34" height="34" rx="3.5" stroke="#1191FF" stroke-width="3"/>
<rect x="357.5" y="111.5" width="20" height="20" rx="3.5" stroke="#1191FF" stroke-width="3"/>
<rect x="233.5" y="99.5" width="15" height="15" rx="3.5" stroke="#1191FF" stroke-width="3"/>
<rect x="69.5" y="22.5" width="20" height="20" rx="3.5" stroke="#1191FF" stroke-width="3"/>
<rect x="41.5" y="100.5" width="20" height="20" rx="3.5" stroke="#1191FF" stroke-width="3"/>
<rect x="329.5" y="203.5" width="20" height="20" rx="3.5" stroke="#1191FF" stroke-width="3"/>
<rect x="307.5" y="153.5" width="42" height="42" rx="3.5" stroke="#1191FF" stroke-width="3"/>
<rect x="287.5" y="153.5" width="12" height="12" rx="3.5" stroke="#1191FF" stroke-width="3"/>
<rect x="501.5" y="52.5" width="29" height="29" rx="3.5" stroke="#1191FF" stroke-width="3"/>
<rect x="513.5" y="27.5" width="17" height="17" rx="3.5" stroke="#1191FF" stroke-width="3"/>
<rect x="597.5" y="89.5" width="21" height="21" rx="3.5" stroke="#1191FF" stroke-width="3"/>
<rect x="501.5" y="185.5" width="42" height="42" rx="3.5" stroke="#1191FF" stroke-width="3"/>
<rect x="25.5" y="128.5" width="36" height="36" rx="3.5" stroke="#1191FF" stroke-width="3"/>
<rect x="357.5" y="139.5" width="136" height="136" rx="3.5" stroke="#1191FF" stroke-width="3"/>
<path d="M53.5 120.5V128.5M53.5 164.5V172.5M183.5 191.5H191.5M112.5 191.5H103.5M61.5 32.5H69.5M79.5 42.5V50.5M183.5 97.5H191.5M225.5 107.5H233.5M201.5 114.5V122.5M287.5 159.5H279.5M299.5 159.5H307.5M340.5 153.5V145.5M340.5 195.5V203.5M349.5 121.5H357.5M377.5 121.5H385.5M417.5 121.5H425.5M501.5 206.5H493.5M459.5 131.5V139.5M523.5 185.5V177.5M523.5 89.5V81.5M523.5 52.5V44.5M597.5 100.5H589.5M608.5 89.5V81.5" stroke="#1191FF" stroke-width="3"/>
<path d="M3.89453 172.5C7.1495 174.5 11.2797 174.5 14.5347 172.5M32.571 172.386C35.9126 174.538 40.2309 174.538 43.5725 172.386M61.6088 172.5C64.8638 174.5 68.994 174.5 72.249 172.5M90.5003 172.521C93.7385 174.493 97.8336 174.493 101.072 172.521" stroke="#1191FF" stroke-width="3"/>
<path d="M517.937 177.5C517.783 175.65 517.343 173.832 516.63 172.112C515.725 169.928 514.399 167.944 512.728 166.272C511.056 164.601 509.072 163.275 506.888 162.37C505.168 161.657 503.35 161.217 501.5 161.063M531.965 177.5C531.792 173.81 530.981 170.174 529.564 166.754C527.956 162.872 525.599 159.344 522.627 156.373C519.656 153.401 516.128 151.044 512.246 149.436C508.826 148.019 505.19 147.208 501.5 147.035M545.976 177.5C545.795 171.971 544.619 166.515 542.498 161.397C540.187 155.816 536.798 150.745 532.527 146.473C528.255 142.202 523.184 138.813 517.603 136.502C512.485 134.381 507.029 133.205 501.5 133.024M559.981 177.5C559.793 170.263 558.253 163.118 555.433 156.422C552.417 149.263 547.998 142.759 542.426 137.281C536.855 131.802 530.241 127.456 522.961 124.491C516.144 121.714 508.868 120.2 501.5 120.018M574.222 177.5C574.032 168.424 572.122 159.459 568.586 151.064C564.856 142.207 559.387 134.16 552.494 127.381C545.6 120.603 537.416 115.225 528.409 111.557C519.865 108.076 510.738 106.198 501.5 106.015M587.987 177.5C587.797 166.586 585.53 155.8 581.301 145.707C576.879 135.151 570.397 125.56 562.225 117.482C554.054 109.403 544.353 102.995 533.676 98.6225C523.462 94.4396 512.546 92.1988 501.5 92.0126M549 89.4315C557.745 94.1074 565.776 100.019 572.832 106.996C579.353 113.443 584.955 120.712 589.5 128.601V102.451C587.639 100.325 585.699 98.2623 583.682 96.2685C581.266 93.8791 578.749 91.5983 576.141 89.4315" stroke="#1191FF" stroke-width="3"/>
<rect x="372.5" y="153.5" width="60" height="107" rx="3.47129" stroke="#1191FF" stroke-width="3"/>
<path d="M378.447 159.646C378.447 159.062 378.921 158.588 379.505 158.588H425.551C426.135 158.588 426.609 159.062 426.609 159.646V253.442C426.609 254.026 426.135 254.5 425.551 254.5H379.505C378.921 254.5 378.447 254.026 378.447 253.442V159.646Z" stroke="#1191FF" stroke-width="3"/>
<path d="M383.034 178.5H422M422 184.5H383.034M383.034 190.5H422M422 196.5H383.034M383 202.5H421.966" stroke="#1191FF" stroke-width="3"/>
<mask id="path-58-inside-1" fill="white">
<rect x="383" y="207" width="25" height="13" rx="1.65016"/>
</mask>
<rect x="383" y="207" width="25" height="13" rx="1.65016" stroke="#1191FF" stroke-width="6" mask="url(#path-58-inside-1)"/>
<mask id="path-59-inside-2" fill="white">
<rect x="383" y="237" width="39" height="13" rx="1.65016"/>
</mask>
<rect x="383" y="237" width="39" height="13" rx="1.65016" stroke="#1191FF" stroke-width="6" mask="url(#path-59-inside-2)"/>
<path d="M412.5 208.65C412.5 208.567 412.567 208.5 412.65 208.5H420.35C420.433 208.5 420.5 208.567 420.5 208.65V232.35C420.5 232.433 420.433 232.5 420.35 232.5H412.65C412.567 232.5 412.5 232.433 412.5 232.35V208.65Z" stroke="#1191FF" stroke-width="3"/>
<mask id="path-61-inside-3" fill="white">
<rect x="383" y="223" width="11" height="11" rx="1.65016"/>
</mask>
<rect x="383" y="223" width="11" height="11" rx="1.65016" stroke="#1191FF" stroke-width="6" mask="url(#path-61-inside-3)"/>
<mask id="path-62-inside-4" fill="white">
<rect x="397" y="223" width="11" height="11" rx="1.65016"/>
</mask>
<rect x="397" y="223" width="11" height="11" rx="1.65016" stroke="#1191FF" stroke-width="6" mask="url(#path-62-inside-4)"/>
<mask id="path-63-inside-5" fill="white">
<rect x="397" y="163" width="11" height="11" rx="1.65016"/>
</mask>
<rect x="397" y="163" width="11" height="11" rx="1.65016" stroke="#1191FF" stroke-width="6" mask="url(#path-63-inside-5)"/>
<path d="M384.5 164.65C384.5 164.567 384.567 164.5 384.65 164.5H392.35C392.433 164.5 392.5 164.567 392.5 164.65V172.35C392.5 172.433 392.433 172.5 392.35 172.5H384.65C384.567 172.5 384.5 172.433 384.5 172.35V164.65Z" stroke="#1191FF" stroke-width="3"/>
<path d="M412.5 164.65C412.5 164.567 412.567 164.5 412.65 164.5H420.35C420.433 164.5 420.5 164.567 420.5 164.65V172.35C420.5 172.433 420.433 172.5 420.35 172.5H412.65C412.567 172.5 412.5 172.433 412.5 172.35V164.65Z" stroke="#1191FF" stroke-width="3"/>
<path d="M471.621 174.417C471.621 181.935 465.55 188.02 458.073 188.02C450.596 188.02 444.525 181.935 444.525 174.417C444.525 166.899 450.596 160.813 458.073 160.813C465.55 160.813 471.621 166.899 471.621 174.417Z" stroke="#1191FF" stroke-width="3"/>
<path d="M448.561 180.264L457.433 175.03C457.65 174.902 457.92 174.903 458.136 175.033L462.554 177.687C463.094 178.011 462.949 178.831 462.331 178.951L449.041 181.531C448.283 181.678 447.896 180.657 448.561 180.264Z" stroke="#1191FF" stroke-width="3"/>
<path d="M458.148 173.794V162.915C458.148 162.133 457.051 161.958 456.808 162.701L452.386 176.188C452.189 176.791 452.843 177.316 453.389 176.994L457.81 174.386C458.02 174.262 458.148 174.037 458.148 173.794Z" stroke="#1191FF" stroke-width="3"/>
<path d="M458.141 174.624V169.118C458.141 168.477 458.94 168.184 459.353 168.674L468.37 179.354C468.87 179.947 468.158 180.785 467.492 180.387L464.767 178.76L458.491 175.223C458.274 175.101 458.141 174.872 458.141 174.624Z" stroke="#1191FF" stroke-width="3"/>
<circle cx="458.073" cy="174.472" r="18.428" stroke="#1191FF" stroke-width="3"/>
<path d="M432.207 252.488H455.616C457.021 252.488 458.16 251.349 458.16 249.944V247.824M458.042 232.846L458.16 247.824M458.042 232.846V193.414M458.042 232.846L448 224.28C447.433 223.796 447.107 223.089 447.107 222.344V208.678M458.16 247.824L468.202 239.258C468.769 238.774 469.095 238.067 469.095 237.322V223.656" stroke="#1191FF" stroke-width="3"/>
<circle cx="447.049" cy="203.304" r="6.164" stroke="#1191FF" stroke-width="3"/>
<circle cx="469.096" cy="218.568" r="6.164" stroke="#1191FF" stroke-width="3"/>
<circle cx="578.5" cy="41.5" r="21" stroke="#1191FF" stroke-width="3"/>
<circle cx="578.5" cy="41.5" r="28" stroke="#1191FF" stroke-width="3"/>
<path d="M588.315 28.5H594.5L595.5 29.5L568 55M588.315 28.5H582.158M588.315 28.5L561.5 53.5M588.315 55H595M588.315 55C585.734 55 583.562 55 581.504 55M588.315 55H562C563.874 55 565.449 55 568 55M561.5 28.5H570.177H576M576 28.5V20M576 28.5H582.158M576 55V62.5M576 55C575.21 55 570.878 55 568 55M576 55C577.887 55 579.649 55 581.504 55M582.158 28.5V20.5M581.504 55V62.5" stroke="#1191FF" stroke-width="3"/>
<circle cx="148" cy="208" r="18.3305" stroke="#1191FF" stroke-width="3"/>
<circle cx="148" cy="208" r="24.5" stroke="#1191FF" stroke-width="3"/>
<path d="M146.677 197.424V206.678M146.677 197.424V189.492M146.677 197.424H141.389M146.677 197.424H151.745C154.3 197.424 156.372 199.495 156.372 202.051V202.051C156.372 204.606 154.3 206.678 151.745 206.678H146.677M146.677 218.576V206.678M146.677 218.576V226.068M146.677 218.576H141.389M146.677 218.576H153.067C156.353 218.576 159.016 215.913 159.016 212.627V212.627C159.016 209.341 156.353 206.678 153.067 206.678H146.677M132.135 197.424H141.389M132.575 218.576H141.389M141.389 197.424V218.576M141.389 197.424V190.814V218.576M141.389 218.576V225.627" stroke="#1191FF" stroke-width="3"/>
<circle cx="235.001" cy="166" r="22.9068" stroke="#1191FF" stroke-width="3"/>
<circle cx="235" cy="166" r="30.5" stroke="#1191FF" stroke-width="3"/>
<path d="M242.051 144.305L235.331 159.907M226.865 179.559H253.983M226.865 179.559H216.017M226.865 179.559L235.331 159.907M232.831 143.22L223.919 163.811M217.102 179.559L223.919 163.811M212.221 168.169L223.919 163.811M253.983 153.525L235.331 159.907" stroke="#1191FF" stroke-width="3"/>
<circle cx="31.5009" cy="31.5" r="15.661" stroke="#1191FF" stroke-width="3"/>
<circle cx="31.5" cy="31.5" r="21" stroke="#1191FF" stroke-width="3"/>
<path d="M16.627 38.3646H22.7286V23.873M46.7541 38.3646H40.6524V23.873M18.9151 41.7968H44.0846M22.7286 23.873V18.9154L23.8727 18.1527L31.4998 28.068L39.5083 18.1527L40.6524 18.9154V23.873M22.7286 23.873L31.4998 35.3137L40.6524 23.873" stroke="#1191FF" stroke-width="3"/>
<path d="M77 125.342H85.9728C87.0601 125.342 87.9416 126.216 87.9416 127.294C87.9416 127.75 87.7661 128.183 87.5309 128.575C87.1359 129.233 86.9097 129.998 86.9097 130.813C86.9097 133.285 88.9886 135.289 91.5531 135.289C94.1176 135.289 96.1965 133.285 96.1965 130.813C96.1965 129.998 95.9703 129.233 95.5753 128.575C95.3401 128.183 95.1646 127.75 95.1646 127.294C95.1646 126.216 96.0461 125.342 97.1334 125.342H106.106C108.042 125.342 109.611 123.787 109.611 121.868V113.445C109.611 112.324 110.527 111.416 111.658 111.416C112.117 111.416 112.556 111.583 112.955 111.807C113.64 112.191 114.436 112.411 115.286 112.411C117.85 112.411 119.929 110.406 119.929 107.934C119.929 105.462 117.85 103.458 115.286 103.458C114.436 103.458 113.64 103.678 112.955 104.062C112.556 104.286 112.117 104.453 111.658 104.453C110.527 104.453 109.611 103.544 109.611 102.423V94C109.611 92.0815 108.042 90.5263 106.106 90.5263H97.1334C96.0461 90.5263 95.1646 89.6526 95.1646 88.5748C95.1646 88.1187 95.3401 87.6854 95.5753 87.2934C95.9703 86.635 96.1965 85.8706 96.1965 85.0553C96.1965 82.5831 94.1176 80.5789 91.5531 80.5789C88.9886 80.5789 86.9097 82.5831 86.9097 85.0553C86.9097 85.8706 87.1359 86.635 87.5309 87.2934C87.7661 87.6854 87.9416 88.1187 87.9416 88.5748C87.9416 89.6526 87.0601 90.5263 85.9728 90.5263H77M176 125.342H167.027C165.94 125.342 165.058 126.216 165.058 127.294C165.058 127.75 165.234 128.183 165.469 128.575C165.864 129.233 166.09 129.998 166.09 130.813C166.09 133.285 164.011 135.289 161.447 135.289C158.882 135.289 156.804 133.285 156.804 130.813C156.804 129.998 157.03 129.233 157.425 128.575C157.66 128.183 157.835 127.75 157.835 127.294C157.835 126.216 156.954 125.342 155.867 125.342H146.894C144.958 125.342 143.389 123.787 143.389 121.868V113.445C143.389 112.324 142.473 111.416 141.342 111.416C140.883 111.416 140.444 111.583 140.045 111.807C139.36 112.191 138.564 112.411 137.714 112.411C135.15 112.411 133.071 110.406 133.071 107.934C133.071 105.462 135.15 103.458 137.714 103.458C138.564 103.458 139.36 103.678 140.045 104.062C140.444 104.286 140.883 104.453 141.342 104.453C142.473 104.453 143.389 103.544 143.389 102.423V94C143.389 92.0815 144.958 90.5263 146.894 90.5263H155.867C156.954 90.5263 157.835 89.6526 157.835 88.5748C157.835 88.1187 157.66 87.6854 157.425 87.2934C157.03 86.635 156.804 85.8706 156.804 85.0553C156.804 82.5831 158.882 80.5789 161.447 80.5789C164.011 80.5789 166.09 82.5831 166.09 85.0553C166.09 85.8706 165.864 86.635 165.469 87.2934C165.234 87.6854 165.058 88.1187 165.058 88.5748C165.058 89.6526 165.94 90.5263 167.027 90.5263H176M144.062 58V66.8941C144.062 67.9719 144.943 68.8456 146.031 68.8456C146.491 68.8456 146.928 68.6717 147.323 68.4386C147.988 68.0469 148.759 67.8228 149.581 67.8228C152.075 67.8228 154.097 69.8835 154.097 72.4254C154.097 74.9674 152.075 77.0281 149.581 77.0281C148.759 77.0281 147.988 76.8039 147.323 76.4123C146.928 76.1792 146.491 76.0053 146.031 76.0053C144.943 76.0053 144.062 76.879 144.062 77.9568V86.8509C144.062 88.7693 142.493 90.3246 140.558 90.3246H132.06C130.929 90.3246 130.012 91.2332 130.012 92.354C130.012 92.8093 130.181 93.2437 130.407 93.64C130.794 94.3189 131.016 95.1081 131.016 95.95C131.016 98.492 128.994 100.553 126.5 100.553C124.006 100.553 121.984 98.492 121.984 95.95C121.984 95.1081 122.206 94.3189 122.593 93.64C122.819 93.2437 122.988 92.8093 122.988 92.354C122.988 91.2332 122.071 90.3246 120.94 90.3246H112.442C110.507 90.3246 108.938 88.7693 108.938 86.8509V77.9568C108.938 76.879 108.057 76.0053 106.969 76.0053C106.509 76.0053 106.072 76.1792 105.677 76.4123C105.012 76.8039 104.241 77.0281 103.419 77.0281C100.925 77.0281 98.9027 74.9674 98.9027 72.4254C98.9027 69.8835 100.925 67.8228 103.419 67.8228C104.241 67.8228 105.012 68.0469 105.677 68.4386C106.072 68.6717 106.509 68.8456 106.969 68.8456C108.057 68.8456 108.938 67.9719 108.938 66.8941V58M144.062 157V148.106C144.062 147.028 144.943 146.154 146.031 146.154C146.491 146.154 146.928 146.328 147.323 146.561C147.988 146.953 148.759 147.177 149.581 147.177C152.075 147.177 154.097 145.117 154.097 142.575C154.097 140.033 152.075 137.972 149.581 137.972C148.759 137.972 147.988 138.196 147.323 138.588C146.928 138.821 146.491 138.995 146.031 138.995C144.943 138.995 144.062 138.121 144.062 137.043V128.149C144.062 126.231 142.493 124.675 140.558 124.675H132.06C130.929 124.675 130.012 123.767 130.012 122.646C130.012 122.191 130.181 121.756 130.407 121.36C130.794 120.681 131.016 119.892 131.016 119.05C131.016 116.508 128.994 114.447 126.5 114.447C124.006 114.447 121.984 116.508 121.984 119.05C121.984 119.892 122.206 120.681 122.593 121.36C122.819 121.756 122.988 122.191 122.988 122.646C122.988 123.767 122.071 124.675 120.94 124.675H112.442C110.507 124.675 108.938 126.231 108.938 128.149V137.043C108.938 138.121 108.057 138.995 106.969 138.995C106.509 138.995 106.072 138.821 105.677 138.588C105.012 138.196 104.241 137.972 103.419 137.972C100.925 137.972 98.9027 140.033 98.9027 142.575C98.9027 145.117 100.925 147.177 103.419 147.177C104.241 147.177 105.012 146.953 105.677 146.561C106.072 146.328 106.509 146.154 106.969 146.154C108.057 146.154 108.938 147.028 108.938 148.106V157" stroke="#1191FF" stroke-width="3"/>
<path d="M99.4 102.5V105.393C99.4 107.05 98.0569 108.393 96.4 108.393H89.6C87.9431 108.393 86.6 109.736 86.6 111.393V113.5M99.4 102.5H102C103.657 102.5 105 103.843 105 105.5V110.5C105 112.157 103.657 113.5 102 113.5H93H96.65C98.1688 113.5 99.4 114.731 99.4 116.25V116.25C99.4 117.769 98.1688 119 96.65 119H89.6C87.9431 119 86.6 117.657 86.6 116V113.5M99.4 102.5V100C99.4 98.3431 98.0569 97 96.4 97H89.6C87.9431 97 86.6 98.3431 86.6 100V102.5M95.8 102.5H86.6M86.6 113.5H84C82.3431 113.5 81 112.157 81 110.5V105.5C81 103.843 82.3431 102.5 84 102.5H86.6" stroke="#1191FF" stroke-width="3"/>
<path d="M114.5 67.326L126 60.7293L137.5 67.326V80.0638L126 86.294L114.5 80.0638V67.326Z" stroke="#1191FF" stroke-width="3"/>
<mask id="path-89-inside-6" fill="white">
<path d="M132.476 77.0831C131.668 78.3662 130.471 79.3584 129.061 79.9158C127.65 80.4732 126.098 80.5668 124.631 80.183C123.164 79.7993 121.857 78.9581 120.899 77.7815C119.942 76.6049 119.385 75.1541 119.308 73.6393C119.231 72.1245 119.638 70.6245 120.471 69.3568C121.303 68.0891 122.518 67.1196 123.939 66.5889C125.36 66.0582 126.913 65.9938 128.373 66.4051C129.833 66.8164 131.124 67.6821 132.059 68.8765L129.977 70.5057C129.389 69.7536 128.576 69.2085 127.656 68.9495C126.737 68.6905 125.759 68.731 124.864 69.0652C123.969 69.3994 123.204 70.0099 122.68 70.8082C122.156 71.6065 121.899 72.551 121.948 73.5049C121.996 74.4588 122.347 75.3725 122.95 76.1134C123.553 76.8543 124.376 77.384 125.3 77.6257C126.224 77.8673 127.201 77.8084 128.089 77.4574C128.977 77.1064 129.731 76.4816 130.24 75.6736L132.476 77.0831Z"/>
</mask>
<path d="M132.476 77.0831C131.668 78.3662 130.471 79.3584 129.061 79.9158C127.65 80.4732 126.098 80.5668 124.631 80.183C123.164 79.7993 121.857 78.9581 120.899 77.7815C119.942 76.6049 119.385 75.1541 119.308 73.6393C119.231 72.1245 119.638 70.6245 120.471 69.3568C121.303 68.0891 122.518 67.1196 123.939 66.5889C125.36 66.0582 126.913 65.9938 128.373 66.4051C129.833 66.8164 131.124 67.6821 132.059 68.8765L129.977 70.5057C129.389 69.7536 128.576 69.2085 127.656 68.9495C126.737 68.6905 125.759 68.731 124.864 69.0652C123.969 69.3994 123.204 70.0099 122.68 70.8082C122.156 71.6065 121.899 72.551 121.948 73.5049C121.996 74.4588 122.347 75.3725 122.95 76.1134C123.553 76.8543 124.376 77.384 125.3 77.6257C126.224 77.8673 127.201 77.8084 128.089 77.4574C128.977 77.1064 129.731 76.4816 130.24 75.6736L132.476 77.0831Z" stroke="#1191FF" stroke-width="7.85693" mask="url(#path-89-inside-6)"/>
<path d="M154.452 97L151.274 102.696M154.452 97H148L151.274 102.696M154.452 97L157.726 102.696M151.274 102.696L154.548 108.5M170.726 102.696L174 97H167.548M170.726 102.696L167.548 97M170.726 102.696L167.452 108.5M167.548 97L164.274 102.696M157.726 102.696L154.548 108.5M157.726 102.696L161 108.5M157.726 102.696L159.321 100.009H162.679L164.274 102.696M154.548 108.5L157.822 114.304M161 108.5L157.822 114.304M161 108.5L164.274 102.696M161 108.5L164.178 114.304M157.822 114.304L161 120L164.178 114.304M164.274 102.696L167.452 108.5M167.452 108.5L164.178 114.304" stroke="#1191FF" stroke-width="3"/>
<path d="M112.526 134.19L121.245 129.646C121.715 129.401 122.263 129.352 122.769 129.512L129.169 131.526M112.526 134.19L122.381 153.096M112.526 134.19L119.716 136.453M141.287 143.242L136.742 134.523C136.497 134.053 136.075 133.699 135.569 133.54L129.169 131.526M141.287 143.242L122.381 153.096M141.287 143.242L134.096 140.979M122.381 153.096L119.716 136.453M122.381 153.096L134.096 140.979M119.716 136.453L126.906 138.716L134.096 140.979M119.716 136.453L129.169 131.526M134.096 140.979L129.169 131.526" stroke="#1191FF" stroke-width="3"/>
<circle cx="203.5" cy="230.5" r="4" stroke="#1191FF" stroke-width="3"/>
<circle cx="219.5" cy="230.5" r="4" stroke="#1191FF" stroke-width="3"/>
<circle cx="235.5" cy="230.5" r="4" stroke="#1191FF" stroke-width="3"/>
<circle cx="251.5" cy="230.5" r="4" stroke="#1191FF" stroke-width="3"/>
<circle cx="367.5" cy="91.5" r="4" stroke="#1191FF" stroke-width="3"/>
<circle cx="267.5" cy="101.5" r="5" stroke="#1191FF" stroke-width="3"/>
<circle cx="608" cy="129" r="4.5" stroke="#1191FF" stroke-width="3"/>
<circle cx="608" cy="144" r="4.5" stroke="#1191FF" stroke-width="3"/>
<circle cx="608" cy="159" r="4.5" stroke="#1191FF" stroke-width="3"/>
<circle cx="608" cy="174" r="4.5" stroke="#1191FF" stroke-width="3"/>
<circle cx="608" cy="189" r="4.5" stroke="#1191FF" stroke-width="3"/>
<circle cx="608" cy="204" r="4.5" stroke="#1191FF" stroke-width="3"/>
<circle cx="608" cy="219" r="4.5" stroke="#1191FF" stroke-width="3"/>
<circle cx="608" cy="234" r="4.5" stroke="#1191FF" stroke-width="3"/>
<circle cx="608" cy="249" r="4.5" stroke="#1191FF" stroke-width="3"/>
<circle cx="608" cy="264" r="4.5" stroke="#1191FF" stroke-width="3"/>
<circle cx="267.5" cy="83.5" r="5" stroke="#1191FF" stroke-width="3"/>
<circle cx="267.5" cy="65.5" r="5" stroke="#1191FF" stroke-width="3"/>
<circle cx="267.5" cy="47.5" r="5" stroke="#1191FF" stroke-width="3"/>
<circle cx="267.5" cy="29.5" r="5" stroke="#1191FF" stroke-width="3"/>
<circle cx="267.5" cy="11.5" r="5" stroke="#1191FF" stroke-width="3"/>
<circle cx="367.5" cy="75.5" r="4" stroke="#1191FF" stroke-width="3"/>
<circle cx="367.5" cy="59.5" r="4" stroke="#1191FF" stroke-width="3"/>
<circle cx="367.5" cy="43.5" r="4" stroke="#1191FF" stroke-width="3"/>
<circle cx="245" cy="25" r="5.5" stroke="#1191FF" stroke-width="3"/>
<circle cx="245" cy="7" r="5.5" stroke="#1191FF" stroke-width="3"/>
<circle cx="245" cy="43" r="5.5" stroke="#1191FF" stroke-width="3"/>
<circle cx="245" cy="61" r="5.5" stroke="#1191FF" stroke-width="3"/>
<circle cx="245" cy="79" r="5.5" stroke="#1191FF" stroke-width="3"/>
<circle cx="367.5" cy="27.5" r="4" stroke="#1191FF" stroke-width="3"/>
<circle cx="367.5" cy="11.5" r="4" stroke="#1191FF" stroke-width="3"/>
<circle cx="318.5" cy="114.5" r="4" stroke="#1191FF" stroke-width="3"/>
<circle cx="267.5" cy="230.5" r="4" stroke="#1191FF" stroke-width="3"/>
<circle cx="283.5" cy="230.5" r="4" stroke="#1191FF" stroke-width="3"/>
<circle cx="283.5" cy="246.5" r="4" stroke="#1191FF" stroke-width="3"/>
<circle cx="267.5" cy="246.5" r="4" stroke="#1191FF" stroke-width="3"/>
<circle cx="251.5" cy="246.5" r="4" stroke="#1191FF" stroke-width="3"/>
<circle cx="235.5" cy="246.5" r="4" stroke="#1191FF" stroke-width="3"/>
<circle cx="110" cy="31" r="5.5" stroke="#1191FF" stroke-width="3"/>
<circle cx="127" cy="31" r="5.5" stroke="#1191FF" stroke-width="3"/>
<circle cx="127" cy="13" r="5.5" stroke="#1191FF" stroke-width="3"/>
<circle cx="144" cy="13" r="5.5" stroke="#1191FF" stroke-width="3"/>
<circle cx="144" cy="31" r="5.5" stroke="#1191FF" stroke-width="3"/>
<circle cx="161" cy="31" r="5.5" stroke="#1191FF" stroke-width="3"/>
<circle cx="161" cy="13" r="5.5" stroke="#1191FF" stroke-width="3"/>
<circle cx="178" cy="13" r="5.5" stroke="#1191FF" stroke-width="3"/>
<circle cx="178" cy="31" r="5.5" stroke="#1191FF" stroke-width="3"/>
<circle cx="110" cy="13" r="5.5" stroke="#1191FF" stroke-width="3"/>
<circle cx="14" cy="81" r="5.5" stroke="#1191FF" stroke-width="3"/>
<circle cx="32" cy="81" r="5.5" stroke="#1191FF" stroke-width="3"/>
<circle cx="50" cy="81" r="5.5" stroke="#1191FF" stroke-width="3"/>
<circle cx="219.5" cy="246.5" r="4" stroke="#1191FF" stroke-width="3"/>
<circle cx="203.5" cy="246.5" r="4" stroke="#1191FF" stroke-width="3"/>
<circle cx="203.5" cy="262.5" r="4" stroke="#1191FF" stroke-width="3"/>
<circle cx="219.5" cy="262.5" r="4" stroke="#1191FF" stroke-width="3"/>
<circle cx="235.5" cy="262.5" r="4" stroke="#1191FF" stroke-width="3"/>
<circle cx="251.5" cy="262.5" r="4" stroke="#1191FF" stroke-width="3"/>
<circle cx="267.5" cy="262.5" r="4" stroke="#1191FF" stroke-width="3"/>
<circle cx="283.5" cy="262.5" r="4" stroke="#1191FF" stroke-width="3"/>
<circle cx="318.5" cy="99.5" r="4" stroke="#1191FF" stroke-width="3"/>
<circle cx="318.5" cy="129.5" r="4" stroke="#1191FF" stroke-width="3"/>
<circle cx="333.5" cy="129.5" r="4" stroke="#1191FF" stroke-width="3"/>
<circle cx="333.5" cy="114.5" r="4" stroke="#1191FF" stroke-width="3"/>
<circle cx="303.5" cy="114.5" r="4" stroke="#1191FF" stroke-width="3"/>
<circle cx="303.5" cy="99.5" r="4" stroke="#1191FF" stroke-width="3"/>
<circle cx="333.5" cy="99.5" r="4" stroke="#1191FF" stroke-width="3"/>
<circle cx="303.5" cy="129.5" r="4" stroke="#1191FF" stroke-width="3"/>
<path d="M31.5 128.5V164" stroke="#1191FF" stroke-width="3"/>
<path d="M55.5 129V164.5M37.5 129V164.5M43.5 129V164.5M49.5 129V164.5" stroke="#1191FF" stroke-width="3"/>
<path d="M348.5 154.5L308.5 194.5M307.5 163.5L317.5 153.5M307.5 171.5L325.5 153.5M307.5 179.5L333.5 153.5M315.5 195.5L349.5 161.5M341.5 153.5L307.5 187.5M349.5 170L323.5 196M350 178L332 196M350 186L340 196" stroke="#1191FF" stroke-width="3"/>
<path d="M502.5 186L542.5 226M543.5 195L533.5 185M543.5 203L525.5 185M543.5 211L517.5 185M535.5 227L501.5 193M509.5 185L543.5 219M501.5 201.5L527.5 227.5M501 209.5L519 227.5M501 217.5L511 227.5" stroke="#1191FF" stroke-width="3"/>
<circle cx="208.5" cy="97.5" r="15" stroke="#1191FF" stroke-width="3"/>
<circle cx="208.5" cy="97.5" r="9" stroke="#1191FF" stroke-width="3"/>
<circle cx="208.5" cy="97.5" r="3" stroke="#1191FF" stroke-width="3"/>
<path d="M99.5 275.5H360.5H364.5H483.5H610.5C614.918 275.5 618.5 271.918 618.5 267.5V72M549.5 1.5H52.5M1.5 56.5V191" stroke="#1191FF" stroke-width="3"/>
<path d="M112.5 275.5V256.5C112.5 253.739 114.739 251.5 117.5 251.5H191.5M191.5 251.5V223.5C191.5 220.739 193.739 218.5 196.5 218.5H287.5M191.5 251.5V275.5M287.5 218.5V178.5C287.5 175.739 289.739 173.5 292.5 173.5H294.5C297.261 173.5 299.5 175.739 299.5 178.5V203.5M287.5 218.5V275.5M299.5 203.5H318.5C321.261 203.5 323.5 205.739 323.5 208.5V231.5M299.5 203.5V275.5M323.5 231.5H344.5C347.261 231.5 349.5 233.739 349.5 236.5V275.5M323.5 231.5V275.5" stroke="#1191FF" stroke-width="3"/>
<path d="M501.5 275.5V240.5C501.5 237.739 503.739 235.5 506.5 235.5H551.5M551.5 235.5V190.5C551.5 187.739 553.739 185.5 556.5 185.5H597.5M551.5 235.5V275.5M597.5 185.5V123.5C597.5 120.739 599.739 118.5 602.5 118.5H618.5M597.5 185.5L598 275.5" stroke="#1191FF" stroke-width="3"/>
<path d="M1 69.5H56.5C59.2614 69.5 61.5 71.7386 61.5 74.5V87.5C61.5 90.2614 59.2614 92.5 56.5 92.5H33.5M1.5 92.5H33.5M1.5 120.5H17.5M33.5 92.5V115.5C33.5 118.261 31.2614 120.5 28.5 120.5H17.5M2 164.5H12.5C15.2614 164.5 17.5 162.261 17.5 159.5V120.5" stroke="#1191FF" stroke-width="3"/>
<path d="M69.5 1V10C69.5 12.7614 71.7386 15 74.5 15H97.5M97.5 15V1M97.5 15V37.5C97.5 40.2614 99.7386 42.5 102.5 42.5H191.5M191.5 42.5V1.5M191.5 42.5V67.5C191.5 70.2614 193.739 72.5 196.5 72.5H233.5M233.5 72.5V1.5M233.5 72.5V86.5C233.5 89.2614 235.739 91.5 238.5 91.5H256.5M256.5 1V91.5M256.5 91.5V109.5C256.5 112.261 258.739 114.5 261.5 114.5H274.5C277.261 114.5 279.5 112.261 279.5 109.5V75.5M279.5 1V75.5M279.5 75.5H357.5M357.5 75.5V1.5M357.5 75.5V98.5C357.5 101.261 359.739 103.5 362.5 103.5H372.5C375.261 103.5 377.5 101.261 377.5 98.5V91.5M377.5 1.5V91.5M377.5 91.5H412.5C415.261 91.5 417.5 89.2614 417.5 86.5V55.5M417.5 1V55.5M417.5 55.5H488.5C491.261 55.5 493.5 53.2614 493.5 50.5V44.5M493.5 1V44.5M493.5 44.5H500.5C503.261 44.5 505.5 42.2614 505.5 39.5V19.5M505.5 1V19.5M505.5 19.5H525.5C528.261 19.5 530.5 17.2614 530.5 14.5V1.5" stroke="#1191FF" stroke-width="3"/>
<path d="M586 185.5V275.5M574.5 185.5V275.5M563 185.5V196.75M563 275.5V264.25M563 230.5H597.5M563 230.5H551.5M563 230.5V241.75M563 230.5V219.25M563 253H551.5M563 253H597.5M563 253V264.25M563 253V241.75M563 264.25H551.5H597.5M563 241.75H551.5M563 241.75H597.5M563 208H551.5M563 208H597.5M563 208V196.75M563 208V219.25M563 196.75H551.5M563 196.75H597.5M563 219.25H551.5M563 219.25H597.5" stroke="#1191FF" stroke-width="3"/>
<path d="M511.5 274.5V247.5C511.5 245.843 512.843 244.5 514.5 244.5H551" stroke="#1191FF" stroke-width="3"/>
<path d="M521.5 275.5V255.5C521.5 254.395 522.395 253.5 523.5 253.5H550.5" stroke="#1191FF" stroke-width="3"/>
<path d="M531.5 274V263.5C531.5 262.948 531.948 262.5 532.5 262.5H550" stroke="#1191FF" stroke-width="3"/>
<path d="M289.5 2.5V58.5C289.5 61.2614 291.739 63.5 294.5 63.5H342.5C345.261 63.5 347.5 61.2614 347.5 58.5V2.5" stroke="#1191FF" stroke-width="3"/>
<path d="M299.5 2.5V45.5654C299.5 48.3011 301.699 50.5289 304.434 50.5649L332.434 50.9333C335.221 50.97 337.5 48.7209 337.5 45.9338V3M309.5 2.5V34.5C309.5 37.2614 311.739 39.5 314.5 39.5H322.5C325.261 39.5 327.5 37.2614 327.5 34.5V2.5" stroke="#1191FF" stroke-width="3"/>
<path d="M113 275.913L136 252L159 275.913L181 253.04L191 263.437M191 271.234L181 260.837L166.5 275.913M151.5 275.913L136 259.798L120.5 275.913M127.5 275.913L136 267.076L144.5 275.913M173.5 275.913L181 268.115L188.798 275.913" stroke="#1191FF" stroke-width="3"/>
<path d="M300.5 212.5H322.5M322.5 221.5H300.5M300.5 231H322.5M322.5 239.5H300.5M300.5 266.5H322.5M300.5 248.5H322.5M300.5 257.5H322.5" stroke="#1191FF" stroke-width="3"/>
<path d="M330.5 232.5V275.5M336.5 275.5V232.5M342.5 232.5V275.5" stroke="#1191FF" stroke-width="3"/>
<path d="M405.5 91.5L417.5 79.5M417.5 71.5L397.5 91.5M389.5 91.5L417.5 63.5M417.5 55L381 91.5M377.5 86.5L417.5 46.5M417.5 38.5L377.5 78.5M377.5 70L417.5 30M377.5 62L417.5 22M377.5 54L417.5 14M377.5 46L417.5 6M377.5 38.5L414.5 1.5M377.5 31L407 1.5M399 1.5L377.5 23M378 14L390.5 1.5M382.5 1.5L378 6" stroke="#1191FF" stroke-width="3"/>
<path d="M191 62L202.812 72.5M191 54L211.812 72.5M191 46L220.812 72.5M191 37.5L230.375 72.5M191 29L233.5 66.7778M191 21L233.5 58.7778M191 12.5L233.5 50.2778M191 4.5L233.5 42.2778M196.625 1.5L233.5 34.2778M205.625 1.5L233.5 26.2778M214.062 1.5L233.5 18.7778M222.5 1.5L233.5 11.2778M231.5 1.5L233.5 3.27778" stroke="#1191FF" stroke-width="3"/>
<path d="M2.5 99H32.5M32.5 106.5H2.5M2.5 114H32.5" stroke="#1191FF" stroke-width="3"/>
<path d="M2 127.5H16M16 133.5H2M2 139.5H16M16 145.5H2M16 151.5H2M2 157.5H16" stroke="#1191FF" stroke-width="3"/>
<path d="M506 7.5H529M529 13.5H506" stroke="#1191FF" stroke-width="3"/>
</g>
<defs>
<clipPath id="clip0">
<rect width="620" height="277" fill="white"/>
</clipPath>
</defs>
</svg>
