<svg xmlns="http://www.w3.org/2000/svg" width="580" height="535" fill="none"><g clip-path="url(#clip0)"><rect width="577" height="532" x="2" y="2" stroke="#1191FF" stroke-linecap="round" stroke-width="3" rx="18.5"/><path stroke="#1191FF" stroke-width="3" d="M113 161l-30-30M78 156l32 32M78 186l32 32M78 216l32 32M78 246l32 32M78 276l32 32M78 306l31 31M78 336l31 31M78 366l32 32M78 396l31 31M78 426l31 31M108 126l32 32M138 126l32 32M168 126l32 32M198 126l32 32M228 126l32 32M258 126l32 32M288 126l7 7M2 104h312m265 0H337M196 2v103"/><circle cx="18" cy="18" r="6.5" stroke="#1191FF" stroke-width="3"/><circle cx="18" cy="41" r="6.5" stroke="#1191FF" stroke-width="3"/><circle cx="18" cy="64" r="6.5" stroke="#1191FF" stroke-width="3"/><circle cx="18" cy="87" r="6.5" stroke="#1191FF" stroke-width="3"/><circle cx="41" cy="18" r="6.5" stroke="#1191FF" stroke-width="3"/><circle cx="41" cy="41" r="6.5" stroke="#1191FF" stroke-width="3"/><circle cx="41" cy="64" r="6.5" stroke="#1191FF" stroke-width="3"/><circle cx="41" cy="87" r="6.5" stroke="#1191FF" stroke-width="3"/><circle cx="64" cy="18" r="6.5" stroke="#1191FF" stroke-width="3"/><circle cx="64" cy="41" r="6.5" stroke="#1191FF" stroke-width="3"/><circle cx="64" cy="64" r="6.5" stroke="#1191FF" stroke-width="3"/><circle cx="64" cy="87" r="6.5" stroke="#1191FF" stroke-width="3"/><circle cx="87" cy="18" r="6.5" stroke="#1191FF" stroke-width="3"/><circle cx="87" cy="41" r="6.5" stroke="#1191FF" stroke-width="3"/><circle cx="87" cy="64" r="6.5" stroke="#1191FF" stroke-width="3"/><circle cx="87" cy="87" r="6.5" stroke="#1191FF" stroke-width="3"/><circle cx="110" cy="18" r="6.5" stroke="#1191FF" stroke-width="3"/><circle cx="110" cy="41" r="6.5" stroke="#1191FF" stroke-width="3"/><circle cx="110" cy="64" r="6.5" stroke="#1191FF" stroke-width="3"/><circle cx="110" cy="87" r="6.5" stroke="#1191FF" stroke-width="3"/><circle cx="133" cy="18" r="6.5" stroke="#1191FF" stroke-width="3"/><circle cx="133" cy="41" r="6.5" stroke="#1191FF" stroke-width="3"/><circle cx="133" cy="64" r="6.5" stroke="#1191FF" stroke-width="3"/><circle cx="133" cy="87" r="6.5" stroke="#1191FF" stroke-width="3"/><circle cx="156" cy="18" r="6.5" stroke="#1191FF" stroke-width="3"/><circle cx="156" cy="41" r="6.5" stroke="#1191FF" stroke-width="3"/><circle cx="156" cy="64" r="6.5" stroke="#1191FF" stroke-width="3"/><circle cx="156" cy="87" r="6.5" stroke="#1191FF" stroke-width="3"/><circle cx="179" cy="18" r="6.5" stroke="#1191FF" stroke-width="3"/><circle cx="179" cy="41" r="6.5" stroke="#1191FF" stroke-width="3"/><circle cx="179" cy="64" r="6.5" stroke="#1191FF" stroke-width="3"/><circle cx="179" cy="87" r="6.5" stroke="#1191FF" stroke-width="3"/><path stroke="#1191FF" stroke-width="3" d="M306 2v103"/><mask id="a" fill="#fff"><path fill-rule="evenodd" d="M307 105V16a144 144 0 00-14-16h-99v105h113z" clip-rule="evenodd"/></mask><path fill="#1191FF" d="M307 16h3v-1l-1-1-2 2zm0 89v3h3v-3h-3zM296 3l2-2-2 2zm-3-3l2-2-1-1h-1v3zm-99 0v-3h-3v3h3zm0 105h-3v3h3v-3zm110-89v89h6V16h-6zm5-2L298 1l-4 4 11 13 4-4zM298 1l-3-3-5 4 4 3 4-4zM194 3h99v-6h-99v6zm-3-3v105h6V0h-6zm116 102H194v6h113v-6z" mask="url(#a)"/><mask id="b" fill="#fff"><path fill-rule="evenodd" d="M307 105V45a128 128 0 00-40-45h-73v105h113z" clip-rule="evenodd"/></mask><path fill="#1191FF" d="M307 45h3v-2l-3 2zm0 60v3h3v-3h-3zm-22-91l2-2-2 2zM267 0l2-2-1-1h-1v3zm-73 0v-3h-3v3h3zm0 105h-3v3h3v-3zm110-60v60h6V45h-6zm6-2c-6-11-14-21-23-31l-5 5c9 8 17 18 22 29l6-3zm-23-31L269-2l-4 4c7 5 12 9 17 15l5-5zm-93-9h73v-6h-73v6zm-3-3v105h6V0h-6zm116 102H194v6h113v-6z" mask="url(#b)"/><mask id="c" fill="#fff"><path fill-rule="evenodd" d="M297 62c6 14 9 28 9 43H194V0h39a112 112 0 0164 62z" clip-rule="evenodd"/></mask><path fill="#1191FF" d="M306 105v3h3v-3h-3zm-9-43l3-1-3 1zm-103 43h-3v3h3v-3zm0-105v-3h-3v3h3zm39 0l1-3h-1v3zm4 2l1-3-1 3zm72 103c0-15-3-30-9-44l-5 2c5 14 8 28 8 42h6zm-3-3H194v6h112v-6zM191 0v105h6V0h-6zm3 3h39v-6h-39v6zm44-4l-4-2-2 6 4 1 2-5zm37 25c-10-11-23-19-37-25l-2 5c13 6 25 14 35 24l4-4zm25 37c-6-14-14-27-25-37l-4 4c10 10 18 22 24 35l5-2z" mask="url(#c)"/><mask id="d" fill="#fff"><path fill-rule="evenodd" d="M194 105h96a96 96 0 00-96-96v96z" clip-rule="evenodd"/></mask><path fill="#1191FF" d="M194 105h-3v3h3v-3zm96 0v3h3v-3h-3zm-7-37l2-1-2 1zm-21-31l-2 2 2-2zm-31-21l-1 3 1-3zm-37-7V6h-3v3h3zm0 99h96v-6h-96v6zm99-3c0-13-3-26-8-38l-5 2c5 12 7 24 7 36h6zm-8-38c-5-12-12-23-21-32l-4 4c8 9 15 19 20 30l5-2zm-21-32c-9-9-20-16-32-21l-2 5c11 5 21 12 30 20l4-4zm-32-21c-12-5-25-8-38-8v6c12 0 24 2 36 7l2-5zm-35 91V9h-6v96h6z" mask="url(#d)"/><mask id="e" fill="#fff"><path fill-rule="evenodd" d="M194 89v16h16a16 16 0 00-16-16z" clip-rule="evenodd"/></mask><path fill="#1191FF" d="M194 89v-3h-3v3h3zm0 16h-3v3h3v-3zm16 0v3h3v-3h-3zm-1-6l3-1-3 1zm-9-9l-1 3 1-3zm-9-1v16h6V89h-6zm3 19h16v-6h-16v6zm19-3l-1-7-6 2 1 5h6zm-1-7c-1-3-3-5-5-6l-4 4 3 4 6-2zm-5-6c-1-2-3-4-6-5l-2 6 4 3 4-4zm-6-5l-7-1v6l5 1 2-6z" mask="url(#e)"/><mask id="f" fill="#fff"><path fill-rule="evenodd" d="M194 105h80a80 80 0 00-80-80v80z" clip-rule="evenodd"/></mask><path fill="#1191FF" d="M194 105h-3v3h3v-3zm80 0v3h3v-3h-3zm-6-31l-3 2 3-2zm-17-26l2-2-2 2zm-26-17l-2 3 2-3zm-31-6v-3h-3v3h3zm0 83h80v-6h-80v6zm83-3c0-11-2-22-6-32l-6 3c4 9 6 19 6 29h6zm-6-32c-4-10-11-19-18-27l-5 5c8 7 13 15 17 25l6-3zm-18-27c-8-7-17-14-27-18l-3 6c10 4 18 9 25 17l5-5zm-27-18c-10-4-21-6-32-6v6c10 0 20 2 29 6l3-6zm-29 77V25h-6v80h6z" mask="url(#f)"/><mask id="g" fill="#fff"><path fill-rule="evenodd" d="M194 41v64-64zm0 0a64 64 0 0164 64h-64" clip-rule="evenodd"/></mask><path fill="#1191FF" d="M193 41v64h3V41h-3zm3 64V41h-3v64h3zm-2 0h-3v3h3v-3zm24-59l-1 3 1-3zm35 35l3-2-3 2zm5 24v3h3v-3h-3zm-67-64v64h6V41h-6zm29 2c-8-3-17-5-26-5v6c8 0 16 2 23 5l3-6zm21 15c-6-7-13-12-21-15l-3 6c8 3 14 7 20 13l4-4zm15 21c-3-8-8-15-15-21l-4 4c6 6 10 12 13 20l6-3zm5 26c0-9-2-18-5-26l-6 3c3 7 5 15 5 23h6zm-67 3h64v-6h-64v6z" mask="url(#g)"/><mask id="h" fill="#fff"><path fill-rule="evenodd" d="M194 57v48-48zm0 0a48 48 0 0148 48h-48" clip-rule="evenodd"/></mask><path fill="#1191FF" d="M193 57v48h3V57h-3zm3 48V57h-3v48h3zm-2 0h-3v3h3v-3zm18-44l-1 2 1-2zm16 10l-2 2 2-2zm10 16l3-2-3 2zm4 18v3h3v-3h-3zm-51-48v48h6V57h-6zm23 1c-7-3-13-4-20-4v6c6 0 12 1 17 3l3-5zm16 11c-5-5-10-9-16-11l-3 5c6 3 11 6 15 10l4-4zm11 16c-2-6-6-11-11-16l-4 4c4 4 7 9 10 15l5-3zm4 20c0-7-1-13-4-20l-5 3c2 5 3 11 3 17h6zm-51 3h48v-6h-48v6z" mask="url(#h)"/><mask id="i" fill="#fff"><path fill-rule="evenodd" d="M194 73v32h32a32 32 0 00-32-32z" clip-rule="evenodd"/></mask><path fill="#1191FF" d="M194 73v-3h-3v3h3zm0 32h-3v3h3v-3zm32 0v3h3v-3h-3zm-2-12l2-1-2 1zm-18-18l-1 3 1-3zm-15-2v32h6V73h-6zm3 35h32v-6h-32v6zm35-3c0-5-1-9-3-13l-5 2 2 11h6zm-3-13c-1-5-4-8-7-12l-4 4 6 10 5-2zm-7-12c-4-3-7-6-12-7l-2 5 10 6 4-4zm-12-7c-4-2-8-3-13-3v6l11 2 2-5z" mask="url(#i)"/><circle cx="14" cy="390" r="6.5" stroke="#1191FF" stroke-width="3"/><path stroke="#1191FF" stroke-width="3" d="M14 104v279"/><circle cx="14" cy="390" r="6.5" stroke="#1191FF" stroke-width="3"/><path stroke="#1191FF" stroke-width="3" d="M14 104v279"/><circle cx="75" cy="489" r="6.5" stroke="#1191FF" stroke-width="3"/><circle cx="288" cy="505" r="6.5" stroke="#1191FF" stroke-width="3"/><circle cx="561" cy="247" r="6.5" stroke="#1191FF" stroke-width="3"/><circle cx="542" cy="321" r="6.5" stroke="#1191FF" stroke-width="3"/><circle cx="520" cy="339" r="6.5" stroke="#1191FF" stroke-width="3"/><circle cx="363.5" cy="277.5" r="5" stroke="#1191FF" stroke-width="3"/><circle cx="377.5" cy="188.5" r="5" stroke="#1191FF" stroke-width="3"/><circle cx="497" cy="356" r="3.5" stroke="#1191FF" stroke-width="3"/><circle cx="469" cy="356" r="3.5" stroke="#1191FF" stroke-width="3"/><circle cx="440" cy="356" r="3.5" stroke="#1191FF" stroke-width="3"/><path stroke="#1191FF" stroke-width="3" d="M75 496v38m8 0v-5c0-6 4-10 10-10h22m277-374v177M115 519h267c6 0 10-4 10-10v-26m-277 36l11-11 7-2h149m110-134h159c6 0 10-4 10-10V253M392 372v-50m0 50v111m0-161h14m131 0H434m-28 0l14 14c1 2 4 3 7 3h13m-34-17h28m80 17h-17m-57 0v15m0-15h29m0 0v14m0-14h28m0 0v13m-63-30l17-17c1-2 4-3 7-3h62M392 483l-14-15m-14-186v168l2 7 12 11m0 0V193"/><circle cx="42" cy="313" r="6.5" stroke="#1191FF" stroke-width="3"/><circle cx="28" cy="172" r="6.5" stroke="#1191FF" stroke-width="3"/><path stroke="#1191FF" stroke-width="3" d="M42 104v203M28 104v62M56 104v253c0 4-1 8-4 11L2 439"/><path stroke="#1191FF" stroke-width="3" d="M2 459l50-71c3-3 4-7 4-11v-19"/><path stroke="#1191FF" stroke-width="3" d="M2 479l50-71c3-3 4-7 4-11v-19"/><path stroke="#1191FF" stroke-width="3" d="M2 499l50-71c3-3 4-7 4-11v-19"/><path stroke="#1191FF" stroke-width="3" d="M2 519l50-71c3-3 4-7 4-11v-19"/><path stroke="#1191FF" stroke-width="3" d="M56 438v19c0 4-1 8-4 11L8 529"/><path stroke="#1191FF" stroke-width="3" d="M56 458v19c0 4-1 8-4 11l-32 46"/><path stroke="#1191FF" stroke-width="3" d="M56 478v19c0 4-1 8-4 11l-18 26"/><path stroke="#1191FF" stroke-width="3" d="M56 498v19c0 4-1 8-4 11l-4 6M56 518v16M14 210l8 8c4 4 6 9 6 14v109"/><rect width="13" height="27" x="22" y="342" stroke="#1191FF" stroke-width="3" rx="6.5"/><rect width="13" height="27" x="386" y="118" stroke="#1191FF" stroke-width="3" rx="6.5"/><rect width="13" height="27" x="546" y="296" stroke="#1191FF" stroke-width="3" rx="6.5" transform="rotate(90 546 296)"/><path stroke="#1191FF" stroke-width="3" d="M352 200v-31c0-4-2-8-5-10m5 103v197h-20c-7 0-12 6-12 12v20H121c-7 0-12-5-12-12V169c0-7 5-12 12-12h174M320 492l33-33"/><path stroke="#1191FF" stroke-linecap="round" stroke-width="3" d="M130 189h138M130 245h159M130 209h101M130 405h187m14 0h-7M130 385h187m14 0h-7M130 365h187m14 0h-7M130 345h187m14 0h-7M130 325h187m14 0h-7M130 305h187m14 0h-7M130 285h187M130 265h179M182 440h57M182 456h36"/><path stroke="#1191FF" stroke-width="3" d="M157 476l1 1-1-1c-3 3-7 3-10 0l-1 1 1-1h0c-2-2-5-3-8-3h0v2-2c-4 1-7-2-8-5h0c0-3-2-6-5-7l-1 1 1-1v-1c-4-1-5-5-3-8v-1-9c-2-3-1-7 3-8v-1c3-1 5-4 5-7h-1 1c1-3 4-6 8-5h0c3 0 6-1 8-3h0c3-3 7-3 10 0h0c2 2 5 3 8 3h0c4-1 7 2 8 5h1-1c0 3 2 6 5 7v1c4 1 5 5 3 8v1 9c2 3 1 7-3 8v1c-3 1-5 4-5 7h0c-1 3-4 6-8 5h0c-3 0-6 1-8 3h0z"/><circle cx="152" cy="447" r="22.5" stroke="#1191FF" stroke-width="3"/><rect width="11" height="17" x="315" y="412" stroke="#1191FF" stroke-width="3" rx="1.5"/><rect width="7" height="295" x="317" y="117" stroke="#1191FF" stroke-width="3" rx="1.5"/><path stroke="#1191FF" stroke-linecap="square" stroke-linejoin="round" stroke-width="3" d="M315 429l5 21 5-21"/><path stroke="#1191FF" stroke-linejoin="round" stroke-width="3" d="M324 290l33-33v-15m-33-13l33-34v15m0 0l-23 24m23-24v18m0 0l-9 10m9-10v14m-33 12l14-15m-14 27l10-10m23-14l-15 15M324 218l23-23v-42m-23 4l23-24v20m-23 52l16-16m2-18l-13 13m-5-12l9-9m14-10l-8 8M324 146l13-13v-16m-20 81l-22-22v-36m42-23l-8 8m8-8V97m0 0V81l-13 14-29 29v16m42-43l-10 10m-10 70l-13-13m-9-24l13 13m9-10l-13-13M317 210l-32-32v12m32 82l-32-32v-22m32 39l-16-15m-16-24l11 11m-11-11v-28m25 38l-18-18m-7-20l10 10"/><path stroke="#1191FF" stroke-width="3" d="M109 461H90c-7 0-12-5-12-12V138c0-7 5-12 12-12h205"/><path stroke="#1191FF" stroke-width="3" d="M332 137v11M109 471H88c-11 0-20-9-20-20V137c0-11 9-20 20-20h213M269 434c9 12 27 15 33 10 7-4-11-20-16-14-4 7 4 36-2 40s-9-11 2-16c12-5 33 6 34-3"/><rect width="69" height="45" x="488" y="132" stroke="#1191FF" stroke-width="3" rx="6.5"/><mask id="j" fill="#fff"><rect width="20" height="36" x="492" y="136" rx="2"/></mask><rect width="20" height="36" x="492" y="136" stroke="#1191FF" stroke-width="6" mask="url(#j)" rx="2"/><mask id="k" fill="#fff"><rect width="17" height="18" x="515" y="154" rx="2"/></mask><rect width="17" height="18" x="515" y="154" stroke="#1191FF" stroke-width="6" mask="url(#k)" rx="2"/><mask id="l" fill="#fff"><rect width="17" height="18" x="535" y="154" rx="2"/></mask><rect width="17" height="18" x="535" y="154" stroke="#1191FF" stroke-width="6" mask="url(#l)" rx="2"/><path stroke="#1191FF" stroke-linecap="round" stroke-width="3" d="M517 138h34M517 144h34M517 150h34"/><rect width="60" height="63" x="406" y="144" stroke="#1191FF" stroke-width="3" rx="6.5"/><mask id="m" fill="#fff"><rect width="13" height="32" x="410" y="148" rx="2"/></mask><rect width="13" height="32" x="410" y="148" stroke="#1191FF" stroke-width="6" mask="url(#m)" rx="2"/><mask id="n" fill="#fff"><rect width="13" height="19" x="410" y="183" rx="2"/></mask><rect width="13" height="19" x="410" y="183" stroke="#1191FF" stroke-width="6" mask="url(#n)" rx="2"/><mask id="o" fill="#fff"><rect width="16" height="16" x="426" y="148" rx="2"/></mask><rect width="16" height="16" x="426" y="148" stroke="#1191FF" stroke-width="6" mask="url(#o)" rx="2"/><mask id="p" fill="#fff"><rect width="16" height="16" x="426" y="167" rx="2"/></mask><rect width="16" height="16" x="426" y="167" stroke="#1191FF" stroke-width="6" mask="url(#p)" rx="2"/><mask id="q" fill="#fff"><rect width="16" height="16" x="426" y="186" rx="2"/></mask><rect width="16" height="16" x="426" y="186" stroke="#1191FF" stroke-width="6" mask="url(#q)" rx="2"/><mask id="r" fill="#fff"><rect width="16" height="16" x="445" y="148" rx="2"/></mask><rect width="16" height="16" x="445" y="148" stroke="#1191FF" stroke-width="6" mask="url(#r)" rx="2"/><mask id="s" fill="#fff"><rect width="16" height="16" x="445" y="167" rx="2"/></mask><rect width="16" height="16" x="445" y="167" stroke="#1191FF" stroke-width="6" mask="url(#s)" rx="2"/><mask id="t" fill="#fff"><rect width="16" height="16" x="445" y="186" rx="2"/></mask><rect width="16" height="16" x="445" y="186" stroke="#1191FF" stroke-width="6" mask="url(#t)" rx="2"/><path stroke="#1191FF" stroke-width="3" d="M523 131v-2c0-4-4-8-8-8h-62c-4 0-8 4-8 8v15m78 32v15m0 34v12m-15 36h-55c-4 0-8-4-8-8v-1m0-41v-16"/><path stroke="#1191FF" stroke-width="3" d="M451 207v16m0 41v0c0 2 1 3 3 3h54m9-30v-12m0-34v-15m0-45v-1c0-2-1-3-3-3h-60c-2 0-3 1-3 3v14"/><rect width="60" height="41" x="419" y="222" stroke="#1191FF" stroke-width="3" rx="6.5"/><mask id="u" fill="#fff"><rect width="17" height="32" x="423" y="226" rx="2"/></mask><rect width="17" height="32" x="423" y="226" stroke="#1191FF" stroke-width="6" mask="url(#u)" rx="2"/><mask id="v" fill="#fff"><rect width="14" height="14" x="460" y="226" rx="2"/></mask><rect width="14" height="14" x="460" y="226" stroke="#1191FF" stroke-width="6" mask="url(#v)" rx="2"/><mask id="w" fill="#fff"><rect width="14" height="14" x="460" y="243" rx="2"/></mask><rect width="14" height="14" x="460" y="243" stroke="#1191FF" stroke-width="6" mask="url(#w)" rx="2"/><mask id="x" fill="#fff"><rect width="14" height="14" x="443" y="226" rx="2"/></mask><rect width="14" height="14" x="443" y="226" stroke="#1191FF" stroke-width="6" mask="url(#x)" rx="2"/><mask id="y" fill="#fff"><rect width="14" height="14" x="443" y="243" rx="2"/></mask><rect width="14" height="14" x="443" y="243" stroke="#1191FF" stroke-width="6" mask="url(#y)" rx="2"/><rect width="76" height="34" x="491" y="191" stroke="#1191FF" stroke-width="3" rx="6.5"/><mask id="z" fill="#fff"><rect width="17" height="25" x="495" y="195" rx="2"/></mask><rect width="17" height="25" x="495" y="195" stroke="#1191FF" stroke-width="6" mask="url(#z)" rx="2"/><mask id="A" fill="#fff"><rect width="17" height="25" x="515" y="195" rx="2"/></mask><rect width="17" height="25" x="515" y="195" stroke="#1191FF" stroke-width="6" mask="url(#A)" rx="2"/><mask id="B" fill="#fff"><rect width="17" height="25" x="535" y="195" rx="2"/></mask><rect width="17" height="25" x="535" y="195" stroke="#1191FF" stroke-width="6" mask="url(#B)" rx="2"/><mask id="C" fill="#fff"><rect width="13" height="25" x="555" y="195" rx="2"/></mask><rect width="13" height="25" x="555" y="195" stroke="#1191FF" stroke-width="6" mask="url(#C)" rx="2"/><rect width="29" height="41" x="508" y="237" stroke="#1191FF" stroke-width="3" rx="6.5"/><mask id="D" fill="#fff"><rect width="20" height="20" x="512" y="253" rx="2"/></mask><rect width="20" height="20" x="512" y="253" stroke="#1191FF" stroke-width="6" mask="url(#D)" rx="2"/><path stroke="#1191FF" stroke-linecap="round" stroke-width="3" d="M514 243h17M514 249h17"/><path stroke="#1191FF" stroke-width="3" d="M306 7l7 7c4 4 10 4 14 0v0c4-4 10-4 14 0v0c4 4 10 4 14 0v0c4-4 10-4 14 0v0c4 4 10 4 14 0v0c4-4 10-4 14 0v0c4 4 10 4 14 0v0c4-4 10-4 14 0v0c4 4 10 4 14 0v0c4-4 10-4 14 0v0c4 4 10 4 14 0v0c4-4 10-4 14 0v0c4 4 10 4 14 0v0c4-4 10-4 14 0v0c4 4 10 4 14 0v0c4-4 10-4 14 0v0c4 4 10 4 14 0v0c4-4 10-4 14 0l1 1c3 3 9 3 12 0v0M306 20l7 7c4 4 10 4 14 0v0c4-4 10-4 14 0v0c4 4 10 4 14 0v0c4-4 10-4 14 0v0c4 4 10 4 14 0v0c4-4 10-4 14 0v0c4 4 10 4 14 0v0c4-4 10-4 14 0v0c4 4 10 4 14 0v0c4-4 10-4 14 0v0c4 4 10 4 14 0v0c4-4 10-4 14 0v0c4 4 10 4 14 0v0c4-4 10-4 14 0v0c4 4 10 4 14 0v0c4-4 10-4 14 0v0c4 4 10 4 14 0v0c4-4 10-4 14 0l1 1c3 3 9 3 12 0v0M306 33l7 7c4 4 10 4 14 0v0c4-4 10-4 14 0v0c4 4 10 4 14 0v0c4-4 10-4 14 0v0c4 4 10 4 14 0v0c4-4 10-4 14 0v0c4 4 10 4 14 0v0c4-4 10-4 14 0v0c4 4 10 4 14 0v0c4-4 10-4 14 0v0c4 4 10 4 14 0v0c4-4 10-4 14 0v0c4 4 10 4 14 0v0c4-4 10-4 14 0v0c4 4 10 4 14 0v0c4-4 10-4 14 0v0c4 4 10 4 14 0v0c4-4 10-4 14 0l1 1c3 3 9 3 12 0v0M306 46l7 7c4 4 10 4 14 0v0c4-4 10-4 14 0v0c4 4 10 4 14 0v0c4-4 10-4 14 0v0c4 4 10 4 14 0v0c4-4 10-4 14 0v0c4 4 10 4 14 0v0c4-4 10-4 14 0v0c4 4 10 4 14 0v0c4-4 10-4 14 0v0c4 4 10 4 14 0v0c4-4 10-4 14 0v0c4 4 10 4 14 0v0c4-4 10-4 14 0v0c4 4 10 4 14 0v0c4-4 10-4 14 0v0c4 4 10 4 14 0v0c4-4 10-4 14 0l1 1c3 3 9 3 12 0v0M306 59l7 7c4 4 10 4 14 0v0c4-4 10-4 14 0v0c4 4 10 4 14 0v0c4-4 10-4 14 0v0c4 4 10 4 14 0v0c4-4 10-4 14 0v0c4 4 10 4 14 0v0c4-4 10-4 14 0v0c4 4 10 4 14 0v0c4-4 10-4 14 0v0c4 4 10 4 14 0v0c4-4 10-4 14 0v0c4 4 10 4 14 0v0c4-4 10-4 14 0v0c4 4 10 4 14 0v0c4-4 10-4 14 0v0c4 4 10 4 14 0v0c4-4 10-4 14 0l1 1c3 3 9 3 12 0v0M306 72l7 7c4 4 10 4 14 0v0c4-4 10-4 14 0v0c4 4 10 4 14 0v0c4-4 10-4 14 0v0c4 4 10 4 14 0v0c4-4 10-4 14 0v0c4 4 10 4 14 0v0c4-4 10-4 14 0v0c4 4 10 4 14 0v0c4-4 10-4 14 0v0c4 4 10 4 14 0v0c4-4 10-4 14 0v0c4 4 10 4 14 0v0c4-4 10-4 14 0v0c4 4 10 4 14 0v0c4-4 10-4 14 0v0c4 4 10 4 14 0v0c4-4 10-4 14 0l1 1c3 3 9 3 12 0v0M306 85l7 7c3 3 7 4 11 2m255-2h-1a8 8 0 01-11 2l-2-2c-4-4-10-4-14 0s-10 4-14 0-10-4-14 0-10 4-14 0-10-4-14 0-10 4-14 0-10-4-14 0-10 4-14 0-10-4-14 0-10 4-14 0-10-4-14 0-10 4-14 0-10-4-14 0-10 4-14 0-10-4-14 0-10 4-14 0l-4-2"/><path stroke="#1191FF" stroke-linecap="round" stroke-width="3" d="M493 395v137M406 395v137"/><circle cx="536.5" cy="422.5" r="21" stroke="#1191FF" stroke-width="3"/><circle cx="536.5" cy="422.5" r="28" stroke="#1191FF" stroke-width="3"/><path stroke="#1191FF" stroke-width="3" d="M535 411v10m0-10v-9m0 9h-6m6 0h6c3 0 5 2 5 5v0c0 3-2 5-5 5h-6m0 14v-14m0 14v8m0-8h-6m6 0h7c4 0 7-4 7-7v0c0-4-3-7-7-7h-7m-16-10h10m-10 24h10m0-24v24m0-24v-8 32m0 0v8"/><circle cx="449.5" cy="422.5" r="21" stroke="#1191FF" stroke-width="3"/><circle cx="449.5" cy="422.5" r="28" stroke="#1191FF" stroke-width="3"/><path stroke="#1191FF" stroke-width="3" d="M456 403l-6 14m-8 18h25m-25 0h-10m10 0l8-18m-2-15l-9 18m-6 15l6-15m-10 5l10-5m28-9l-17 6"/><circle cx="536.5" cy="493.5" r="21" stroke="#1191FF" stroke-width="3"/><circle cx="536.5" cy="493.5" r="28" stroke="#1191FF" stroke-width="3"/><path stroke="#1191FF" stroke-width="3" d="M517 503h8v-19m32 19h-8v-19m-29 23h33m-28-23v-7l2-1 10 13 10-13 2 1v7m-24 0l12 15 12-15"/><circle cx="449.5" cy="493.5" r="21" stroke="#1191FF" stroke-width="3"/><circle cx="449.5" cy="493.5" r="28" stroke="#1191FF" stroke-width="3"/><path stroke="#1191FF" stroke-width="3" d="M459 481h7l1 1-28 25m20-26h-6m6 0l-26 25m26 1h7m-7 0h-6m6 0h-26 6m-6-26h14m0 0v-9m0 9h6m-6 26v8m0-8h-8m8 0h6m0-26v-8m0 34v8"/></g><defs><clipPath id="clip0"><path fill="#fff" d="M0 0h580v535H0z"/></clipPath></defs></svg>