<?xml version="1.0" encoding="UTF-8"?>
<!DOCTYPE svg PUBLIC "-//W3C//DTD SVG 1.1//EN" "http://www.w3.org/Graphics/SVG/1.1/DTD/svg11.dtd">
<svg xmlns="http://www.w3.org/2000/svg" xmlns:xlink="http://www.w3.org/1999/xlink">
  <symbol id="spinner" viewBox="0 0 369 337">
    <path fill-rule="evenodd" clip-rule="evenodd"
      d="M154.663 6.91712C158.444 -4.01999 174.617 -1.30348 174.617 10.2687V207.603C174.617 211.318 172.609 214.742 169.368 216.556L84.7957 263.876C76.5692 268.479 67.0114 260.481 70.0912 251.572L154.663 6.91712ZM170.617 10.2687C170.617 3.20876 160.75 1.55147 158.444 8.22396L73.8717 252.879C71.9927 258.314 77.8238 263.193 82.8426 260.385L167.415 213.065C169.392 211.958 170.617 209.869 170.617 207.603V10.2687ZM180.807 226.736C178.904 225.658 176.576 225.652 174.667 226.72L7.24219 320.398C1.05675 323.859 4.4832 333.316 11.45 332.011L261.591 285.172C267.327 284.098 268.601 276.45 263.523 273.575L180.807 226.736ZM172.714 223.229C175.843 221.479 179.658 221.488 182.778 223.255L265.494 270.094C273.818 274.808 271.73 287.343 262.327 289.104L12.1862 335.943C0.766737 338.081 -4.8498 322.58 5.28905 316.907L172.714 223.229ZM184.877 108.952C184.877 103.155 192.078 100.474 195.87 104.859L363.021 298.19C367.615 303.504 361.315 311.191 355.202 307.73L290.299 270.977L188.051 213.078C186.089 211.967 184.877 209.886 184.877 207.632V108.952ZM198.895 102.243C192.681 95.0546 180.877 99.4498 180.877 108.952V207.632C180.877 211.327 182.865 214.737 186.08 216.558L288.328 274.458L353.231 311.21C363.251 316.884 373.577 304.285 366.047 295.574L198.895 102.243Z"
      fill="currentColor" />
  </symbol>
  <symbol id="currs" viewBox="0 0 80 80" fill="none">
    <path
      d="M68.4472 16.6565L72.1718 13.8631V10.4489L69.6887 8.27619H66.8953M68.4472 16.6565H63.481M68.4472 16.6565H70.9302L73.7237 19.1396V22.5538L70.9302 25.3473H67.2056M63.481 8.27619V16.6565M63.481 8.27619H64.1018M63.481 8.27619H60.3772M63.481 16.6565V25.3473M63.481 25.3473H64.1018M63.481 25.3473H60.3772M64.1018 8.27619V3.03053M64.1018 8.27619H66.8953M66.8953 8.27619V3.1231M67.2056 25.3473V30.7665M67.2056 25.3473H64.1018M64.1018 25.3473V30.904M60.3772 8.27619H54.0982M60.3772 8.27619V25.3473M60.3772 8.27619V3.79469M53.8577 25.3473H60.3772M60.3772 25.3473V30.1398M3.56596 8.89716H13.4155M26.0562 25.3475H16.8322M13.4155 8.89716V4.5518M13.4155 8.89716H17.2378M13.4155 25.3475V30.0032M13.4155 25.3475H9.06992M13.4155 25.3475H16.8322M9.06992 25.3475L25.5205 10.1387L24.8997 8.89716H21.0602M9.06992 25.3475H4.72473M21.0602 8.89716H17.2378M21.0602 8.89716L4 24.5M17.2378 8.89716V4.5518M16.8322 25.3475V30.0032M28.1397 67.8375H22.4162V56.974M1.7948 67.8375H7.82817V56.974M7.82817 56.974V52.9391L8.75932 52.3183L14.967 60.3883L21.485 52.3183L22.4162 52.9391V56.974M7.82817 56.974L14.967 66.2855L22.4162 56.974M3.7925 71.5621H26.142M51.0655 63.1816C51.0655 70.8955 57.3188 77.1489 65.0327 77.1489C72.7466 77.1489 79 70.8955 79 63.1816C79 59.6847 77.7149 56.488 75.5913 54.0379M51.0655 63.1816C51.0655 55.4677 57.3188 49.2144 65.0327 49.2144C69.2498 49.2144 73.0303 51.0832 75.5913 54.0379M51.0655 63.1816L55.273 61.613L59.4804 60.0444M60.0869 72H76H54.9906H60.0869ZM60.0869 72L65.2221 59.6944L66.141 57.5612M54.5 72L58.6914 61.9286L59.4804 60.0444M69.0681 50.7661L66.141 57.5612M64 49.252L59.4804 60.0444M33.9943 45.9925L25.4957 54.491M33.9943 33.9946L24.9958 24.9962M45.9922 33.9946L54.9906 24.9962M45.9922 45.9925L54.9906 54.9909M75.5913 54.0379L66.141 57.5612M79 16.9672C79 24.6811 72.7466 30.9345 65.0327 30.9345C57.3188 30.9345 51.0655 24.6811 51.0655 16.9672C51.0655 9.25335 57.3188 3 65.0327 3C72.7466 3 79 9.25335 79 16.9672ZM28.9345 16.9672C28.9345 24.6811 22.6811 30.9345 14.9672 30.9345C7.25335 30.9345 1 24.6811 1 16.9672C1 9.25335 7.25335 3 14.9672 3C22.6811 3 28.9345 9.25335 28.9345 16.9672ZM28.9345 63.1816C28.9345 70.8955 22.6811 77.1489 14.9672 77.1489C7.25335 77.1489 1 70.8955 1 63.1816C1 55.4677 7.25335 49.2144 14.9672 49.2144C22.6811 49.2144 28.9345 55.4677 28.9345 63.1816ZM53.9636 40.0725C53.9636 47.7854 47.7111 54.0379 39.9982 54.0379C32.2853 54.0379 26.0328 47.7854 26.0328 40.0725C26.0328 32.3596 32.2853 26.1071 39.9982 26.1071C47.7111 26.1071 53.9636 32.3596 53.9636 40.0725ZM48.9916 39.9936C48.9916 44.9633 44.9629 48.992 39.9932 48.992C35.0235 48.992 30.9948 44.9633 30.9948 39.9936C30.9948 35.0239 35.0235 30.9951 39.9932 30.9951C44.9629 30.9951 48.9916 35.0239 48.9916 39.9936ZM44.9923 39.9936C44.9923 42.7545 42.7542 44.9927 39.9932 44.9927C37.2323 44.9927 34.9941 42.7545 34.9941 39.9936C34.9941 37.2326 37.2323 34.9944 39.9932 34.9944C42.7542 34.9944 44.9923 37.2326 44.9923 39.9936Z"
      stroke="currentColor" stroke-width="2" />
  </symbol>
  <symbol id="cloud" viewBox="0 0 80 80" fill="none" stroke="currentColor" stroke-width="3">
    <path
      d="M13.6923 40C7.23485 40 2 35.5228 2 30C2 24.4772 7.23485 20 13.6923 20L13.7647 20.0002C14.3399 16.054 18.2761 13 23.0462 13C23.962 13 24.8472 13.1125 25.6837 13.3225C27.1446 6.87134 33.784 2 41.7538 2C49.352 2 55.7411 6.42773 57.5863 12.4307C58.8798 12.1494 60.2349 12 61.6308 12C70.6713 12 78 18.2681 78 26C78 33.3958 71.2948 39.4521 62.8 39.9648V40H13.6923Z"
      stroke-linejoin="round" />
    <circle cx="9.5" cy="54.5" r="5" />
    <path
      d="M31.5 67.5C31.5 70.2614 29.2614 72.5 26.5 72.5C23.7386 72.5 21.5 70.2614 21.5 67.5C21.5 64.7386 23.7386 62.5 26.5 62.5C29.2614 62.5 31.5 64.7386 31.5 67.5Z" />
    <circle cx="44.5" cy="50.5" r="5" />
    <circle cx="72.5" cy="61.5" r="5" />
    <circle cx="53.5" cy="72.5" r="5" />
    <path
      d="M26.5 61.5V39.5M56.5 39.5V45.5C56.5 48.2614 54.2614 50.5 51.5 50.5H49M61.5 39.5V56.5C61.5 59.2614 63.7386 61.5 66.5 61.5H67.5M32.5 39.5V54.5C32.5 56.1569 33.8431 57.5 35.5 57.5V57.5C37.1569 57.5 38.5 58.8431 38.5 60.5V67.5C38.5 70.2614 40.7386 72.5 43.5 72.5H47.5M20.5 39.5V49.5C20.5 52.2614 18.2614 54.5 15.5 54.5H15" />
  </symbol>
  <symbol id="phone" viewBox="0 0 80 80" fill="none" stroke="currentColor" stroke-width="3">
    <path
      d="M21.5 14.8312V6.5C21.5 4.29086 23.2909 2.5 25.5 2.5H54.5C56.7091 2.5 58.5 4.29086 58.5 6.5V9.5M21.5 41.4805V47.4026M21.5 66.1558V73.5C21.5 75.7091 23.2909 77.5 25.5 77.5H54.5C56.7091 77.5 58.5 75.7091 58.5 73.5V71M58.5 48.5V55" />
    <rect x="1.5" y="14.5" width="39" height="27" rx="3.5" />
    <rect x="47.5" y="9.5" width="31" height="39" rx="3.5" />
    <rect x="47.5" y="54.5" width="24" height="16" rx="3.5" />
    <rect x="9.5" y="47.5" width="29" height="19" rx="3.5" />
    <path
      d="M20.5 35V21C20.5 20.7239 20.7239 20.5 21 20.5H34C34.2761 20.5 34.5 20.7239 34.5 21V35C34.5 35.2761 34.2761 35.5 34 35.5H21C20.7239 35.5 20.5 35.2761 20.5 35Z" />
    <path
      d="M9.5 60V54C9.5 53.7239 9.72386 53.5 10 53.5H15C15.2761 53.5 15.5 53.7239 15.5 54V60C15.5 60.2761 15.2761 60.5 15 60.5H10C9.72386 60.5 9.5 60.2761 9.5 60Z" />
    <path
      d="M21.5 60V54C21.5 53.7239 21.7239 53.5 22 53.5H32C32.2761 53.5 32.5 53.7239 32.5 54V60C32.5 60.2761 32.2761 60.5 32 60.5H22C21.7239 60.5 21.5 60.2761 21.5 60Z" />
    <path
      d="M53.5 64V55C53.5 54.7239 53.7239 54.5 54 54.5H65C65.2761 54.5 65.5 54.7239 65.5 55V64C65.5 64.2761 65.2761 64.5 65 64.5H54C53.7239 64.5 53.5 64.2761 53.5 64Z" />
    <path
      d="M53.5 42V34C53.5 33.7239 53.7239 33.5 54 33.5H59C59.2761 33.5 59.5 33.7239 59.5 34V42C59.5 42.2761 59.2761 42.5 59 42.5H54C53.7239 42.5 53.5 42.2761 53.5 42Z" />
    <path
      d="M65.5 42V34C65.5 33.7239 65.7239 33.5 66 33.5H72C72.2761 33.5 72.5 33.7239 72.5 34V42C72.5 42.2761 72.2761 42.5 72 42.5H66C65.7239 42.5 65.5 42.2761 65.5 42Z" />
    <path d="M52 27.5H74M52 15.5H74M52 21.5H74" />
    <path d="M6 34.5H16M6 22.5H16M6 28.5H16" />
  </symbol>
  <symbol id="m" viewBox="0 0 24 24">
    <path fill-rule="evenodd" clip-rule="evenodd"
      d="M3 3H21V21H3V3ZM7.143 8.62485C7.25384 8.72476 7.31045 8.87148 7.29543 9.01992V14.3645C7.32832 14.5573 7.26754 14.7543 7.13171 14.895L5.86151 16.4358V16.639H9.46324V16.4358L8.19304 14.895C8.05621 14.7545 7.99167 14.5589 8.01803 14.3645V9.74231L11.1794 16.639H11.5464L14.2618 9.74231V15.2393C14.2618 15.3861 14.2618 15.4143 14.1658 15.5102L13.1892 16.4584V16.6615H17.9312V16.4584L16.9885 15.5328C16.9052 15.4694 16.864 15.3651 16.8812 15.2619V8.46119C16.864 8.35799 16.9052 8.25372 16.9885 8.19029L17.9538 7.26471V7.06154H14.6118L12.2295 13.0044L9.51969 7.06154H6.01394V7.26471L7.143 8.62485Z" />
  </symbol>
  <symbol id="tw" viewBox="0 0 24 24">
    <path
      d="M22.4594 6.01238C21.6898 6.35373 20.8626 6.58442 19.9946 6.68815C20.8805 6.15701 21.5611 5.31598 21.8815 4.31378C21.0522 4.80564 20.1338 5.16278 19.1562 5.3552C18.3734 4.52112 17.2581 4 16.0237 4C13.6536 4 11.7319 5.92147 11.7319 8.29155C11.7319 8.6279 11.7699 8.95546 11.8431 9.2696C8.27633 9.0906 5.114 7.38203 2.99734 4.78551C2.6279 5.41935 2.41626 6.15656 2.41626 6.94309C2.41626 8.43204 3.17389 9.74563 4.32548 10.5153C3.62204 10.4929 2.96021 10.2999 2.38164 9.97846C2.38123 9.99639 2.38123 10.0143 2.38123 10.0324C2.38123 12.1118 3.86057 13.8463 5.82383 14.2406C5.46373 14.3387 5.08458 14.3912 4.69318 14.3912C4.41665 14.3912 4.1478 14.3642 3.88571 14.3142C4.43186 16.0191 6.01677 17.26 7.89478 17.2945C6.426 18.4457 4.57552 19.1318 2.56478 19.1318C2.21837 19.1318 1.87676 19.1114 1.54102 19.0717C3.44028 20.2894 5.69615 21 8.11974 21C16.0136 21 20.3304 14.4605 20.3304 8.78918C20.3304 8.60314 20.3262 8.41805 20.3179 8.23395C21.1565 7.62886 21.8841 6.87302 22.4594 6.01238Z" />
  </symbol>
  <symbol id="in" viewBox="0 0 24 24">
    <path
      d="M21 21H17V14.25C17 13.1914 15.8121 12.3058 14.7535 12.3058C13.6949 12.3058 13 13.1914 13 14.25V21H9.00001V9H13V11C13.6623 9.92857 15.3564 9.23727 16.525 9.23727C18.9965 9.23727 21 11.2786 21 13.75V21ZM7 21H3V9H7V21ZM5.00001 3C6.10458 3 7.00001 3.89543 7.00001 5C7.00001 6.10457 6.10458 7 5.00001 7C3.89544 7 3.00001 6.10457 3.00001 5C3.00001 3.89543 3.89544 3 5.00001 3Z" />
  </symbol>
</svg>