<?xml version="1.0" encoding="UTF-8"?>
<!DOCTYPE svg PUBLIC "-//W3C//DTD SVG 1.1//EN" "http://www.w3.org/Graphics/SVG/1.1/DTD/svg11.dtd">
<svg xmlns="http://www.w3.org/2000/svg" xmlns:xlink="http://www.w3.org/1999/xlink">
  <symbol id="spinner" viewBox="0 0 369 337">
    <path fill-rule="evenodd" clip-rule="evenodd"
      d="M154.663 6.91712C158.444 -4.01999 174.617 -1.30348 174.617 10.2687V207.603C174.617 211.318 172.609 214.742 169.368 216.556L84.7957 263.876C76.5692 268.479 67.0114 260.481 70.0912 251.572L154.663 6.91712ZM170.617 10.2687C170.617 3.20876 160.75 1.55147 158.444 8.22396L73.8717 252.879C71.9927 258.314 77.8238 263.193 82.8426 260.385L167.415 213.065C169.392 211.958 170.617 209.869 170.617 207.603V10.2687ZM180.807 226.736C178.904 225.658 176.576 225.652 174.667 226.72L7.24219 320.398C1.05675 323.859 4.4832 333.316 11.45 332.011L261.591 285.172C267.327 284.098 268.601 276.45 263.523 273.575L180.807 226.736ZM172.714 223.229C175.843 221.479 179.658 221.488 182.778 223.255L265.494 270.094C273.818 274.808 271.73 287.343 262.327 289.104L12.1862 335.943C0.766737 338.081 -4.8498 322.58 5.28905 316.907L172.714 223.229ZM184.877 108.952C184.877 103.155 192.078 100.474 195.87 104.859L363.021 298.19C367.615 303.504 361.315 311.191 355.202 307.73L290.299 270.977L188.051 213.078C186.089 211.967 184.877 209.886 184.877 207.632V108.952ZM198.895 102.243C192.681 95.0546 180.877 99.4498 180.877 108.952V207.632C180.877 211.327 182.865 214.737 186.08 216.558L288.328 274.458L353.231 311.21C363.251 316.884 373.577 304.285 366.047 295.574L198.895 102.243Z"
      fill="currentColor" />
  </symbol>
  <symbol id="currs" viewBox="0 0 80 80" fill="none">
    <path
      d="M68.4472 16.6565L72.1718 13.8631V10.4489L69.6887 8.27619H66.8953M68.4472 16.6565H63.481M68.4472 16.6565H70.9302L73.7237 19.1396V22.5538L70.9302 25.3473H67.2056M63.481 8.27619V16.6565M63.481 8.27619H64.1018M63.481 8.27619H60.3772M63.481 16.6565V25.3473M63.481 25.3473H64.1018M63.481 25.3473H60.3772M64.1018 8.27619V3.03053M64.1018 8.27619H66.8953M66.8953 8.27619V3.1231M67.2056 25.3473V30.7665M67.2056 25.3473H64.1018M64.1018 25.3473V30.904M60.3772 8.27619H54.0982M60.3772 8.27619V25.3473M60.3772 8.27619V3.79469M53.8577 25.3473H60.3772M60.3772 25.3473V30.1398M3.56596 8.89716H13.4155M26.0562 25.3475H16.8322M13.4155 8.89716V4.5518M13.4155 8.89716H17.2378M13.4155 25.3475V30.0032M13.4155 25.3475H9.06992M13.4155 25.3475H16.8322M9.06992 25.3475L25.5205 10.1387L24.8997 8.89716H21.0602M9.06992 25.3475H4.72473M21.0602 8.89716H17.2378M21.0602 8.89716L4 24.5M17.2378 8.89716V4.5518M16.8322 25.3475V30.0032M28.1397 67.8375H22.4162V56.974M1.7948 67.8375H7.82817V56.974M7.82817 56.974V52.9391L8.75932 52.3183L14.967 60.3883L21.485 52.3183L22.4162 52.9391V56.974M7.82817 56.974L14.967 66.2855L22.4162 56.974M3.7925 71.5621H26.142M51.0655 63.1816C51.0655 70.8955 57.3188 77.1489 65.0327 77.1489C72.7466 77.1489 79 70.8955 79 63.1816C79 59.6847 77.7149 56.488 75.5913 54.0379M51.0655 63.1816C51.0655 55.4677 57.3188 49.2144 65.0327 49.2144C69.2498 49.2144 73.0303 51.0832 75.5913 54.0379M51.0655 63.1816L55.273 61.613L59.4804 60.0444M60.0869 72H76H54.9906H60.0869ZM60.0869 72L65.2221 59.6944L66.141 57.5612M54.5 72L58.6914 61.9286L59.4804 60.0444M69.0681 50.7661L66.141 57.5612M64 49.252L59.4804 60.0444M33.9943 45.9925L25.4957 54.491M33.9943 33.9946L24.9958 24.9962M45.9922 33.9946L54.9906 24.9962M45.9922 45.9925L54.9906 54.9909M75.5913 54.0379L66.141 57.5612M79 16.9672C79 24.6811 72.7466 30.9345 65.0327 30.9345C57.3188 30.9345 51.0655 24.6811 51.0655 16.9672C51.0655 9.25335 57.3188 3 65.0327 3C72.7466 3 79 9.25335 79 16.9672ZM28.9345 16.9672C28.9345 24.6811 22.6811 30.9345 14.9672 30.9345C7.25335 30.9345 1 24.6811 1 16.9672C1 9.25335 7.25335 3 14.9672 3C22.6811 3 28.9345 9.25335 28.9345 16.9672ZM28.9345 63.1816C28.9345 70.8955 22.6811 77.1489 14.9672 77.1489C7.25335 77.1489 1 70.8955 1 63.1816C1 55.4677 7.25335 49.2144 14.9672 49.2144C22.6811 49.2144 28.9345 55.4677 28.9345 63.1816ZM53.9636 40.0725C53.9636 47.7854 47.7111 54.0379 39.9982 54.0379C32.2853 54.0379 26.0328 47.7854 26.0328 40.0725C26.0328 32.3596 32.2853 26.1071 39.9982 26.1071C47.7111 26.1071 53.9636 32.3596 53.9636 40.0725ZM48.9916 39.9936C48.9916 44.9633 44.9629 48.992 39.9932 48.992C35.0235 48.992 30.9948 44.9633 30.9948 39.9936C30.9948 35.0239 35.0235 30.9951 39.9932 30.9951C44.9629 30.9951 48.9916 35.0239 48.9916 39.9936ZM44.9923 39.9936C44.9923 42.7545 42.7542 44.9927 39.9932 44.9927C37.2323 44.9927 34.9941 42.7545 34.9941 39.9936C34.9941 37.2326 37.2323 34.9944 39.9932 34.9944C42.7542 34.9944 44.9923 37.2326 44.9923 39.9936Z"
      stroke="currentColor" stroke-width="2" />
  </symbol>
  <symbol id="cloud" viewBox="0 0 80 80" fill="none" stroke="currentColor" stroke-width="3">
    <path
      d="M13.6923 40C7.23485 40 2 35.5228 2 30C2 24.4772 7.23485 20 13.6923 20L13.7647 20.0002C14.3399 16.054 18.2761 13 23.0462 13C23.962 13 24.8472 13.1125 25.6837 13.3225C27.1446 6.87134 33.784 2 41.7538 2C49.352 2 55.7411 6.42773 57.5863 12.4307C58.8798 12.1494 60.2349 12 61.6308 12C70.6713 12 78 18.2681 78 26C78 33.3958 71.2948 39.4521 62.8 39.9648V40H13.6923Z"
      stroke-linejoin="round" />
    <circle cx="9.5" cy="54.5" r="5" />
    <path
      d="M31.5 67.5C31.5 70.2614 29.2614 72.5 26.5 72.5C23.7386 72.5 21.5 70.2614 21.5 67.5C21.5 64.7386 23.7386 62.5 26.5 62.5C29.2614 62.5 31.5 64.7386 31.5 67.5Z" />
    <circle cx="44.5" cy="50.5" r="5" />
    <circle cx="72.5" cy="61.5" r="5" />
    <circle cx="53.5" cy="72.5" r="5" />
    <path
      d="M26.5 61.5V39.5M56.5 39.5V45.5C56.5 48.2614 54.2614 50.5 51.5 50.5H49M61.5 39.5V56.5C61.5 59.2614 63.7386 61.5 66.5 61.5H67.5M32.5 39.5V54.5C32.5 56.1569 33.8431 57.5 35.5 57.5V57.5C37.1569 57.5 38.5 58.8431 38.5 60.5V67.5C38.5 70.2614 40.7386 72.5 43.5 72.5H47.5M20.5 39.5V49.5C20.5 52.2614 18.2614 54.5 15.5 54.5H15" />
  </symbol>
  <symbol id="phone" viewBox="0 0 80 80" fill="none" stroke="currentColor" stroke-width="3">
    <path
      d="M21.5 14.8312V6.5C21.5 4.29086 23.2909 2.5 25.5 2.5H54.5C56.7091 2.5 58.5 4.29086 58.5 6.5V9.5M21.5 41.4805V47.4026M21.5 66.1558V73.5C21.5 75.7091 23.2909 77.5 25.5 77.5H54.5C56.7091 77.5 58.5 75.7091 58.5 73.5V71M58.5 48.5V55" />
    <rect x="1.5" y="14.5" width="39" height="27" rx="3.5" />
    <rect x="47.5" y="9.5" width="31" height="39" rx="3.5" />
    <rect x="47.5" y="54.5" width="24" height="16" rx="3.5" />
    <rect x="9.5" y="47.5" width="29" height="19" rx="3.5" />
    <path
      d="M20.5 35V21C20.5 20.7239 20.7239 20.5 21 20.5H34C34.2761 20.5 34.5 20.7239 34.5 21V35C34.5 35.2761 34.2761 35.5 34 35.5H21C20.7239 35.5 20.5 35.2761 20.5 35Z" />
    <path
      d="M9.5 60V54C9.5 53.7239 9.72386 53.5 10 53.5H15C15.2761 53.5 15.5 53.7239 15.5 54V60C15.5 60.2761 15.2761 60.5 15 60.5H10C9.72386 60.5 9.5 60.2761 9.5 60Z" />
    <path
      d="M21.5 60V54C21.5 53.7239 21.7239 53.5 22 53.5H32C32.2761 53.5 32.5 53.7239 32.5 54V60C32.5 60.2761 32.2761 60.5 32 60.5H22C21.7239 60.5 21.5 60.2761 21.5 60Z" />
    <path
      d="M53.5 64V55C53.5 54.7239 53.7239 54.5 54 54.5H65C65.2761 54.5 65.5 54.7239 65.5 55V64C65.5 64.2761 65.2761 64.5 65 64.5H54C53.7239 64.5 53.5 64.2761 53.5 64Z" />
    <path
      d="M53.5 42V34C53.5 33.7239 53.7239 33.5 54 33.5H59C59.2761 33.5 59.5 33.7239 59.5 34V42C59.5 42.2761 59.2761 42.5 59 42.5H54C53.7239 42.5 53.5 42.2761 53.5 42Z" />
    <path
      d="M65.5 42V34C65.5 33.7239 65.7239 33.5 66 33.5H72C72.2761 33.5 72.5 33.7239 72.5 34V42C72.5 42.2761 72.2761 42.5 72 42.5H66C65.7239 42.5 65.5 42.2761 65.5 42Z" />
    <path d="M52 27.5H74M52 15.5H74M52 21.5H74" />
    <path d="M6 34.5H16M6 22.5H16M6 28.5H16" />
  </symbol>
  <symbol id="m" viewBox="0 0 24 24">
    <path fill-rule="evenodd" clip-rule="evenodd"
      d="M3 3H21V21H3V3ZM7.143 8.62485C7.25384 8.72476 7.31045 8.87148 7.29543 9.01992V14.3645C7.32832 14.5573 7.26754 14.7543 7.13171 14.895L5.86151 16.4358V16.639H9.46324V16.4358L8.19304 14.895C8.05621 14.7545 7.99167 14.5589 8.01803 14.3645V9.74231L11.1794 16.639H11.5464L14.2618 9.74231V15.2393C14.2618 15.3861 14.2618 15.4143 14.1658 15.5102L13.1892 16.4584V16.6615H17.9312V16.4584L16.9885 15.5328C16.9052 15.4694 16.864 15.3651 16.8812 15.2619V8.46119C16.864 8.35799 16.9052 8.25372 16.9885 8.19029L17.9538 7.26471V7.06154H14.6118L12.2295 13.0044L9.51969 7.06154H6.01394V7.26471L7.143 8.62485Z" />
  </symbol>
  <symbol id="tw" viewBox="0 0 24 24">
    <path
      d="M22.4594 6.01238C21.6898 6.35373 20.8626 6.58442 19.9946 6.68815C20.8805 6.15701 21.5611 5.31598 21.8815 4.31378C21.0522 4.80564 20.1338 5.16278 19.1562 5.3552C18.3734 4.52112 17.2581 4 16.0237 4C13.6536 4 11.7319 5.92147 11.7319 8.29155C11.7319 8.6279 11.7699 8.95546 11.8431 9.2696C8.27633 9.0906 5.114 7.38203 2.99734 4.78551C2.6279 5.41935 2.41626 6.15656 2.41626 6.94309C2.41626 8.43204 3.17389 9.74563 4.32548 10.5153C3.62204 10.4929 2.96021 10.2999 2.38164 9.97846C2.38123 9.99639 2.38123 10.0143 2.38123 10.0324C2.38123 12.1118 3.86057 13.8463 5.82383 14.2406C5.46373 14.3387 5.08458 14.3912 4.69318 14.3912C4.41665 14.3912 4.1478 14.3642 3.88571 14.3142C4.43186 16.0191 6.01677 17.26 7.89478 17.2945C6.426 18.4457 4.57552 19.1318 2.56478 19.1318C2.21837 19.1318 1.87676 19.1114 1.54102 19.0717C3.44028 20.2894 5.69615 21 8.11974 21C16.0136 21 20.3304 14.4605 20.3304 8.78918C20.3304 8.60314 20.3262 8.41805 20.3179 8.23395C21.1565 7.62886 21.8841 6.87302 22.4594 6.01238Z" />
  </symbol>
  <symbol id="in" viewBox="0 0 24 24">
    <path
      d="M21 21H17V14.25C17 13.1914 15.8121 12.3058 14.7535 12.3058C13.6949 12.3058 13 13.1914 13 14.25V21H9.00001V9H13V11C13.6623 9.92857 15.3564 9.23727 16.525 9.23727C18.9965 9.23727 21 11.2786 21 13.75V21ZM7 21H3V9H7V21ZM5.00001 3C6.10458 3 7.00001 3.89543 7.00001 5C7.00001 6.10457 6.10458 7 5.00001 7C3.89544 7 3.00001 6.10457 3.00001 5C3.00001 3.89543 3.89544 3 5.00001 3Z" />
  </symbol>
  <symbol id="interoperability" viewBox="0 0 128 128" fill="none" stroke="currentColor" stroke-width="3">
    <path
      d="M89.5 45.2054V62.8695M56.5273 43.582V62.6406M56.5273 43.582L44.5974 36.0166M56.5273 43.582L71.4023 34.6731M56.5273 62.6406L72.5521 72.5M56.5273 62.6406L39.5 72.5M39.5 72.5L23.5 63.1039M39.5 72.5V79.8398M23.5 63.1039V55.434M23.5 63.1039L7.5 72.5V83.3262M89.5 62.8695L106 72.5L120.605 62.6406V50.7871M89.5 62.8695L72.5521 72.5M72.5521 72.5V91.5586M72.5521 91.5586L56.5273 100M72.5521 91.5586L84 97.5" />
    <circle cx="89.0664" cy="25.918" r="19.418" />
    <path
      d="M70.9375 34.2852H78.375V16.6211M107.66 34.2852H100.223V16.6211M73.7266 38.4688H104.406M78.375 16.6211V10.5781L79.7695 9.64844L89.0664 21.7344L98.8281 9.64844L100.223 10.5781V16.6211M78.375 16.6211L89.0664 30.5664L100.223 16.6211" />
    <circle cx="102.082" cy="103.082" r="19.418" />
    <path
      d="M108.125 84.4883L102.365 97.8597M95.1094 114.703H118.352M95.1094 114.703H85.8125M95.1094 114.703L102.365 97.8597M100.223 83.5586L92.5843 101.206M86.7422 114.703L92.5843 101.206M82.5586 104.941L92.5843 101.206M118.352 92.3906L102.365 97.8597" />
    <circle cx="37.0039" cy="99.3633" r="19.418" />
    <path
      d="M35.6094 88.207V97.9688M35.6094 88.207V79.8398M35.6094 88.207H30.0312M35.6094 88.207H40.9551C43.6507 88.207 45.8359 90.3923 45.8359 93.0879V93.0879C45.8359 95.7835 43.6507 97.9688 40.9551 97.9688H35.6094M35.6094 110.52V97.9688M35.6094 110.52V118.422M35.6094 110.52H30.0312M35.6094 110.52H42.3496C45.8154 110.52 48.625 107.71 48.625 104.244V104.244C48.625 100.778 45.8154 97.9688 42.3496 97.9688H35.6094M20.2695 88.207H30.0312M20.7344 110.52H30.0312M30.0312 88.207V110.52M30.0312 88.207V81.2344V110.52M30.0312 110.52V117.957" />
    <circle cx="24.918" cy="36.1445" r="19.418" />
    <path
      d="M34.5079 24.0586H40.2578M34.5079 24.0586H28.7834M34.5079 24.0586L9.57812 47.3008M34.5079 48.6953H40.2578M34.5079 48.6953C32.1083 48.6953 30.0892 48.6953 28.1759 48.6953M34.5079 48.6953H10.0432C11.7856 48.6953 13.2496 48.6953 15.6211 48.6953M9.57812 24.0586H17.6453H23.0589M23.0589 24.0586V16.1562M23.0589 24.0586H28.7834M23.0589 48.6953V55.668M23.0589 48.6953C22.3239 48.6953 18.2965 48.6953 15.6211 48.6953M23.0589 48.6953C24.8126 48.6953 26.4512 48.6953 28.1759 48.6953M15.6211 48.6953L41.1875 25.4531M28.7834 24.0586V16.6211M28.1759 48.6953V55.668" />
    <circle cx="7.5" cy="89.5" r="6" />
    <circle cx="120.5" cy="45.5" r="6" />
  </symbol>
  <symbol id="economy" viewBox="0 0 128 128" fill="none" stroke="currentColor" stroke-width="3">
    <path
      d="M71.25 100.5L65.6234 9.98537C65.5541 8.8695 64.6288 8 63.5108 8V8C62.384 8 61.4547 8.8828 61.3969 10.0081L56.75 100.5M71.25 100.5H64H56.75M71.25 100.5H75.5C77.1569 100.5 78.5 101.843 78.5 103.5V109.5M78.5 109.5H74.875M78.5 109.5H81.5M49.5 109.5V103.5C49.5 101.843 50.8431 100.5 52.5 100.5H56.75M49.5 109.5H53.125M49.5 109.5H46.5M60.375 109.5H56.75H53.125M60.375 109.5H64H67.625M60.375 109.5V125.5M60.375 125.5H67.625M60.375 125.5H53.125M67.625 109.5H71.25H74.875M67.625 109.5V125.5M67.625 125.5H74.875M74.875 109.5V125.5M74.875 125.5H81.5M53.125 109.5V125.5M53.125 125.5H46.5M81.5 109.5H85C86.6569 109.5 88 110.843 88 112.5V122.5C88 124.157 86.6569 125.5 85 125.5H81.5M81.5 109.5V125.5M46.5 109.5H43C41.3431 109.5 40 110.843 40 112.5V122.5C40 124.157 41.3431 125.5 43 125.5H46.5M46.5 109.5V125.5" />
    <path
      d="M3 89.2156C3.78182 92.2603 13.9212 99.5 24.5 99.5C35.0788 99.5 45.2182 92.2603 46 89.2156M3 89.2156L23.5 28H24.5H25.5L46 89.2156M3 89.2156V96.2156C3.78182 99.2603 13.9212 106.5 24.5 106.5C35.0788 106.5 45.2182 99.2603 46 96.2156V89.2156" />
    <path
      d="M82 76.2156C82.7818 79.2603 92.9212 86.5 103.5 86.5C114.079 86.5 124.218 79.2603 125 76.2156M82 76.2156L102.5 15H103.5H104.5L125 76.2156M82 76.2156V83.2156C82.7818 86.2603 92.9212 93.5 103.5 93.5C114.079 93.5 124.218 86.2603 125 83.2156V76.2156" />
    <path
      d="M23.3337 60.4438C21.6753 64.1863 17.2136 68.6757 13.3078 66.906C12.5691 66.5713 11.5567 66.9148 11.4504 67.7188C8.51721 89.9005 20.7674 92.4325 23.4784 96.7C23.5932 96.8807 23.7857 97 23.9998 97C24.2139 97 24.4064 96.8807 24.5212 96.7C27.2323 92.4325 39.4828 89.9005 36.5496 67.7188C36.4433 66.9148 35.4309 66.5713 34.6922 66.906C30.7863 68.6757 26.3244 64.1863 24.666 60.4438C24.5484 60.1785 24.29 60 23.9998 60C23.7096 60 23.4512 60.1785 23.3337 60.4438Z" />
    <circle cx="103.5" cy="68.5" r="15" />
    <path
      d="M102.401 59.7V67.4M102.401 59.7V53.1M102.401 59.7H98.0008M102.401 59.7H106.617C108.744 59.7 110.467 61.4237 110.467 63.55V63.55C110.467 65.6763 108.744 67.4 106.617 67.4H102.401M102.401 77.3V67.4M102.401 77.3V83.5333M102.401 77.3H98.0008M102.401 77.3H107.717C110.451 77.3 112.667 75.0838 112.667 72.35V72.35C112.667 69.6162 110.451 67.4 107.717 67.4H102.401M90.3008 59.7H98.0008M90.6674 77.3H98.0008M98.0008 59.7V77.3M98.0008 59.7V54.2V77.3M98.0008 77.3V83.1666" />
    <path
      d="M27.3636 80.3892C27.3636 80.0897 27.5027 79.8105 27.7131 79.5974C28.5091 78.7913 29 77.687 29 76.4688C29 74.0008 26.9853 72 24.5 72C22.0147 72 20 74.0008 20 76.4688C20 77.687 20.4909 78.7913 21.2869 79.5974C21.4973 79.8105 21.6364 80.0897 21.6364 80.3892V84C21.6364 84.5523 22.0841 85 22.6364 85H26.3636C26.9159 85 27.3636 84.5523 27.3636 84V80.3892Z" />
    <path
      d="M60.705 25.5834C58.9225 25.7379 57.2633 25.8347 55.705 25.8825C55.367 25.8929 55.0337 25.901 54.705 25.9068M60.205 33.4126C58.6128 33.4835 57.1187 33.4925 55.705 33.4492C55.3671 33.4389 55.0339 33.4255 54.705 33.4093C53.7967 33.3646 52.9216 33.298 52.0745 33.2124C50.5617 33.0594 49.1386 32.8455 47.776 32.5864C45.2805 32.1117 42.9883 31.4851 40.7213 30.8022C38.7365 30.2042 36.7709 29.5631 34.705 28.943C33.1158 28.466 31.4673 28.0014 29.705 27.5785C27.8519 27.1338 25.873 26.7352 23.705 26.4166C21.8557 26.1448 19.8688 25.9313 17.705 25.7971C16.1363 25.6998 14.4746 25.6442 12.705 25.6384C11.1276 25.6331 9.46448 25.6674 7.70499 25.7469C6.70602 25.792 5.67599 25.8517 4.61296 25.927C3.49397 26.0063 2.48621 25.3197 2.32071 24.323C2.13325 23.1941 3.08118 22.126 4.34857 22.0333C5.50679 21.9485 6.62472 21.878 7.70499 21.8206C9.46819 21.727 11.1311 21.6684 12.705 21.6404C14.4792 21.6088 16.1404 21.6159 17.705 21.6552C19.8766 21.7098 21.862 21.8264 23.705 21.9873C25.8793 22.1772 27.8554 22.4289 29.705 22.7134C31.4656 22.9843 33.1116 23.2849 34.705 23.5904C36.7535 23.9831 38.7151 24.3839 40.7213 24.7398C42.9358 25.1326 45.2047 25.4707 47.705 25.6829C49.0815 25.7997 50.5282 25.8783 52.0745 25.9068C52.6059 25.9167 53.1489 25.9206 53.705 25.9181M66.8126 24.7398C68.9416 24.2581 70.8762 23.7576 72.6527 23.2402C73.3612 23.0338 74.0445 22.8247 74.705 22.613C75.3958 22.3916 76.0616 22.1673 76.705 21.9403C77.3964 21.6964 78.062 21.4493 78.705 21.1992C80.5289 20.4896 82.1708 19.7559 83.705 19.0013C85.4773 18.1296 87.1058 17.2301 88.705 16.3079C90.3608 15.3531 91.9851 14.3739 93.705 13.3763C95.2619 12.4731 96.8972 11.5548 98.705 10.6255C100.503 9.70116 102.472 8.76596 104.705 7.82414C106.237 7.17766 107.894 6.52805 109.705 5.87668C111.253 5.31993 112.913 4.76189 114.705 4.2034C116.268 3.71635 117.93 3.22897 119.705 2.74181C120.113 2.62969 120.528 2.51758 120.948 2.40549C122.176 2.07821 123.422 2.77711 123.614 3.90518C123.784 4.90105 123.057 5.87975 121.973 6.1712C121.197 6.3802 120.441 6.59139 119.705 6.80464C117.926 7.32035 116.263 7.84805 114.705 8.38564C112.907 9.00586 111.247 9.63925 109.705 10.2826C107.886 11.0413 106.231 11.8139 104.705 12.5951C102.461 13.7442 100.496 14.912 98.705 16.0816C96.8998 17.2602 95.2699 18.4407 93.705 19.606C92.0088 20.8691 90.3889 22.1143 88.705 23.3199C87.1323 24.4458 85.5038 25.5372 83.705 26.5762C82.1833 27.4552 80.5397 28.2968 78.705 29.0902C78.0627 29.3679 77.3971 29.6398 76.705 29.9053C76.0619 30.1519 75.396 30.3931 74.705 30.6285C74.0446 30.8533 73.3612 31.0729 72.6527 31.2867C71.1267 31.7474 69.4844 32.1817 67.705 32.5864M53.705 25.9181C54.0337 25.9166 54.367 25.9129 54.705 25.9068M53.705 25.9181L54.705 25.9068" />
  </symbol>
  <symbol id="plugins" viewBox="0 0 128 128" fill="none" stroke="currentColor" stroke-width="3">
    <path
      d="M3.5 80.5C3.5 82.7091 4.79086 84.5455 7 84.5455H17.2416C18.4828 84.5455 19.4889 85.5516 19.4889 86.7927C19.4889 87.3178 19.2886 87.8168 19.0202 88.2682C18.5692 89.0263 18.3111 89.9066 18.3111 90.8455C18.3111 93.6922 20.684 96 23.6111 96C26.5382 96 28.9111 93.6922 28.9111 90.8455C28.9111 89.9066 28.653 89.0263 28.2021 88.2682C27.9336 87.8168 27.7333 87.3178 27.7333 86.7927C27.7333 85.5516 28.7395 84.5455 29.9806 84.5455H40.2222C42.4314 84.5455 44.2222 82.7546 44.2222 80.5455V70.846C44.2222 69.5554 45.2685 68.5091 46.5592 68.5091C47.0834 68.5091 47.5837 68.7013 48.04 68.9593C48.8218 69.4014 49.7305 69.6545 50.7 69.6545C53.6271 69.6545 56 67.3468 56 64.5C56 61.6532 53.6271 59.3455 50.7 59.3455C49.7305 59.3455 48.8218 59.5986 48.04 60.0407C47.5837 60.2987 47.0834 60.4909 46.5592 60.4909C45.2685 60.4909 44.2222 59.4446 44.2222 58.154V48.4545C44.2222 46.2454 42.4314 44.4545 40.2222 44.4545H29.9806C28.7395 44.4545 27.7333 43.4484 27.7333 42.2073C27.7333 41.6822 27.9336 41.1832 28.2021 40.7318C28.653 39.9737 28.9111 39.0934 28.9111 38.1545C28.9111 35.3078 26.5382 33 23.6111 33C20.684 33 18.3111 35.3078 18.3111 38.1545C18.3111 39.0934 18.5692 39.9737 19.0202 40.7318C19.2886 41.1832 19.4889 41.6822 19.4889 42.2073C19.4889 43.4484 18.4828 44.4545 17.2416 44.4545H7C4.79086 44.4545 3.5 46.2909 3.5 48.5M3.5 80.5V48.5M3.5 80.5V121.5C3.5 123.157 4.84315 124.5 6.5 124.5H47.5M3.5 48.5V6.5C3.5 4.84315 4.84315 3.5 6.5 3.5H47.5M123.5 80.5C123.5 82.7091 122.209 84.5455 120 84.5455H109.758C108.517 84.5455 107.511 85.5516 107.511 86.7927C107.511 87.3178 107.711 87.8168 107.98 88.2682C108.431 89.0263 108.689 89.9066 108.689 90.8455C108.689 93.6922 106.316 96 103.389 96C100.462 96 98.0889 93.6922 98.0889 90.8455C98.0889 89.9066 98.347 89.0263 98.7979 88.2682C99.0664 87.8168 99.2667 87.3178 99.2667 86.7927C99.2667 85.5516 98.2605 84.5455 97.0194 84.5455H86.7778C84.5686 84.5455 82.7778 82.7546 82.7778 80.5455V70.846C82.7778 69.5554 81.7315 68.5091 80.4408 68.5091C79.9166 68.5091 79.4163 68.7013 78.96 68.9593C78.1782 69.4014 77.2695 69.6545 76.3 69.6545C73.3729 69.6545 71 67.3468 71 64.5C71 61.6532 73.3729 59.3455 76.3 59.3455C77.2695 59.3455 78.1782 59.5986 78.96 60.0407C79.4163 60.2987 79.9166 60.4909 80.4408 60.4909C81.7315 60.4909 82.7778 59.4446 82.7778 58.154V48.4545C82.7778 46.2454 84.5686 44.4545 86.7778 44.4545H97.0194C98.2605 44.4545 99.2667 43.4484 99.2667 42.2073C99.2667 41.6822 99.0664 41.1832 98.7979 40.7318C98.347 39.9737 98.0889 39.0934 98.0889 38.1545C98.0889 35.3078 100.462 33 103.389 33C106.316 33 108.689 35.3078 108.689 38.1545C108.689 39.0934 108.431 39.9737 107.98 40.7318C107.711 41.1832 107.511 41.6822 107.511 42.2073C107.511 43.4484 108.517 44.4545 109.758 44.4545H120C122.209 44.4545 123.5 46.2909 123.5 48.5M123.5 80.5V48.5M123.5 80.5V121.5C123.5 123.157 122.157 124.5 120.5 124.5H79.5M123.5 48.5V6.5C123.5 4.84315 122.157 3.5 120.5 3.5H79.5M79.5 3.5C81.7091 3.5 83.5455 4.79086 83.5455 7V17.2416C83.5455 18.4828 84.5516 19.4889 85.7927 19.4889C86.3178 19.4889 86.8168 19.2886 87.2682 19.0202C88.0263 18.5692 88.9066 18.3111 89.8455 18.3111C92.6922 18.3111 95 20.684 95 23.6111C95 26.5382 92.6922 28.9111 89.8455 28.9111C88.9066 28.9111 88.0263 28.653 87.2682 28.2021C86.8168 27.9336 86.3178 27.7333 85.7927 27.7333C84.5516 27.7333 83.5455 28.7395 83.5455 29.9806V40.2222C83.5455 42.4314 81.7546 44.2222 79.5455 44.2222H69.846C68.5554 44.2222 67.5091 45.2685 67.5091 46.5592C67.5091 47.0834 67.7013 47.5836 67.9593 48.04C68.4014 48.8218 68.6545 49.7305 68.6545 50.7C68.6545 53.6271 66.3468 56 63.5 56C60.6532 56 58.3455 53.6271 58.3455 50.7C58.3455 49.7305 58.5986 48.8218 59.0407 48.04C59.2987 47.5836 59.4909 47.0834 59.4909 46.5592C59.4909 45.2685 58.4446 44.2222 57.154 44.2222H47.4545C45.2454 44.2222 43.4545 42.4314 43.4545 40.2222V29.9806C43.4545 28.7395 42.4484 27.7333 41.2073 27.7333C40.6822 27.7333 40.1832 27.9336 39.7318 28.2021C38.9737 28.653 38.0934 28.9111 37.1545 28.9111C34.3078 28.9111 32 26.5382 32 23.6111C32 20.684 34.3078 18.3111 37.1545 18.3111C38.0934 18.3111 38.9737 18.5692 39.7318 19.0202C40.1832 19.2886 40.6822 19.4889 41.2073 19.4889C42.4484 19.4889 43.4545 18.4828 43.4545 17.2416V7C43.4545 4.79086 45.2909 3.5 47.5 3.5M79.5 3.5H47.5M79.5 124.5C81.7091 124.5 83.5455 123.209 83.5455 121V110.758C83.5455 109.517 84.5516 108.511 85.7927 108.511C86.3178 108.511 86.8168 108.711 87.2682 108.98C88.0263 109.431 88.9066 109.689 89.8455 109.689C92.6922 109.689 95 107.316 95 104.389C95 101.462 92.6922 99.0889 89.8455 99.0889C88.9066 99.0889 88.0263 99.347 87.2682 99.7979C86.8168 100.066 86.3178 100.267 85.7927 100.267C84.5516 100.267 83.5455 99.2605 83.5455 98.0194V87.7778C83.5455 85.5686 81.7546 83.7778 79.5455 83.7778H69.846C68.5554 83.7778 67.5091 82.7315 67.5091 81.4408C67.5091 80.9166 67.7013 80.4163 67.9593 79.96C68.4014 79.1782 68.6545 78.2695 68.6545 77.3C68.6545 74.3729 66.3468 72 63.5 72C60.6532 72 58.3455 74.3729 58.3455 77.3C58.3455 78.2695 58.5986 79.1782 59.0407 79.96C59.2987 80.4163 59.4909 80.9166 59.4909 81.4408C59.4909 82.7315 58.4446 83.7778 57.154 83.7778H47.4545C45.2454 83.7778 43.4545 85.5686 43.4545 87.7778V98.0194C43.4545 99.2605 42.4484 100.267 41.2073 100.267C40.6822 100.267 40.1832 100.066 39.7318 99.7979C38.9737 99.347 38.0934 99.0889 37.1545 99.0889C34.3078 99.0889 32 101.462 32 104.389C32 107.316 34.3078 109.689 37.1545 109.689C38.0934 109.689 38.9737 109.431 39.7318 108.98C40.1832 108.711 40.6822 108.511 41.2073 108.511C42.4484 108.511 43.4545 109.517 43.4545 110.758V121C43.4545 123.209 45.2909 124.5 47.5 124.5M79.5 124.5H47.5" />
    <path
      d="M71.5 16.5V21C71.5 22.6569 70.1569 24 68.5 24H58.5C56.8431 24 55.5 25.3431 55.5 27V30.5M71.5 16.5H75.5C77.1569 16.5 78.5 17.8431 78.5 19.5V27.5C78.5 29.1569 77.1569 30.5 75.5 30.5H63.5H68.5C70.1569 30.5 71.5 31.8431 71.5 33.5V34.5C71.5 36.1569 70.1569 37.5 68.5 37.5H58.5C56.8431 37.5 55.5 36.1569 55.5 34.5V30.5M71.5 16.5V12.5C71.5 10.8431 70.1569 9.5 68.5 9.5H58.5C56.8431 9.5 55.5 10.8431 55.5 12.5V16.5M67 16.5H55.5M55.5 30.5H51.5C49.8431 30.5 48.5 29.1569 48.5 27.5V19.5C48.5 17.8431 49.8431 16.5 51.5 16.5H55.5" />
    <path
      d="M8.01297 55.9644L17.7493 50.8895C18.2197 50.6443 18.7682 50.596 19.2742 50.7553L26.4484 53.0131M8.01297 55.9644L18.9287 76.9064M8.01297 55.9644L15.9774 58.471M39.8706 65.9907L34.7957 56.2543C34.5505 55.7839 34.1285 55.4302 33.6226 55.271L26.4484 53.0131M39.8706 65.9907L18.9287 76.9064M39.8706 65.9907L31.9062 63.4841M18.9287 76.9064L15.9774 58.471M18.9287 76.9064L31.9062 63.4841M15.9774 58.471L23.9418 60.9775L31.9062 63.4841M15.9774 58.471L26.4484 53.0131M31.9062 63.4841L26.4484 53.0131" />
    <path
      d="M56.1963 91L52.6519 97.4393M56.1963 91H49L52.6519 97.4393M56.1963 91L59.8482 97.4393M52.6519 97.4393L56.3037 104M74.3482 97.4393L78 91H70.8037M74.3482 97.4393L70.8037 91M74.3482 97.4393L70.6963 104M70.8037 91L67.1519 97.4393M59.8482 97.4393L56.3037 104M59.8482 97.4393L63.5 104M59.8482 97.4393L61.6275 94.4019H65.3725L67.1519 97.4393M56.3037 104L59.9556 110.561M63.5 104L59.9556 110.561M63.5 104L67.1519 97.4393M63.5 104L67.0444 110.561M59.9556 110.561L63.5 117L67.0444 110.561M67.1519 97.4393L70.6963 104M70.6963 104L67.0444 110.561" />
    <path d="M88.5 56.8636L102.5 48.7345L116.5 56.8636V72.6118L102.5 80.2893L88.5 72.6118V56.8636Z" />
    <path
      d="M110.223 68.5606C109.259 70.0905 107.832 71.2735 106.15 71.9381C104.468 72.6027 102.618 72.7143 100.869 72.2567C99.1192 71.7992 97.5608 70.7963 96.4196 69.3934C95.2783 67.9905 94.6136 66.2607 94.5216 64.4545C94.4297 62.6484 94.9155 60.86 95.9084 59.3485C96.9014 57.8371 98.3499 56.6811 100.044 56.0484C101.738 55.4156 103.59 55.3388 105.33 55.8292C107.071 56.3196 108.61 57.3517 109.725 58.7758L107.243 60.7184C106.541 59.8216 105.572 59.1717 104.476 58.8629C103.38 58.554 102.214 58.6024 101.147 59.0008C100.08 59.3993 99.1678 60.1272 98.5426 61.079C97.9173 62.0308 97.6114 63.157 97.6693 64.2944C97.7272 65.4317 98.1458 66.5211 98.8644 67.4045C99.5831 68.2879 100.564 68.9194 101.666 69.2075C102.768 69.4957 103.933 69.4254 104.992 69.0069C106.051 68.5884 106.949 67.8435 107.557 66.88L110.223 68.5606Z"
      stroke-width="0" fill="currentColor" />

  </symbol>
  <symbol id="app" viewBox="0 0 128 128" fill="none" stroke="currentColor" stroke-width="3">
    <path
      d="M2.5 4.97129C2.5 3.05415 4.05415 1.5 5.97129 1.5H68.0287C69.9458 1.5 71.5 3.05415 71.5 4.97129V123.029C71.5 124.946 69.9458 126.5 68.0287 126.5H5.97129C4.05415 126.5 2.5 124.946 2.5 123.029V4.97129Z" />
    <path
      d="M8.50002 8.55807C8.50002 7.97371 8.97373 7.5 9.55809 7.5H64.442C65.0263 7.5 65.5 7.97371 65.5 8.55807V119.442C65.5 120.026 65.0263 120.5 64.442 120.5H9.55809C8.97374 120.5 8.50002 120.026 8.50002 119.442V8.55807Z" />
    <path d="M13.0421 34.5H61M61 40.5H13.0421M13.0421 46.5H61M61 52.5H13.0421M13 58.5H60.9579M13.0421 59.5H61" />
    <path
      d="M48.5 64.6502C48.5 64.5672 48.5672 64.5 48.6502 64.5H59.3498C59.4328 64.5 59.5 64.5672 59.5 64.6502V96.3498C59.5 96.4328 59.4328 96.5 59.3498 96.5H48.6502C48.5672 96.5 48.5 96.4328 48.5 96.3498V64.6502Z" />
    <path
      d="M14.5 13.6502C14.5 13.5672 14.5672 13.5 14.6502 13.5H25.3498C25.4328 13.5 25.5 13.5672 25.5 13.6502V28.3498C25.5 28.4328 25.4328 28.5 25.3498 28.5H14.6502C14.5672 28.5 14.5 28.4328 14.5 28.3498V13.6502Z" />
    <path
      d="M14.5 64.6502C14.5 64.5672 14.5672 64.5 14.6502 64.5H25.3498C25.4328 64.5 25.5 64.5672 25.5 64.6502V75.3498C25.5 75.4328 25.4328 75.5 25.3498 75.5H14.6502C14.5672 75.5 14.5 75.4328 14.5 75.3498V64.6502Z" />
    <path
      d="M31.5 64.6502C31.5 64.5672 31.5672 64.5 31.6502 64.5H42.3498C42.4328 64.5 42.5 64.5672 42.5 64.6502V75.3498C42.5 75.4328 42.4328 75.5 42.3498 75.5H31.6502C31.5672 75.5 31.5 75.4328 31.5 75.3498V64.6502Z" />
    <path
      d="M14.5 81.6502C14.5 81.5672 14.5672 81.5 14.6502 81.5H42.3498C42.4328 81.5 42.5 81.5672 42.5 81.6502V96.3498C42.5 96.4328 42.4328 96.5 42.3498 96.5H14.6502C14.5672 96.5 14.5 96.4328 14.5 96.3498V81.6502Z" />
    <path
      d="M14.5 102.65C14.5 102.567 14.5672 102.5 14.6502 102.5H59.3498C59.4328 102.5 59.5 102.567 59.5 102.65V114.35C59.5 114.433 59.4328 114.5 59.3498 114.5H14.6502C14.5672 114.5 14.5 114.433 14.5 114.35V102.65Z" />
    <path
      d="M31.5 13.6502C31.5 13.5672 31.5672 13.5 31.6502 13.5H42.3498C42.4328 13.5 42.5 13.5672 42.5 13.6502V28.3498C42.5 28.4328 42.4328 28.5 42.3498 28.5H31.6502C31.5672 28.5 31.5 28.4328 31.5 28.3498V13.6502Z" />
    <path
      d="M48.5 13.6502C48.5 13.5672 48.5672 13.5 48.6502 13.5H59.3498C59.4328 13.5 59.5 13.5672 59.5 13.6502V28.3498C59.5 28.4328 59.4328 28.5 59.3498 28.5H48.6502C48.5672 28.5 48.5 28.4328 48.5 28.3498V13.6502Z" />
    <path
      d="M117.564 26.1361C117.564 35.0381 110.376 42.2453 101.52 42.2453C92.6639 42.2453 85.4753 35.0381 85.4753 26.1361C85.4753 17.234 92.6639 10.0269 101.52 10.0269C110.376 10.0269 117.564 17.234 117.564 26.1361Z" />
    <path
      d="M89.8593 33.2903L100.832 26.8164C101.049 26.6882 101.319 26.6893 101.535 26.8192L106.999 30.1017C107.539 30.4261 107.395 31.2456 106.776 31.3657L90.3396 34.5572C89.5817 34.7043 89.1943 33.6827 89.8593 33.2903Z" />
    <path
      d="M101.608 25.4748V12.0115C101.608 11.2297 100.511 11.0545 100.267 11.7973L94.7954 28.4891C94.598 29.0915 95.2519 29.6174 95.798 29.2952L101.27 26.0668C101.479 25.9432 101.608 25.718 101.608 25.4748Z" />
    <path
      d="M101.598 26.4443V19.6459C101.598 19.0052 102.397 18.7129 102.81 19.2024L113.964 32.4137C114.465 33.0066 113.753 33.8451 113.086 33.4473L109.324 31.2005L101.948 27.0431C101.732 26.9213 101.598 26.6924 101.598 26.4443Z" />
    <circle cx="101.52" cy="26.2007" r="21.7347" />
    <path
      d="M71.3643 116.5H99.0793C100.484 116.5 101.623 115.361 101.623 113.956V111.724M101.486 94.2606L101.623 111.724M101.486 94.2606V48.2856M101.486 94.2606L89.629 84.1466C89.0624 83.6632 88.736 82.9558 88.736 82.2111V66.0824M101.623 111.724L113.48 101.61C114.047 101.127 114.373 100.419 114.373 99.6745V83.5459" />
    <circle cx="88.6667" cy="59.8168" r="6.9379" />
    <circle cx="114.373" cy="77.6137" r="6.9379" />
  </symbol>
</svg>