<svg width="620" height="360" viewBox="0 0 620 360" fill="none" xmlns="http://www.w3.org/2000/svg">
<g clip-path="url(#clip0)">
<rect x="-1.5" y="1.5" width="63.7317" height="43.0315" rx="6.5" transform="matrix(-1 0 0 1 106 46.1104)" stroke="#1191FF" stroke-width="3"/>
<mask id="path-2-inside-1" fill="white">
<rect width="18.5366" height="34.5237" rx="2" transform="matrix(-1 0 0 1 103.439 51.8644)"/>
</mask>
<rect width="18.5366" height="34.5237" rx="2" transform="matrix(-1 0 0 1 103.439 51.8644)" stroke="#1191FF" stroke-width="6" mask="url(#path-2-inside-1)"/>
<mask id="path-3-inside-2" fill="white">
<rect width="15.7561" height="17.2618" rx="2" transform="matrix(-1 0 0 1 82.1211 69.1262)"/>
</mask>
<rect width="15.7561" height="17.2618" rx="2" transform="matrix(-1 0 0 1 82.1211 69.1262)" stroke="#1191FF" stroke-width="6" mask="url(#path-3-inside-2)"/>
<mask id="path-4-inside-3" fill="white">
<rect width="15.7561" height="17.2618" rx="2" transform="matrix(-1 0 0 1 63.5859 69.1262)"/>
</mask>
<rect width="15.7561" height="17.2618" rx="2" transform="matrix(-1 0 0 1 63.5859 69.1262)" stroke="#1191FF" stroke-width="6" mask="url(#path-4-inside-3)"/>
<line x1="1.5" y1="-1.5" x2="32.7927" y2="-1.5" transform="matrix(-1 0 0 1 82.1211 54.7413)" stroke="#1191FF" stroke-width="3" stroke-linecap="round"/>
<line x1="1.5" y1="-1.5" x2="32.7927" y2="-1.5" transform="matrix(-1 0 0 1 82.1211 60.4953)" stroke="#1191FF" stroke-width="3" stroke-linecap="round"/>
<line x1="1.5" y1="-1.5" x2="32.7927" y2="-1.5" transform="matrix(-1 0 0 1 82.1211 66.2492)" stroke="#1191FF" stroke-width="3" stroke-linecap="round"/>
<rect x="-1.5" y="1.5" width="55.3902" height="60.2934" rx="6.5" transform="matrix(-1 0 0 1 182 57.6183)" stroke="#1191FF" stroke-width="3"/>
<mask id="path-9-inside-4" fill="white">
<rect width="12.0488" height="30.6877" rx="2" transform="matrix(-1 0 0 1 179.439 63.3723)"/>
</mask>
<rect width="12.0488" height="30.6877" rx="2" transform="matrix(-1 0 0 1 179.439 63.3723)" stroke="#1191FF" stroke-width="6" mask="url(#path-9-inside-4)"/>
<mask id="path-10-inside-5" fill="white">
<rect width="12.0488" height="18.2208" rx="2" transform="matrix(-1 0 0 1 179.439 96.9369)"/>
</mask>
<rect width="12.0488" height="18.2208" rx="2" transform="matrix(-1 0 0 1 179.439 96.9369)" stroke="#1191FF" stroke-width="6" mask="url(#path-10-inside-5)"/>
<mask id="path-11-inside-6" fill="white">
<rect width="14.8293" height="15.3438" rx="2" transform="matrix(-1 0 0 1 164.609 63.3723)"/>
</mask>
<rect width="14.8293" height="15.3438" rx="2" transform="matrix(-1 0 0 1 164.609 63.3723)" stroke="#1191FF" stroke-width="6" mask="url(#path-11-inside-6)"/>
<mask id="path-12-inside-7" fill="white">
<rect width="14.8293" height="15.3438" rx="2" transform="matrix(-1 0 0 1 164.609 81.5931)"/>
</mask>
<rect width="14.8293" height="15.3438" rx="2" transform="matrix(-1 0 0 1 164.609 81.5931)" stroke="#1191FF" stroke-width="6" mask="url(#path-12-inside-7)"/>
<mask id="path-13-inside-8" fill="white">
<rect width="14.8293" height="15.3438" rx="2" transform="matrix(-1 0 0 1 164.609 99.8139)"/>
</mask>
<rect width="14.8293" height="15.3438" rx="2" transform="matrix(-1 0 0 1 164.609 99.8139)" stroke="#1191FF" stroke-width="6" mask="url(#path-13-inside-8)"/>
<mask id="path-14-inside-9" fill="white">
<rect width="14.8293" height="15.3438" rx="2" transform="matrix(-1 0 0 1 147 63.3723)"/>
</mask>
<rect width="14.8293" height="15.3438" rx="2" transform="matrix(-1 0 0 1 147 63.3723)" stroke="#1191FF" stroke-width="6" mask="url(#path-14-inside-9)"/>
<mask id="path-15-inside-10" fill="white">
<rect width="14.8293" height="15.3438" rx="2" transform="matrix(-1 0 0 1 147 81.5931)"/>
</mask>
<rect width="14.8293" height="15.3438" rx="2" transform="matrix(-1 0 0 1 147 81.5931)" stroke="#1191FF" stroke-width="6" mask="url(#path-15-inside-10)"/>
<mask id="path-16-inside-11" fill="white">
<rect width="14.8293" height="15.3438" rx="2" transform="matrix(-1 0 0 1 147 99.8139)"/>
</mask>
<rect width="14.8293" height="15.3438" rx="2" transform="matrix(-1 0 0 1 147 99.8139)" stroke="#1191FF" stroke-width="6" mask="url(#path-16-inside-11)"/>
<path d="M74.4995 46.5598V45C74.4995 40.5817 78.0812 37 82.4995 37H139.463C143.881 37 147.463 40.5817 147.463 45V58.9856M74.4995 89.572V103.909M74.4995 136.407V147.877M87.9995 184.5H139.463C143.881 184.5 147.463 180.918 147.463 176.5V173.685M147.463 134.496V119.203" stroke="#1191FF" stroke-width="3"/>
<path d="M141.5 119.473V134.817M141.5 174.136V175.5C141.5 177.157 140.157 178.5 138.5 178.5H89.0732M80.5 148.243V136.735M80.5 104.129V89.7445M80.5 46.5899V45.5C80.5 43.8431 81.8431 42.5 83.5 42.5H138.5C140.157 42.5 141.5 43.8431 141.5 45.5V59.0568" stroke="#1191FF" stroke-width="3"/>
<rect x="-1.5" y="1.5" width="55.3902" height="39.1956" rx="6.5" transform="matrix(-1 0 0 1 169.951 132.42)" stroke="#1191FF" stroke-width="3"/>
<mask id="path-20-inside-12" fill="white">
<rect width="15.7561" height="30.6877" rx="2" transform="matrix(-1 0 0 1 167.391 138.174)"/>
</mask>
<rect width="15.7561" height="30.6877" rx="2" transform="matrix(-1 0 0 1 167.391 138.174)" stroke="#1191FF" stroke-width="6" mask="url(#path-20-inside-12)"/>
<mask id="path-21-inside-13" fill="white">
<rect width="12.9756" height="13.4259" rx="2" transform="matrix(-1 0 0 1 133.098 138.174)"/>
</mask>
<rect width="12.9756" height="13.4259" rx="2" transform="matrix(-1 0 0 1 133.098 138.174)" stroke="#1191FF" stroke-width="6" mask="url(#path-21-inside-13)"/>
<mask id="path-22-inside-14" fill="white">
<rect width="12.9756" height="13.4259" rx="2" transform="matrix(-1 0 0 1 133.098 154.476)"/>
</mask>
<rect width="12.9756" height="13.4259" rx="2" transform="matrix(-1 0 0 1 133.098 154.476)" stroke="#1191FF" stroke-width="6" mask="url(#path-22-inside-14)"/>
<mask id="path-23-inside-15" fill="white">
<rect width="12.9756" height="13.4259" rx="2" transform="matrix(-1 0 0 1 148.854 138.174)"/>
</mask>
<rect width="12.9756" height="13.4259" rx="2" transform="matrix(-1 0 0 1 148.854 138.174)" stroke="#1191FF" stroke-width="6" mask="url(#path-23-inside-15)"/>
<mask id="path-24-inside-16" fill="white">
<rect width="12.9756" height="13.4259" rx="2" transform="matrix(-1 0 0 1 148.854 154.476)"/>
</mask>
<rect width="12.9756" height="13.4259" rx="2" transform="matrix(-1 0 0 1 148.854 154.476)" stroke="#1191FF" stroke-width="6" mask="url(#path-24-inside-16)"/>
<rect x="-1.5" y="1.5" width="70.2195" height="32.4827" rx="6.5" transform="matrix(-1 0 0 1 103.219 102.691)" stroke="#1191FF" stroke-width="3"/>
<mask id="path-26-inside-17" fill="white">
<rect width="15.7561" height="23.9748" rx="2" transform="matrix(-1 0 0 1 100.658 108.445)"/>
</mask>
<rect width="15.7561" height="23.9748" rx="2" transform="matrix(-1 0 0 1 100.658 108.445)" stroke="#1191FF" stroke-width="6" mask="url(#path-26-inside-17)"/>
<mask id="path-27-inside-18" fill="white">
<rect width="15.7561" height="23.9748" rx="2" transform="matrix(-1 0 0 1 82.1211 108.445)"/>
</mask>
<rect width="15.7561" height="23.9748" rx="2" transform="matrix(-1 0 0 1 82.1211 108.445)" stroke="#1191FF" stroke-width="6" mask="url(#path-27-inside-18)"/>
<mask id="path-28-inside-19" fill="white">
<rect width="15.7561" height="23.9748" rx="2" transform="matrix(-1 0 0 1 63.584 108.445)"/>
</mask>
<rect width="15.7561" height="23.9748" rx="2" transform="matrix(-1 0 0 1 63.584 108.445)" stroke="#1191FF" stroke-width="6" mask="url(#path-28-inside-19)"/>
<mask id="path-29-inside-20" fill="white">
<rect width="12.0488" height="23.9748" rx="2" transform="matrix(-1 0 0 1 45.0488 108.445)"/>
</mask>
<rect width="12.0488" height="23.9748" rx="2" transform="matrix(-1 0 0 1 45.0488 108.445)" stroke="#1191FF" stroke-width="6" mask="url(#path-29-inside-20)"/>
<rect x="-1.5" y="1.5" width="26.6585" height="39.1956" rx="6.5" transform="matrix(-1 0 0 1 87.4629 146.804)" stroke="#1191FF" stroke-width="3"/>
<mask id="path-31-inside-21" fill="white">
<rect width="18.5366" height="19.1798" rx="2" transform="matrix(-1 0 0 1 84.9023 164.066)"/>
</mask>
<rect width="18.5366" height="19.1798" rx="2" transform="matrix(-1 0 0 1 84.9023 164.066)" stroke="#1191FF" stroke-width="6" mask="url(#path-31-inside-21)"/>
<line x1="1.5" y1="-1.5" x2="17.0366" y2="-1.5" transform="matrix(-1 0 0 1 84.9023 155.435)" stroke="#1191FF" stroke-width="3" stroke-linecap="round"/>
<line x1="1.5" y1="-1.5" x2="17.0366" y2="-1.5" transform="matrix(-1 0 0 1 84.9023 161.189)" stroke="#1191FF" stroke-width="3" stroke-linecap="round"/>
<path d="M414.926 59.9512L436.745 81.7707" stroke="#1191FF" stroke-width="3"/>
<path d="M417.027 41.6532L438.368 62.9942" stroke="#1191FF" stroke-width="3"/>
<path d="M414.926 80.7317L436.745 102.551" stroke="#1191FF" stroke-width="3"/>
<path d="M414.926 101.512L436.745 123.332" stroke="#1191FF" stroke-width="3"/>
<path d="M414.926 122.293L436.745 144.112" stroke="#1191FF" stroke-width="3"/>
<path d="M414.926 143.073L436.745 164.893" stroke="#1191FF" stroke-width="3"/>
<path d="M414.926 163.854L436.399 185.327" stroke="#1191FF" stroke-width="3"/>
<path d="M414.926 184.634L436.399 206.107" stroke="#1191FF" stroke-width="3"/>
<path d="M414.926 205.415L436.745 227.234" stroke="#1191FF" stroke-width="3"/>
<path d="M414.926 226.195L436.399 247.668" stroke="#1191FF" stroke-width="3"/>
<path d="M414.926 246.976L436.399 268.449" stroke="#1191FF" stroke-width="3"/>
<path d="M435.707 39.1707L457.527 60.9902" stroke="#1191FF" stroke-width="3"/>
<path d="M456.486 39.1707L478.306 60.9902" stroke="#1191FF" stroke-width="3"/>
<path d="M477.268 39.1707L499.087 60.9902" stroke="#1191FF" stroke-width="3"/>
<path d="M498.047 39.1707L519.866 60.9902" stroke="#1191FF" stroke-width="3"/>
<path d="M518.828 39.1707L540.648 60.9902" stroke="#1191FF" stroke-width="3"/>
<path d="M539.609 39.1707L561.429 60.9902" stroke="#1191FF" stroke-width="3"/>
<path d="M560.389 39.1707L565.237 44.0195" stroke="#1191FF" stroke-width="3"/>
<path d="M604.722 90.4293V68.9561C604.722 66.175 603.356 63.7128 601.259 62.2039M604.722 133.029V269.834M564.893 60.6439H444.713C440.122 60.6439 436.4 64.3654 436.4 68.9561V283.688C436.4 288.279 440.122 292 444.713 292H582.556M582.556 292V278.146C582.556 273.644 585.674 269.834 590.869 269.834H604.722M582.556 292L604.722 269.834" stroke="#1191FF" stroke-width="3"/>
<line x1="451.061" y1="82.0024" x2="545.729" y2="82.0024" stroke="#1191FF" stroke-width="3" stroke-linecap="round"/>
<path d="M450.6 121.254H561.083" stroke="#1191FF" stroke-width="3" stroke-linecap="round"/>
<line x1="451.061" y1="95.8561" x2="520.1" y2="95.8561" stroke="#1191FF" stroke-width="3" stroke-linecap="round"/>
<path d="M450.6 232.083H580.131M589.829 232.083H584.98" stroke="#1191FF" stroke-width="3" stroke-linecap="round"/>
<path d="M450.6 218.229H580.131M589.829 218.229H584.98" stroke="#1191FF" stroke-width="3" stroke-linecap="round"/>
<path d="M450.6 204.376H580.131M589.829 204.376H584.98" stroke="#1191FF" stroke-width="3" stroke-linecap="round"/>
<path d="M450.6 190.522H580.131M589.829 190.522H584.98" stroke="#1191FF" stroke-width="3" stroke-linecap="round"/>
<path d="M450.6 176.668H580.131M589.829 176.668H584.98" stroke="#1191FF" stroke-width="3" stroke-linecap="round"/>
<path d="M450.6 162.815H580.131M589.829 162.815H584.98" stroke="#1191FF" stroke-width="3" stroke-linecap="round"/>
<path d="M450.6 148.961H580.131" stroke="#1191FF" stroke-width="3" stroke-linecap="round"/>
<path d="M450.6 135.107H574.936" stroke="#1191FF" stroke-width="3" stroke-linecap="round"/>
<path d="M486.967 256.673L526.45 256.673" stroke="#1191FF" stroke-width="3" stroke-linecap="round"/>
<path d="M486.967 267.756L511.903 267.756" stroke="#1191FF" stroke-width="3" stroke-linecap="round"/>
<path d="M475.524 279.282L475.524 279.282L475.369 279.256C475.369 279.256 475.369 279.256 475.369 279.256C473.101 278.876 470.79 279.627 469.179 281.268L470.249 282.319L469.179 281.268L469.069 281.38C467.484 282.993 464.885 282.993 463.301 281.38L462.23 282.431L463.301 281.38L463.191 281.268C461.58 279.627 459.269 278.876 457 279.256L456.846 279.282C454.616 279.657 452.512 278.129 452.179 275.892L452.156 275.737C451.817 273.462 450.389 271.496 448.33 270.471L448.19 270.401C446.166 269.393 445.362 266.921 446.408 264.916L446.48 264.776L445.15 264.083L446.48 264.776C447.543 262.737 447.543 260.307 446.48 258.268L445.15 258.961L446.48 258.268L446.408 258.128C445.362 256.123 446.166 253.651 448.19 252.643L447.521 251.3L448.19 252.643L448.33 252.573C450.389 251.548 451.817 249.582 452.156 247.307L452.179 247.152C452.512 244.915 454.616 243.387 456.846 243.762L457 243.787C459.269 244.168 461.58 243.417 463.191 241.776L463.301 241.664C464.885 240.051 467.484 240.051 469.069 241.664L469.179 241.776C470.79 243.417 473.101 244.168 475.369 243.787L475.524 243.762C477.754 243.387 479.857 244.915 480.19 247.152L480.213 247.307C480.552 249.582 481.98 251.548 484.039 252.573L484.179 252.643C486.203 253.651 487.007 256.123 485.962 258.128L485.889 258.268C484.826 260.307 484.826 262.737 485.889 264.776L485.962 264.916L487.292 264.222L485.962 264.916C487.007 266.921 486.203 269.393 484.179 270.401L484.039 270.471L484.708 271.814L484.039 270.471C481.98 271.496 480.552 273.462 480.213 275.737L480.19 275.892C479.857 278.129 477.754 279.657 475.524 279.282Z" stroke="#1191FF" stroke-width="3"/>
<circle cx="466.185" cy="261.522" r="15.1244" stroke="#1191FF" stroke-width="3"/>
<mask id="path-68-inside-22" fill="white">
<rect x="577.707" y="235.893" width="9.69756" height="13.8537" rx="2.07805"/>
</mask>
<rect x="577.707" y="235.893" width="9.69756" height="13.8537" rx="2.07805" stroke="#1191FF" stroke-width="6" mask="url(#path-68-inside-22)"/>
<mask id="path-69-inside-23" fill="white">
<rect x="579.092" y="31.5512" width="6.92683" height="206.42" rx="2.07805"/>
</mask>
<rect x="579.092" y="31.5512" width="6.92683" height="206.42" rx="2.07805" stroke="#1191FF" stroke-width="6" mask="url(#path-69-inside-23)"/>
<path d="M579.092 249.054L582.555 263.6L586.019 249.054" stroke="#1191FF" stroke-width="3" stroke-linecap="square" stroke-linejoin="round"/>
<path d="M584.98 152.771L608.185 129.566V119.695M584.98 110.171L608.185 86.9659V97.3561M608.185 97.3561L591.907 113.634M608.185 97.3561V109.824M608.185 109.824L601.605 116.405M608.185 109.824V119.695M584.98 127.488L595.024 117.444M584.98 136.146L591.907 129.22M608.185 119.695L597.795 130.085" stroke="#1191FF" stroke-width="3" stroke-linejoin="round"/>
<path d="M584.98 102.898L601.259 86.6195V57.8732M584.98 60.2976L601.259 44.0195V57.8732M584.98 93.8927L596.41 82.4634M597.795 70.3415L588.79 79.3463M584.98 71.0342L591.561 64.4537M601.259 57.8732L595.717 63.4146" stroke="#1191FF" stroke-width="3" stroke-linejoin="round"/>
<path d="M584.98 53.0244L594.332 43.6732V32.9366M580.132 88.6976L564.893 73.4585V48.8683M594.332 32.9366L588.79 38.478M594.332 32.9366V19.0829M594.332 19.0829V8L584.98 17.3512L564.893 37.439V48.8683M594.332 19.0829L587.405 26.0098M580.132 74.4976L571.127 65.4927M564.893 48.8683L573.897 57.8732M580.132 50.6L571.127 41.5951" stroke="#1191FF" stroke-width="3" stroke-linejoin="round"/>
<path d="M580.131 97.0097L557.965 74.8438V83.5024M580.131 139.956L557.965 117.79V102.898M580.131 129.912L569.394 119.176M557.965 102.898L565.584 110.517M557.965 102.898V83.5024M575.282 109.478L563.16 97.356M557.965 83.5024L564.892 90.4292" stroke="#1191FF" stroke-width="3" stroke-linejoin="round"/>
<path d="M436.399 271.22H423.238C418.647 271.22 414.926 267.498 414.926 262.907V47.4829C414.926 42.8922 418.647 39.1707 423.238 39.1707H564.892" stroke="#1191FF" stroke-width="3"/>
<path d="M590.868 46.7903V54.4098M436.4 278.146H421.854C414.202 278.146 408 271.944 408 264.293V46.7903C408 39.1391 414.202 32.9366 421.854 32.9366H569.395" stroke="#1191FF" stroke-width="3"/>
<path d="M547.229 252.448C553.463 260.76 565.983 262.813 570.304 259.734C574.625 256.654 562.63 245.779 559.317 250.024C556.004 254.269 561.765 274.96 557.444 277.731C553.123 280.502 551.091 269.505 559.317 266.302C567.543 263.098 581.644 270.759 582.555 263.946" stroke="#1191FF" stroke-width="3"/>
<circle cx="272.5" cy="199" r="28" stroke="#1191FF" stroke-width="3"/>
<path d="M293 198.523C293 210.107 283.599 219.5 272 219.5C260.401 219.5 251 210.107 251 198.523C251 186.939 260.401 177.546 272 177.546C283.599 177.546 293 186.939 293 198.523Z" stroke="#1191FF" stroke-width="3"/>
<path d="M256.091 208.215L271.217 199.332C271.434 199.205 271.703 199.206 271.918 199.335L279.451 203.839C279.992 204.163 279.848 204.984 279.229 205.104L256.569 209.483C255.811 209.63 255.425 208.607 256.091 208.215Z" stroke="#1191FF" stroke-width="3"/>
<path d="M272.111 197.786V179.285C272.111 178.503 271.015 178.328 270.771 179.07L263.216 202.008C263.018 202.61 263.671 203.137 264.217 202.816L271.772 198.379C271.982 198.256 272.111 198.03 272.111 197.786Z" stroke="#1191FF" stroke-width="3"/>
<path d="M272.1 199.026V189.712C272.1 189.072 272.897 188.779 273.311 189.267L288.699 207.408C289.201 208 288.49 208.84 287.823 208.443L282.008 204.987L272.451 199.626C272.234 199.504 272.1 199.275 272.1 199.026Z" stroke="#1191FF" stroke-width="3"/>
<path d="M119 185.5V201.5M245 198.5H212C209.239 198.5 207 200.739 207 203.5V222M138 233.5H124C121.239 233.5 119 231.261 119 228.5V201.5M138 233.5L148.566 243.186C149.488 244.031 150.694 244.5 151.945 244.5H164.5M138 233.5H143M180 244.5H165H164.5M207 222V228.5C207 231.261 204.761 233.5 202 233.5H171M207 222L194.784 208.426C193.957 207.508 193.5 206.317 193.5 205.081V201.5M193.5 139V170.25M143 233.5V222M143 233.5H157M157 233.5V222M157 233.5H171M171 233.5V222M164.5 244.5V255.523C164.5 256.793 164.984 258.016 165.852 258.942L170.518 263.92C171.464 264.928 172.784 265.5 174.166 265.5H200M119 201.5H157.5C160.261 201.5 162.5 199.261 162.5 196.5V192.5M193.5 201.5L184.8 191.93C183.964 191.01 183.5 189.811 183.5 188.567V176.5M193.5 201.5V170.25M193.5 170.25H212.5M231.5 176.5V175.25C231.5 172.489 229.261 170.25 226.5 170.25H222H212.5M212.5 170.25V176.5" stroke="#1191FF" stroke-width="3"/>
<path d="M200.5 131.5C200.5 135.366 197.366 138.5 193.5 138.5C189.634 138.5 186.5 135.366 186.5 131.5C186.5 127.634 189.634 124.5 193.5 124.5C197.366 124.5 200.5 127.634 200.5 131.5Z" stroke="#1191FF" stroke-width="3"/>
<circle cx="143" cy="217.5" r="4" stroke="#1191FF" stroke-width="3"/>
<circle cx="143" cy="217.5" r="4" stroke="#1191FF" stroke-width="3"/>
<path d="M210.998 265C210.998 267.761 208.759 270 205.998 270C203.237 270 200.998 267.761 200.998 265C200.998 262.239 203.237 260 205.998 260C208.759 260 210.998 262.239 210.998 265Z" stroke="#1191FF" stroke-width="3"/>
<circle cx="183.5" cy="170.5" r="5" stroke="#1191FF" stroke-width="3"/>
<circle cx="162.5" cy="186.5" r="5" stroke="#1191FF" stroke-width="3"/>
<circle cx="157" cy="217.5" r="4" stroke="#1191FF" stroke-width="3"/>
<circle cx="171" cy="217.5" r="4" stroke="#1191FF" stroke-width="3"/>
<circle cx="212.5" cy="181.5" r="4" stroke="#1191FF" stroke-width="3"/>
<circle cx="231.5" cy="181.5" r="4" stroke="#1191FF" stroke-width="3"/>
<circle cx="188" cy="244.5" r="7" stroke="#1191FF" stroke-width="3"/>
<circle cx="43.5" cy="317.5" r="21" stroke="#1191FF" stroke-width="3"/>
<circle cx="43.5" cy="317.5" r="28" stroke="#1191FF" stroke-width="3"/>
<path d="M50 297.5L43.8044 311.883M36 330H61M36 330H26M36 330L43.8044 311.883M41.5 296.5L33.284 315.482M27 330L33.284 315.482M22.5 319.5L33.284 315.482M61 306L43.8044 311.883" stroke="#1191FF" stroke-width="3"/>
<circle cx="128.5" cy="317.5" r="21" stroke="#1191FF" stroke-width="3"/>
<circle cx="128.5" cy="317.5" r="28" stroke="#1191FF" stroke-width="3"/>
<path d="M127 305.5V316M127 305.5V296.5M127 305.5H121M127 305.5H132.75C135.649 305.5 138 307.851 138 310.75V310.75C138 313.649 135.649 316 132.75 316H127M127 329.5V316M127 329.5V338M127 329.5H121M127 329.5H134.25C137.978 329.5 141 326.478 141 322.75V322.75C141 319.022 137.978 316 134.25 316H127M110.5 305.5H121M111 329.5H121M121 305.5V329.5M121 305.5V298V329.5M121 329.5V337.5" stroke="#1191FF" stroke-width="3"/>
<circle cx="213.5" cy="317.5" r="21" stroke="#1191FF" stroke-width="3"/>
<circle cx="213.5" cy="317.5" r="28" stroke="#1191FF" stroke-width="3"/>
<path d="M223.315 304.5H229.5L230.5 305.5L203 331M223.315 304.5H217.158M223.315 304.5L196.5 329.5M223.315 331H230M223.315 331C220.734 331 218.562 331 216.504 331M223.315 331H197C198.874 331 200.449 331 203 331M196.5 304.5H205.177H211M211 304.5V296M211 304.5H217.158M211 331V338.5M211 331C210.21 331 205.878 331 203 331M211 331C212.887 331 214.649 331 216.504 331M217.158 304.5V296.5M216.504 331V338.5" stroke="#1191FF" stroke-width="3"/>
<circle cx="299.5" cy="317.5" r="21" stroke="#1191FF" stroke-width="3"/>
<circle cx="299.5" cy="317.5" r="28" stroke="#1191FF" stroke-width="3"/>
<path d="M280 326.5H288V307.5M319.5 326.5H311.5V307.5M283 331H316M288 307.5V301L289.5 300L299.5 313L310 300L311.5 301V307.5M288 307.5L299.5 322.5L311.5 307.5" stroke="#1191FF" stroke-width="3"/>
<path d="M-0.5 276.5H85.5M342.5 276.5H256.375M342.5 276.5V360.5M342.5 276.5V0M171.5 276.5V360.5M171.5 276.5H256.375M171.5 276.5H85.5M256.375 276.5V360.5M85.5 276.5V360.5" stroke="#1191FF" stroke-width="3"/>
<path d="M207.5 0V151.5C207.5 154.261 209.739 156.5 212.5 156.5H342" stroke="#1191FF" stroke-width="3"/>
<path d="M342.5 146L341.655 146.943C341.298 147.392 340.867 147.805 340.372 148.174C337.103 150.609 331.803 150.609 328.534 148.174L326.678 146.791C322.384 143.593 315.422 143.593 311.128 146.791C306.834 149.99 299.872 149.99 295.578 146.791C291.284 143.593 284.322 143.593 280.028 146.791C275.733 149.99 268.771 149.99 264.477 146.791C260.183 143.593 253.221 143.593 248.927 146.791C244.633 149.99 237.671 149.99 233.377 146.791C229.083 143.593 222.121 143.593 217.827 146.791C215.026 148.878 211.09 149.603 207.5 148.968M342.5 133L341.655 133.943C341.298 134.392 340.867 134.805 340.372 135.174C337.103 137.609 331.803 137.609 328.534 135.174L326.678 133.791C322.384 130.593 315.422 130.593 311.128 133.791C306.834 136.99 299.872 136.99 295.578 133.791C291.284 130.593 284.322 130.593 280.028 133.791C275.733 136.99 268.771 136.99 264.477 133.791C260.183 130.593 253.221 130.593 248.927 133.791C244.633 136.99 237.671 136.99 233.377 133.791C229.083 130.593 222.121 130.593 217.827 133.791C215.026 135.878 211.09 136.603 207.5 135.968M342.5 119L341.655 119.943C341.298 120.392 340.867 120.805 340.372 121.174C337.103 123.609 331.803 123.609 328.534 121.174L326.678 119.791C322.384 116.593 315.422 116.593 311.128 119.791C306.834 122.99 299.872 122.99 295.578 119.791C291.284 116.593 284.322 116.593 280.028 119.791C275.733 122.99 268.771 122.99 264.477 119.791C260.183 116.593 253.221 116.593 248.927 119.791C244.633 122.99 237.671 122.99 233.377 119.791C229.083 116.593 222.121 116.593 217.827 119.791C215.026 121.878 211.09 122.603 207.5 121.968M342.5 107L341.655 107.943C341.298 108.392 340.867 108.805 340.372 109.174C337.103 111.609 331.803 111.609 328.534 109.174L326.678 107.791C322.384 104.593 315.422 104.593 311.128 107.791C306.834 110.99 299.872 110.99 295.578 107.791C291.284 104.593 284.322 104.593 280.028 107.791C275.733 110.99 268.771 110.99 264.477 107.791C260.183 104.593 253.221 104.593 248.927 107.791C244.633 110.99 237.671 110.99 233.377 107.791C229.083 104.593 222.121 104.593 217.827 107.791C215.026 109.878 211.09 110.603 207.5 109.968M342.5 94L341.655 94.9435C341.298 95.3919 340.867 95.8052 340.372 96.1737C337.103 98.6088 331.803 98.6088 328.534 96.1737L326.678 94.7914C322.384 91.5929 315.422 91.5929 311.128 94.7914C306.834 97.9899 299.872 97.9899 295.578 94.7914C291.284 91.5929 284.322 91.5929 280.028 94.7914C275.733 97.9899 268.771 97.9899 264.477 94.7914C260.183 91.5929 253.221 91.5929 248.927 94.7914C244.633 97.9899 237.671 97.9899 233.377 94.7914C229.083 91.5929 222.121 91.5929 217.827 94.7914C215.026 96.8776 211.09 97.6031 207.5 96.9678M342.5 82L341.655 82.9435C341.298 83.3919 340.867 83.8052 340.372 84.1737C337.103 86.6088 331.803 86.6088 328.534 84.1737L326.678 82.7914C322.384 79.5929 315.422 79.5929 311.128 82.7914C306.834 85.9899 299.872 85.9899 295.578 82.7914C291.284 79.5929 284.322 79.5929 280.028 82.7914C275.733 85.9899 268.771 85.9899 264.477 82.7914C260.183 79.5929 253.221 79.5929 248.927 82.7914C244.633 85.9899 237.671 85.9899 233.377 82.7914C229.083 79.5929 222.121 79.5929 217.827 82.7914C215.026 84.8776 211.09 85.6031 207.5 84.9678M342.5 69L341.655 69.9435C341.298 70.3919 340.867 70.8052 340.372 71.1737C337.103 73.6088 331.803 73.6088 328.534 71.1737L326.678 69.7914C322.384 66.5929 315.422 66.5929 311.128 69.7914C306.834 72.9899 299.872 72.9899 295.578 69.7914C291.284 66.5929 284.322 66.5929 280.028 69.7914C275.733 72.9899 268.771 72.9899 264.477 69.7914C260.183 66.5929 253.221 66.5929 248.927 69.7914C244.633 72.9899 237.671 72.9899 233.377 69.7914C229.083 66.5929 222.121 66.5929 217.827 69.7914C215.026 71.8776 211.09 72.6031 207.5 71.9678M342.5 56L341.655 56.9435C341.298 57.3919 340.867 57.8052 340.372 58.1737C337.103 60.6088 331.803 60.6088 328.534 58.1737L326.678 56.7914C322.384 53.5929 315.422 53.5929 311.128 56.7914C306.834 59.9899 299.872 59.9899 295.578 56.7914C291.284 53.5929 284.322 53.5929 280.028 56.7914C275.733 59.9899 268.771 59.9899 264.477 56.7914C260.183 53.5929 253.221 53.5929 248.927 56.7914C244.633 59.9899 237.671 59.9899 233.377 56.7914C229.083 53.5929 222.121 53.5929 217.827 56.7914C215.026 58.8776 211.09 59.6031 207.5 58.9678M342.5 43L341.655 43.9435C341.298 44.3919 340.867 44.8052 340.372 45.1737C337.103 47.6088 331.803 47.6088 328.534 45.1737L326.678 43.7914C322.384 40.5929 315.422 40.5929 311.128 43.7914C306.834 46.9899 299.872 46.9899 295.578 43.7914C291.284 40.5929 284.322 40.5929 280.028 43.7914C275.733 46.9899 268.771 46.9899 264.477 43.7914C260.183 40.5929 253.221 40.5929 248.927 43.7914C244.633 46.9899 237.671 46.9899 233.377 43.7914C229.083 40.5929 222.121 40.5929 217.827 43.7914C215.026 45.8776 211.09 46.6031 207.5 45.9678M342.5 31L341.655 31.9435C341.298 32.3919 340.867 32.8052 340.372 33.1737C337.103 35.6088 331.803 35.6088 328.534 33.1737L326.678 31.7914C322.384 28.5929 315.422 28.5929 311.128 31.7914C306.834 34.9899 299.872 34.9899 295.578 31.7914C291.284 28.5929 284.322 28.5929 280.028 31.7914C275.733 34.9899 268.771 34.9899 264.477 31.7914C260.183 28.5929 253.221 28.5929 248.927 31.7914C244.633 34.9899 237.671 34.9899 233.377 31.7914C229.083 28.5929 222.121 28.5929 217.827 31.7914C215.026 33.8776 211.09 34.6031 207.5 33.9678M342.5 18L341.655 18.9435C341.298 19.3919 340.867 19.8052 340.372 20.1737C337.103 22.6088 331.803 22.6088 328.534 20.1737L326.678 18.7914C322.384 15.5929 315.422 15.5929 311.128 18.7914C306.834 21.9899 299.872 21.9899 295.578 18.7914C291.284 15.5929 284.322 15.5929 280.028 18.7914C275.733 21.9899 268.771 21.9899 264.477 18.7914C260.183 15.5929 253.221 15.5929 248.927 18.7914C244.633 21.9899 237.671 21.9899 233.377 18.7914C229.083 15.5929 222.121 15.5929 217.827 18.7914C215.026 20.8776 211.09 21.6031 207.5 20.9678M342.5 4.99995L341.655 5.94346C341.298 6.39186 340.867 6.80517 340.372 7.17372C337.103 9.60876 331.803 9.60876 328.534 7.17372L326.678 5.79137C322.384 2.59288 315.422 2.59288 311.128 5.79137C306.834 8.98986 299.872 8.98986 295.578 5.79137C291.284 2.59288 284.322 2.59288 280.028 5.79137C275.733 8.98986 268.771 8.98986 264.477 5.79137C260.183 2.59288 253.221 2.59288 248.927 5.79137C244.633 8.98986 237.671 8.98986 233.377 5.79137C229.083 2.59288 222.121 2.59288 217.827 5.79137C215.026 7.87759 211.09 8.60307 207.5 7.96781" stroke="#1191FF" stroke-width="3"/>
<path d="M0 145.5H46.5C49.2614 145.5 51.5 147.739 51.5 150.5V195.5C51.5 198.261 53.7386 200.5 56.5 200.5H102.5C105.261 200.5 107.5 202.739 107.5 205.5V239.5C107.5 242.261 109.739 244.5 112.5 244.5H133.5C136.261 244.5 138.5 246.739 138.5 249.5V276.5" stroke="#1191FF" stroke-width="3"/>
<path d="M0 138.5H14.5C17.2614 138.5 19.5 136.261 19.5 133.5V98.5C19.5 95.7386 21.7386 93.5 24.5 93.5H25.5C28.2614 93.5 30.5 91.2614 30.5 88.5V39.5C30.5 36.7386 32.7386 34.5 35.5 34.5H63C65.4853 34.5 67.5 32.4853 67.5 30V30C67.5 27.5147 69.5147 25.5 72 25.5H153.5C156.261 25.5 158.5 27.7386 158.5 30.5V43.5C158.5 46.2614 160.739 48.5 163.5 48.5H193.5C196.261 48.5 198.5 46.2614 198.5 43.5V0" stroke="#1191FF" stroke-width="3"/>
<circle cx="12" cy="157" r="5.5" stroke="#1191FF" stroke-width="3"/>
<circle cx="12" cy="176" r="5.5" stroke="#1191FF" stroke-width="3"/>
<circle cx="12" cy="195" r="5.5" stroke="#1191FF" stroke-width="3"/>
<circle cx="12" cy="214" r="5.5" stroke="#1191FF" stroke-width="3"/>
<circle cx="12" cy="233" r="5.5" stroke="#1191FF" stroke-width="3"/>
<circle cx="12" cy="252" r="5.5" stroke="#1191FF" stroke-width="3"/>
<circle cx="12" cy="271" r="5.5" stroke="#1191FF" stroke-width="3"/>
<circle cx="34" cy="271" r="5.5" stroke="#1191FF" stroke-width="3"/>
<circle cx="34" cy="157" r="5.5" stroke="#1191FF" stroke-width="3"/>
<circle cx="34" cy="176" r="5.5" stroke="#1191FF" stroke-width="3"/>
<circle cx="34" cy="195" r="5.5" stroke="#1191FF" stroke-width="3"/>
<circle cx="34" cy="214" r="5.5" stroke="#1191FF" stroke-width="3"/>
<circle cx="55" cy="214" r="5.5" stroke="#1191FF" stroke-width="3"/>
<circle cx="76" cy="214" r="5.5" stroke="#1191FF" stroke-width="3"/>
<circle cx="97" cy="214" r="5.5" stroke="#1191FF" stroke-width="3"/>
<circle cx="97" cy="233" r="5.5" stroke="#1191FF" stroke-width="3"/>
<circle cx="76" cy="252" r="5.5" stroke="#1191FF" stroke-width="3"/>
<circle cx="55" cy="252" r="5.5" stroke="#1191FF" stroke-width="3"/>
<circle cx="55" cy="233" r="5.5" stroke="#1191FF" stroke-width="3"/>
<circle cx="76" cy="233" r="5.5" stroke="#1191FF" stroke-width="3"/>
<circle cx="55" cy="271" r="5.5" stroke="#1191FF" stroke-width="3"/>
<circle cx="97" cy="252" r="5.5" stroke="#1191FF" stroke-width="3"/>
<circle cx="76" cy="271" r="5.5" stroke="#1191FF" stroke-width="3"/>
<circle cx="97" cy="271" r="5.5" stroke="#1191FF" stroke-width="3"/>
<circle cx="118" cy="271" r="5.5" stroke="#1191FF" stroke-width="3"/>
<circle cx="118" cy="252" r="5.5" stroke="#1191FF" stroke-width="3"/>
<path d="M137.5 248.061V256.619C135.191 255.966 133.5 253.844 133.5 251.326C133.5 249.452 134.438 247.794 135.874 246.8L137.5 248.061Z" stroke="#1191FF" stroke-width="3"/>
<path d="M133.5 271C133.5 268.483 135.192 266.359 137.5 265.707V276.293C135.192 275.641 133.5 273.517 133.5 271Z" stroke="#1191FF" stroke-width="3"/>
<circle cx="34" cy="233" r="5.5" stroke="#1191FF" stroke-width="3"/>
<circle cx="34" cy="252" r="5.5" stroke="#1191FF" stroke-width="3"/>
<path d="M10.5 138.5L19.5 129.5M19.5 122.5L3.50001 138.5M19.5 108L-1.99999 129.5M19.5 115L-1.49998 136M19.5 101L-1.99999 122.5M30.5 74.5L-2.00001 107M30 83L-2.5 115.5M30.5 66.5L-2 99M30.5 58.5L-2 91M30 43L-2.5 75.5M30.5 50.5L-2 83M-2 67.5L30.5 35L66.9999 -1.49995M-2.5 43L42 -1.49992M58.5 -1.49992L-1.5 58.5M-1.5 50.4999L50.4999 -1.49992M-2.5 26.9999L25.9999 -1.49992M-2.5 35L34 -1.49992M38.5 34.5L74.5 -1.49995M46.4999 34.5L82.4999 -1.49995M90.4999 -1.49992L54.5 34.5M98.4999 -1.49995L71.5 25.5M62.5 34.5L67.5 29.5M79 25.5L106 -1.49992M86.5 25.5L113.5 -1.49992M118 25.5L145 -1.49995M94 25.5L121 -1.49989M102 25.5L129 -1.49995M110 25.5L137 -1.49989M126 25.5L153 -1.49995M142 25.5L169 -1.49989M134 25.5L161 -1.49989M150.5 25.5L177.5 -1.49989M157 26.9999L184 -1.52588e-05L185.5 -1.49989M193 -1.49995L158.5 33M158.5 40.5L198.5 0.500046M160.5 47L198.5 8.99998M168 48L198.5 17.5M176.5 48L198.5 26M185 48L198.5 34.5" stroke="#1191FF" stroke-width="3"/>
<path d="M218.5 276.5V226.5C218.5 223.739 220.739 221.5 223.5 221.5H235.915C238.058 221.5 239.929 222.891 240.841 224.83C252.822 250.314 295.017 250.8 306.598 223.836C307.188 222.463 308.503 221.5 309.998 221.5V221.5C311.932 221.5 313.5 219.932 313.5 217.998V156.5" stroke="#1191FF" stroke-width="3"/>
<path d="M227.5 275.5V221.5M235.5 221.5V275.5M243.5 275.5V229.5M251.5 237.5V275.5M259.5 275.5V241.5M266.5 243.5V275.5M274.5 275.5V244M281.5 243.5V275.5M289.5 275.5V241M296.5 237V275.5M304.5 275.5V228M311.5 221.5V275.5M319.5 275.5V156.5M326.5 156.5V275.5M334 275.5V156.5" stroke="#1191FF" stroke-width="3"/>
<path d="M1.5 338.5V21.5C1.5 10.4543 10.4543 1.5 21.5 1.5H598.5C609.546 1.5 618.5 10.4543 618.5 21.5V338.5C618.5 349.546 609.546 358.5 598.5 358.5H21.5C10.4543 358.5 1.5 349.546 1.5 338.5Z" stroke="#1191FF" stroke-width="3"/>
<path d="M570.5 -1L553.964 15.5355C553.027 16.4732 551.755 17 550.429 17H364.5C361.739 17 359.5 19.2386 359.5 22V337.5C359.5 340.261 361.739 342.5 364.5 342.5H619M619 329.5H377.5C374.739 329.5 372.5 327.261 372.5 324.5V29.5M386 29.5V311.5C386 314.261 388.239 316.5 391 316.5H619" stroke="#1191FF" stroke-width="3"/>
</g>
<defs>
<clipPath id="clip0">
<rect width="620" height="360" fill="white"/>
</clipPath>
</defs>
</svg>
