<svg width="317" height="56" viewBox="0 0 317 56" fill="none" xmlns="http://www.w3.org/2000/svg">
<path d="M1.06414 52.5741L27.9781 37.5181C28.5186 37.2157 29.1778 37.2174 29.7167 37.5225L43.0135 45.0505C44.4516 45.8647 44.0908 48.03 42.4664 48.3341L2.25571 55.8621C0.282844 56.2314 -0.687467 53.554 1.06414 52.5741Z" fill="#1191FF"/>
<path d="M27.9623 34.22V2.39625C27.9623 0.397411 25.1682 -0.0718094 24.515 1.81734L10.8736 41.2723C10.3415 42.8112 11.9928 44.1926 13.414 43.3975L27.0554 35.7663C27.6155 35.453 27.9623 34.8616 27.9623 34.22Z" fill="#0FB6FF"/>
<path d="M29.7344 34.2261V18.3116C29.7344 16.6703 31.7736 15.9111 32.8473 17.1527L59.8098 48.3321C61.1108 49.8367 59.3269 52.0129 57.5958 51.0329L48.1217 45.6691L30.6334 35.768C30.0778 35.4534 29.7344 34.8644 29.7344 34.2261Z" fill="#0ED9FE"/>
<path d="M69.8828 40.9808V12.713H81.162C84.6325 12.713 87.2668 13.6245 89.0649 15.4474C90.8756 17.2577 91.781 19.5898 91.781 22.4436C91.781 25.222 90.8693 27.4975 89.0461 29.2701C87.2228 31.0302 84.6199 31.9102 81.2374 31.9102H73.5231V39.2836C73.5231 40.415 72.9572 40.9808 71.8255 40.9808H69.8828ZM73.5231 28.8552H81.4449C83.5825 28.8552 85.236 28.2329 86.4054 26.9883C87.5749 25.7311 88.1596 24.2162 88.1596 22.4436C88.1596 20.6458 87.5434 19.0806 86.3111 17.748C85.0914 16.4028 83.3876 15.7302 81.1997 15.7302H73.5231V28.8552Z" fill="black"/>
<path d="M99.5481 40.9808V12.713H111.997C114.725 12.713 116.964 13.5868 118.711 15.3342C120.459 17.0817 121.333 19.3384 121.333 22.1042C121.333 24.5305 120.711 26.5357 119.466 28.1198C118.221 29.6913 116.53 30.7222 114.392 31.2125L121.654 40.9808H118.674C117.793 40.9808 117.096 40.6351 116.58 39.9436L110.45 31.4388H103.188V39.2836C103.188 40.415 102.623 40.9808 101.491 40.9808H99.5481ZM103.188 28.3084H111.337C113.323 28.3084 114.895 27.7929 116.052 26.762C117.209 25.7311 117.787 24.1785 117.787 22.1042C117.787 21.4881 117.687 20.8533 117.485 20.1995C117.297 19.5332 116.989 18.8481 116.561 18.144C116.146 17.4274 115.505 16.8491 114.637 16.4091C113.77 15.9565 112.757 15.7302 111.601 15.7302H103.188V28.3084Z" fill="black"/>
<path d="M143.661 41.5654C139.537 41.5654 136.098 40.1448 133.344 37.3035C130.59 34.4497 129.213 30.961 129.213 26.8375C129.213 22.739 130.59 19.2629 133.344 16.4091C136.098 13.5553 139.537 12.1284 143.661 12.1284C147.836 12.1284 151.3 13.5616 154.054 16.428C156.808 19.2818 158.185 22.7516 158.185 26.8375C158.185 30.961 156.808 34.4497 154.054 37.3035C151.3 40.1448 147.836 41.5654 143.661 41.5654ZM143.661 38.3218C146.654 38.3218 149.219 37.1841 151.357 34.9086C153.494 32.6205 154.563 29.9301 154.563 26.8375C154.563 23.7699 153.494 21.0984 151.357 18.8229C149.219 16.5474 146.654 15.4097 143.661 15.4097C140.694 15.4097 138.141 16.5537 136.004 18.8418C133.878 21.1173 132.816 23.7888 132.816 26.8563C132.816 29.9113 133.878 32.5891 136.004 34.8897C138.141 37.1778 140.694 38.3218 143.661 38.3218Z" fill="black"/>
<path d="M171.554 40.9808V15.7302H162.953V14.4102C162.953 13.2787 163.519 12.713 164.65 12.713H183.738V14.0142C183.738 15.1457 183.166 15.7177 182.022 15.7302H175.156V39.2836C175.156 40.415 174.59 40.9808 173.459 40.9808H171.554Z" fill="black"/>
<path d="M203.03 41.5654C198.905 41.5654 195.466 40.1448 192.712 37.3035C189.959 34.4497 188.582 30.961 188.582 26.8375C188.582 22.739 189.959 19.2629 192.712 16.4091C195.466 13.5553 198.905 12.1284 203.03 12.1284C207.204 12.1284 210.668 13.5616 213.422 16.428C216.176 19.2818 217.553 22.7516 217.553 26.8375C217.553 30.961 216.176 34.4497 213.422 37.3035C210.668 40.1448 207.204 41.5654 203.03 41.5654ZM203.03 38.3218C206.022 38.3218 208.587 37.1841 210.725 34.9086C212.863 32.6205 213.932 29.9301 213.932 26.8375C213.932 23.7699 212.863 21.0984 210.725 18.8229C208.587 16.5474 206.022 15.4097 203.03 15.4097C200.062 15.4097 197.509 16.5537 195.372 18.8418C193.247 21.1173 192.184 23.7888 192.184 26.8563C192.184 29.9113 193.247 32.5891 195.372 34.8897C197.509 37.1778 200.062 38.3218 203.03 38.3218Z" fill="black"/>
<path d="M239.032 41.6031C234.858 41.6031 231.393 40.1825 228.64 37.3412C225.886 34.4874 224.509 31.005 224.509 26.894C224.509 22.7705 225.886 19.2881 228.64 16.4468C231.393 13.593 234.858 12.1661 239.032 12.1661C241.61 12.1661 243.949 12.7507 246.049 13.9199C248.149 15.0765 249.827 16.6417 251.085 18.6155L249.161 19.4264C248.281 19.791 247.507 19.5961 246.841 18.8418C244.779 16.604 242.176 15.4851 239.032 15.4851C235.914 15.4851 233.317 16.5977 231.243 18.8229C229.18 21.0356 228.149 23.7259 228.149 26.894C228.149 30.0496 229.18 32.7399 231.243 34.9652C233.317 37.1778 235.914 38.2841 239.032 38.2841C242.126 38.2841 244.729 37.1589 246.841 34.9086C247.558 34.1166 248.344 33.9406 249.199 34.3806L251.047 35.2669C249.865 37.2532 248.256 38.8059 246.219 39.9247C244.182 41.0436 241.786 41.6031 239.032 41.6031Z" fill="black"/>
<path d="M272.885 41.5654C268.761 41.5654 265.321 40.1448 262.568 37.3035C259.814 34.4497 258.437 30.961 258.437 26.8375C258.437 22.739 259.814 19.2629 262.568 16.4091C265.321 13.5553 268.761 12.1284 272.885 12.1284C277.06 12.1284 280.524 13.5616 283.278 16.428C286.031 19.2818 287.408 22.7516 287.408 26.8375C287.408 30.961 286.031 34.4497 283.278 37.3035C280.524 40.1448 277.06 41.5654 272.885 41.5654ZM272.885 38.3218C275.878 38.3218 278.443 37.1841 280.58 34.9086C282.718 32.6205 283.787 29.9301 283.787 26.8375C283.787 23.7699 282.718 21.0984 280.58 18.8229C278.443 16.5474 275.878 15.4097 272.885 15.4097C269.917 15.4097 267.365 16.5537 265.227 18.8418C263.102 21.1173 262.04 23.7888 262.04 26.8563C262.04 29.9113 263.102 32.5891 265.227 34.8897C267.365 37.1778 269.917 38.3218 272.885 38.3218Z" fill="black"/>
<path d="M296.1 40.9808V12.713H298.042C299.174 12.713 299.74 13.2787 299.74 14.4102V38.0013H313.867C314.999 38.0013 315.565 38.567 315.565 39.6985V40.9808H296.1Z" fill="black"/>
<path d="M76.2927 49.3904C76.2927 49.8715 76.1597 50.2881 75.8937 50.6401C75.6276 50.9882 75.2834 51.1701 74.8609 51.1857V51.1974C75.3342 51.2209 75.7509 51.4204 76.1108 51.7959C76.4707 52.1713 76.6506 52.6642 76.6506 53.2743C76.6506 53.7397 76.5704 54.1406 76.41 54.477C76.2497 54.8134 76.0267 55.0735 75.7411 55.2573C75.4594 55.4411 75.1523 55.5761 74.8198 55.6621C74.4873 55.7443 74.1196 55.7853 73.7166 55.7853H69.8496V46.9909H73.5875C75.391 46.987 76.2927 47.7868 76.2927 49.3904ZM71.5337 50.5579H73.4174C74.2115 50.5579 74.6086 50.1942 74.6086 49.4667C74.6086 48.8096 74.2154 48.4811 73.4291 48.4811H71.5337V50.5579ZM73.5993 54.2951C74.5108 54.2951 74.9665 53.9236 74.9665 53.1804C74.9665 52.4334 74.499 52.0599 73.5641 52.0599H71.5337V54.2951H73.5993Z" fill="black"/>
<path d="M84.1077 47.5306C84.315 47.1708 84.63 46.9909 85.0525 46.9909H86.3904L83.0339 52.4588V54.9933C83.0339 55.5213 82.7698 55.7853 82.2417 55.7853H81.3556V52.4588L78.0226 46.9909H79.3605C79.7869 46.9909 80.1038 47.1708 80.3111 47.5306L82.1947 50.7281L84.1077 47.5306Z" fill="black"/>
<path d="M94.4565 55.2104C94.2727 55.5937 93.9597 55.7853 93.5176 55.7853H92.3382L96.8331 46.9909H97.0032L101.498 55.7853H100.319C99.8766 55.7853 99.5637 55.5937 99.3798 55.2104L98.9866 54.4007H94.8379L94.4565 55.2104ZM96.9211 50.2822L95.6595 52.9399H98.171L96.9211 50.2822Z" fill="black"/>
<path d="M103.064 55.7853L106.332 51.438L102.993 46.9909H104.484C104.898 46.9909 105.223 47.1552 105.458 47.4837L107.377 50.1649L109.301 47.4837C109.532 47.1552 109.857 46.9909 110.276 46.9909H111.754L108.427 51.438L111.696 55.7853H110.193C109.787 55.7853 109.466 55.621 109.231 55.2925L107.377 52.7228L105.528 55.2925C105.297 55.621 104.977 55.7853 104.566 55.7853H103.064Z" fill="black"/>
<path d="M115.01 46.9909C115.538 46.9909 115.802 47.2549 115.802 47.7829V55.7853H114.91C114.382 55.7853 114.118 55.5213 114.118 54.9933V46.9909H115.01Z" fill="black"/>
<path d="M119.134 53.9842C119.4 53.6009 119.76 53.5285 120.214 53.7671C121.031 54.1934 121.776 54.4047 122.449 54.4007C123.036 54.4007 123.462 54.303 123.729 54.1074C123.998 53.9118 124.133 53.6615 124.133 53.3564C124.133 53.1961 124.092 53.0553 124.01 52.934C123.932 52.8089 123.842 52.7091 123.74 52.6348C123.642 52.5566 123.488 52.4842 123.277 52.4177C123.069 52.3473 122.895 52.2965 122.754 52.2652C122.618 52.2339 122.412 52.1889 122.138 52.1303C121.274 51.9621 120.661 51.7978 120.302 51.6374C119.292 51.1877 118.788 50.468 118.788 49.4784C118.788 48.9895 118.889 48.5652 119.093 48.2053C119.296 47.8455 119.568 47.5737 119.908 47.3898C120.249 47.2021 120.603 47.0672 120.971 46.985C121.342 46.899 121.728 46.856 122.127 46.856C122.815 46.856 123.41 46.9518 123.91 47.1434C124.411 47.3312 124.91 47.6128 125.407 47.9883L124.926 48.6453C124.652 49.0287 124.288 49.1049 123.834 48.8742C123.2 48.5691 122.571 48.4185 121.945 48.4224C121.553 48.4224 121.209 48.4928 120.912 48.6336C120.618 48.7705 120.472 48.9954 120.472 49.3083C120.472 49.4608 120.517 49.6016 120.607 49.7307C120.701 49.8598 120.8 49.9595 120.906 50.0299C121.016 50.1003 121.182 50.1727 121.405 50.247C121.632 50.3174 121.806 50.3683 121.927 50.3995C122.052 50.4269 122.248 50.468 122.514 50.5227C122.553 50.5306 122.696 50.5599 122.942 50.6107C123.193 50.6577 123.371 50.6929 123.476 50.7164C123.586 50.7398 123.762 50.7907 124.004 50.8689C124.251 50.9432 124.439 51.0195 124.568 51.0977C124.697 51.172 124.853 51.2796 125.037 51.4204C125.221 51.5573 125.36 51.7079 125.454 51.8721C125.552 52.0364 125.636 52.2378 125.706 52.4764C125.78 52.7111 125.818 52.9731 125.818 53.2626C125.818 54.1426 125.516 54.8114 124.914 55.269C124.315 55.7267 123.504 55.9555 122.479 55.9555C121.653 55.9555 120.963 55.842 120.407 55.6152C119.856 55.3844 119.29 55.052 118.711 54.6178L119.134 53.9842Z" fill="black"/>
</svg>
