<svg xmlns="http://www.w3.org/2000/svg" width="933.333" height="933.333" version="1" viewBox="0 0 700 700"><defs/><path d="M308.7 44.5c-5 1.3-9.9 5.1-12.2 9.5-.7 1.4-2.7 6.8-4.5 12-4.4 12.8-9.3 27-19 55-4.5 12.9-10.8 31.1-14 40.5-3.2 9.3-8.2 23.7-11 32-2.9 8.2-7.2 20.6-9.5 27.5-2.4 6.9-7.5 21.7-11.5 33-3.9 11.3-8.2 23.6-9.5 27.5-1.3 3.8-6.5 18.9-11.5 33.5-5.1 14.6-11.4 32.8-14 40.5-7 20.3-20.5 59.2-30.5 88-17 49.1-19.7 57-20.4 60-1.8 7.5 1.7 16 8.7 21 3.8 2.6 5.2 3 11 3 6.5 0 7.1-.2 20.2-7.6 7.4-4.2 16-9 19-10.6 3-1.7 8.4-4.7 12-6.8 3.6-2 9-5.1 12-6.7 3-1.7 10.5-5.9 16.5-9.3 6.1-3.4 13.5-7.5 16.5-9.2 42.3-23.5 69-38.8 71.3-40.9 1.5-1.4 3.5-4 4.5-5.8 1.6-2.9 1.7-15.2 1.7-187.1 0-101.2-.3-185.2-.7-186.7-1.8-6.1-9.4-12.1-16.8-13-1.9-.3-5.7 0-8.3.7zm12 12.4c1.2.9 2.4 2.9 2.7 4.5 1 5 .7 361.3-.4 364-1.2 3.2-2 3.7-39.5 24.6-17 9.5-32.3 18.1-34 19-1.6.9-14.9 8.3-29.5 16.5-14.6 8.1-28.5 15.9-31 17.3-27.3 15.3-27.4 15.4-32.3 13.1-2.6-1.2-5.2-5-5.2-7.8 0-.9 2.6-9.3 5.8-18.6 3.2-9.4 8.5-24.7 11.7-34 3.2-9.4 9.9-28.9 15-43.5 5-14.6 9.5-27.6 10-29 .5-1.4 4.5-13.1 9-26s10.8-31.2 14-40.5c3.2-9.4 9.1-26.2 13-37.5 4-11.3 8-23 9-26s5.7-16.8 10.5-30.5c4.8-13.8 11.1-32.2 14.2-41 3-8.8 7.2-21 9.3-27 9.4-27 24.3-70.4 25.7-74.5.8-2.5 1.8-5.4 2.3-6.5.5-1.1 1.4-3.8 2.1-6 2.1-7 4.7-11.3 7.6-12.3 3.3-1.2 6.9-.5 10 1.7zM356.1 224c-6.3 2.1-11.4 7.5-12.7 13.3-1.5 6.7-1.1 187.4.4 191.8 1.6 4.7 6.1 8.9 14.9 13.8 3.9 2.2 8.7 4.9 10.5 6 10.5 6 24 13.7 28.8 16.4 5.2 2.8 62.3 35.1 70 39.5 16.6 9.4 36.5 20.7 49 27.7 4.1 2.3 9.8 5.6 12.6 7.3 2.8 1.6 7.8 4.5 11 6.3 3.3 1.7 10.9 6 16.9 9.4 6.1 3.4 13 7.3 15.5 8.7 2.5 1.4 11 6.3 19 10.8 8 4.6 16.5 9.4 19 10.8 2.5 1.4 9 5 14.5 8.2 35.8 20.4 35 20 40.8 20 14.9-.1 24.7-16.4 17.8-29.7-1.1-2.1-3-4.9-4.3-6.3-1.3-1.4-8.1-9.2-15.1-17.3-7-8.2-13.9-16-15.2-17.5-1.3-1.5-9.9-11.5-19.2-22.3-9.2-10.7-20.9-24.2-25.9-30-5-5.7-9.9-11.5-11-12.8-1-1.3-2.6-3.1-3.5-4-.8-.9-7.1-8.1-14-16.1-10.6-12.3-31.5-36.6-51.3-59.4-2.8-3.3-5.6-6.4-6.1-7-.6-.6-5.1-5.8-10-11.6-5-5.8-9.2-10.7-9.5-11-.3-.3-3.2-3.6-6.5-7.5-3.3-3.8-7.2-8.3-8.6-10-2.5-2.8-52.4-60.6-80.9-93.5-6.8-8-12.7-14.7-13-15-.3-.3-3-3.4-6-7-6.9-8.1-8.7-9.8-12.7-11.5-5-2.3-9.6-2.4-15.2-.5zm10.2 9.9c1.3.2 5.8 5 20.1 21.6 7.6 8.8 15.1 17.3 16.5 19 1.4 1.6 12.5 14.5 24.6 28.5 12 14 22.2 25.7 22.5 26 .3.3 7.5 8.6 16 18.5s20.1 23.4 25.9 30c5.7 6.6 11.6 13.4 13 15 2.7 3.1 5.8 6.8 14.8 17.1 2.8 3.2 8.4 9.7 12.4 14.4 8.2 9.7 26.1 30.2 26.9 31 .3.3 7.2 8.4 15.5 18 8.2 9.6 15.2 17.7 15.5 18 .3.3 7.5 8.6 16 18.5 35.5 41.2 42.5 49.3 47.5 55 22.2 25.4 21.9 24.9 21.7 30.5-.2 3.3-5.4 8-8.9 8-1.6 0-16.5-7.8-38.2-20.1-19.6-11.1-37.6-21.3-40.1-22.7-2.5-1.3-5.8-3.2-7.5-4.2-1.6-1-5-2.9-7.5-4.3-2.5-1.3-7.7-4.3-11.7-6.6-3.9-2.2-8.7-4.9-10.5-5.9-1.8-1.1-11.6-6.6-21.8-12.4-24.7-14-70.4-39.9-76-43-2.5-1.4-10.8-6.1-18.5-10.5-19.1-10.9-60.2-34.2-64.5-36.5-12.9-7.2-14.3-8.2-15.4-11.2-1-2.4-1.2-24.6-1.2-94.6l.1-91.4 3.1-3.2c3-2.9 4.1-3.2 9.7-2.5zM324.5 451c-5.2 2.7-10.5 5.6-11.8 6.4-1.2.7-4.7 2.7-7.7 4.3-3 1.7-14.7 8.2-26 14.5-39.9 22.5-64.5 36.2-75.2 42.1-3.6 2-34.4 19.3-49.8 27.9-16.9 9.5-28.3 15.9-33 18.5-3 1.6-20.6 11.4-39 21.8-18.4 10.3-39.1 21.9-46 25.8-15.1 8.4-18.8 11.7-20.6 18.6-1 4.2-1.1 6 0 10C18 651 25 656.5 35 656.3c3 0 28.2-4.4 56-9.6 27.8-5.3 52.1-9.9 54-10.2 1.9-.3 9.1-1.7 16-3 6.9-1.4 14.1-2.7 16-3 1.9-.3 5.3-1 7.5-1.5s6-1.1 8.5-1.5c2.5-.3 5.2-.8 6-1 1.2-.4 19.6-3.8 31.4-5.9 1.6-.3 5.2-1 8-1.6 8.2-1.7 16.5-3.2 24.6-4.5 1.9-.3 4.2-.8 5-1 .8-.2 3.1-.7 5-1 1.9-.3 8.2-1.5 14-2.6 5.8-1.1 13.9-2.6 18-3.4 4.1-.8 13.6-2.5 21-3.9s14.9-2.7 16.5-3c1.7-.3 7.5-1.4 13-2.5s12.7-2.5 16-3c3.3-.6 7.1-1.3 8.5-1.6 1.4-.3 8.8-1.7 16.5-3 7.7-1.4 16-3 18.5-3.5s5.6-1.2 7-1.4c6-1 20.9-3.7 25-4.6 2.5-.5 5.6-1.2 7-1.4 1.4-.2 3.6-.7 5-1 1.4-.3 4.1-.8 6-1 1.9-.3 6.7-1.2 10.5-2 3.9-.8 8.8-1.7 11-2 5.7-.9 12.7-3.4 15-5.4 5.2-4.3 6.9-8.3 6.9-15.7.1-11.5-2-13.9-23.4-25.8-2.5-1.4-33.3-18.8-68.5-38.7-35.2-20-66.2-37.3-69-38.6-7.8-3.7-11.9-3.2-23 2.6zm33 15.1c8.8 5.1 18 10.3 20.5 11.7 2.5 1.4 21.5 12.1 42.3 23.9 42.9 24.3 43.5 24.6 48 27.1 1.7 1.1 8.2 4.7 14.2 8.1 12.4 7 15.5 9.8 15.5 14.2 0 5.8-3.6 9.1-11 10.2-1.9.3-7.3 1.3-12 2.2-4.7.9-11.2 2-14.4 2.6-3.3.5-6.2 1.2-6.5 1.4-.4.2-2.7.6-5.1 1-2.5.3-7.6 1.3-11.5 2-3.8.8-8.8 1.7-11 2-2.2.4-4.8.8-5.7 1.1-.9.3-2.5.6-3.5.8-1 .2-3.6.7-5.8 1.1-2.2.4-5.1.9-6.5 1.1-2.6.5-35.6 6.7-45 8.4-3 .6-13.8 2.7-24 4.6-10.2 1.9-19.6 3.6-21 3.9-2.5.5-11.6 2.2-15.5 2.9-2.3.4-9.7 1.9-10.5 2.1-.3 0-2.7.5-5.5 1-2.7.5-5.2.9-5.5 1-.3.1-2.5.5-5 .9s-11.4 2.1-19.9 3.7c-8.5 1.6-16.8 3.2-18.5 3.4-1.7.3-7.8 1.5-13.6 2.6s-11.6 2.2-13 2.5c-1.4.2-6.1 1.1-10.5 1.9-4.4.8-9.1 1.7-10.5 1.9-1.4.3-5 1-8 1.6-3 .6-7 1.3-8.9 1.6-1.8.3-4.3.8-5.5 1-3.2.7-27.7 5.2-31.6 5.9-1.9.3-4.2.8-5 1-.8.2-3.1.7-5 1-1.9.3-5.7 1-8.5 1.5-2.7.6-9.7 1.9-15.5 3-5.8 1-16.3 3-23.5 4.4-7.1 1.4-15 2.8-17.5 3.1-2.4.4-4.7.8-5.1 1-.8.5-13.5 2.7-17.8 3-6.3.5-11.5-7.2-8.8-13.2 1.2-2.6 2.2-3.4 14.2-10 5-2.8 22.5-12.6 39-21.8 16.5-9.2 32-17.9 34.5-19.3 2.5-1.4 7.4-4.2 11-6.2 7-4 12.9-7.3 23-12.8 3.6-1.9 7-3.8 7.5-4.2.6-.4 3.5-2.1 6.5-3.7 15.3-8.4 24.6-13.6 25.5-14.3.6-.4 3.9-2.3 7.5-4.2 8.7-4.8 12.1-6.6 44-24.6 15.1-8.5 29.8-16.7 32.5-18.2 2.8-1.5 6.6-3.6 8.5-4.7 1.9-1.1 13.9-7.7 26.5-14.8 12.7-7 24.4-13.6 26-14.6 5.3-3.2 8-2.5 25 7.2z"/></svg>