<svg xmlns="http://www.w3.org/2000/svg" fill="none" viewBox="0 0 620 277"><defs/><g clip-path="url(#clip0)"><path stroke="#1191FF" stroke-width="3" d="M103 182c-3.984 4-10.444 4-14.429 0-3.984-4-10.444-4-14.428 0s-10.444 4-14.429 0c-3.984-4-10.444-4-14.428 0-3.985 4-10.444 4-14.429 0-3.984-4-10.444-4-14.428 0-3.985 4-10.445 4-14.429 0m101 11c-3.984 4-10.444 4-14.429 0-3.984-4-10.444-4-14.428 0s-10.444 4-14.429 0c-3.984-4-10.444-4-14.428 0-3.985 4-10.444 4-14.429 0-3.984-4-10.444-4-14.428 0-3.985 4-10.445 4-14.429 0m101 11c-3.984 4-10.444 4-14.429 0-3.984-4-10.444-4-14.428 0s-10.444 4-14.429 0c-3.984-4-10.444-4-14.428 0-3.985 4-10.444 4-14.429 0-3.984-4-10.444-4-14.428 0-3.985 4-10.445 4-14.429 0m101 11c-3.984 4-10.444 4-14.429 0-3.984-4-10.444-4-14.428 0s-10.444 4-14.429 0c-3.984-4-10.444-4-14.428 0-3.985 4-10.444 4-14.429 0-3.984-4-10.444-4-14.428 0-3.985 4-10.445 4-14.429 0M493 7c-4.142-4-10.858-4-15 0-4.142 4-10.858 4-15 0-4.142-4-10.858-4-15 0-4.142 4-10.858 4-15 0-4.142-4-10.858-4-15 0m75 9c-4.142-4-10.858-4-15 0-4.142 4-10.858 4-15 0-4.142-4-10.858-4-15 0-4.142 4-10.858 4-15 0-4.142-4-10.858-4-15 0m75 9c-4.142-4-10.858-4-15 0-4.142 4-10.858 4-15 0-4.142-4-10.858-4-15 0-4.142 4-10.858 4-15 0-4.142-4-10.858-4-15 0m75 9c-4.142-4-10.858-4-15 0-4.142 4-10.858 4-15 0-4.142-4-10.858-4-15 0-4.142 4-10.858 4-15 0-4.142-4-10.858-4-15 0m75 9c-4.142-4-10.858-4-15 0-4.142 4-10.858 4-15 0-4.142-4-10.858-4-15 0-4.142 4-10.858 4-15 0-4.142-4-10.858-4-15 0m75 9c-4.142-4-10.858-4-15 0-4.142 4-10.858 4-15 0-4.142-4-10.858-4-15 0-4.142 4-10.858 4-15 0-4.142-4-10.858-4-15 0M103 226c-3.984 4-10.444 4-14.429 0-3.984-4-10.444-4-14.428 0s-10.444 4-14.429 0c-3.984-4-10.444-4-14.428 0-3.985 4-10.444 4-14.429 0-3.984-4-10.444-4-14.428 0-3.985 4-10.445 4-14.429 0m101 11c-3.984 4-10.444 4-14.429 0-3.984-4-10.444-4-14.428 0s-10.444 4-14.429 0c-3.984-4-10.444-4-14.428 0-3.985 4-10.444 4-14.429 0-3.984-4-10.444-4-14.428 0-3.985 4-10.445 4-14.429 0m101 11c-3.984 4-10.444 4-14.429 0-3.984-4-10.444-4-14.428 0s-10.444 4-14.429 0c-3.984-4-10.444-4-14.428 0-3.985 4-10.444 4-14.429 0-3.984-4-10.444-4-14.428 0-3.985 4-10.445 4-14.429 0m101 11c-3.984 4-10.444 4-14.429 0-3.984-4-10.444-4-14.428 0s-10.444 4-14.429 0c-3.984-4-10.444-4-14.428 0-3.985 4-10.444 4-14.429 0-3.984-4-10.444-4-14.428 0-3.985 4-10.445 4-14.429 0m101 11c-3.984 4-10.444 4-14.429 0-3.984-4-10.444-4-14.428 0s-10.444 4-14.429 0c-3.984-4-10.444-4-14.428 0-3.985 4-10.444 4-14.429 0-3.984-4-10.444-4-14.428 0-3.985 4-10.445 4-14.429 0"/><rect width="114" height="114" x="69.5" y="50.5" stroke="#1191FF" stroke-width="3" rx="3.5"/><rect width="102" height="102" x="75.5" y="56.5" stroke="#1191FF" stroke-width="3" rx="1.5"/><rect width="76" height="76" x="197.5" y="128.5" stroke="#1191FF" stroke-width="3" rx="1.5"/><rect width="68" height="68" x="544.5" y="7.5" stroke="#1191FF" stroke-width="3" rx="1.5"/><rect width="56" height="56" x="431.5" y="69.5" stroke="#1191FF" stroke-width="3" rx="1.5"/><rect width="44" height="44" x="437.5" y="75.5" stroke="#1191FF" stroke-width="3" rx="1.5"/><rect width="32" height="32" x="443.5" y="81.5" stroke="#1191FF" stroke-width="3" rx="1.5"/><rect width="20" height="20" x="449.5" y="87.5" stroke="#1191FF" stroke-width="3" rx="1.5"/><rect width="8" height="8" x="455.5" y="93.5" stroke="#1191FF" stroke-width="3" rx="1.5"/><rect width="59" height="59" x="118.5" y="178.5" stroke="#1191FF" stroke-width="3" rx="1.5"/><rect width="124" height="124" x="363.5" y="145.5" stroke="#1191FF" stroke-width="3" rx="1.5"/><rect width="50" height="50" x="293.5" y="89.5" stroke="#1191FF" stroke-width="3" rx="1.5"/><rect width="48" height="48" x="7.5" y="7.5" stroke="#1191FF" stroke-width="3" rx="1.5"/><rect width="88" height="88" x="191.5" y="122.5" stroke="#1191FF" stroke-width="3" rx="3.5"/><rect width="71" height="71" x="112.5" y="172.5" stroke="#1191FF" stroke-width="3" rx="3.5"/><rect width="88" height="88" x="501.5" y="89.5" stroke="#1191FF" stroke-width="3" rx="3.5"/><rect width="80" height="80" x="538.5" y="1.5" stroke="#1191FF" stroke-width="3" rx="6.5"/><rect width="68" height="68" x="425.5" y="63.5" stroke="#1191FF" stroke-width="3" rx="3.5"/><rect width="102" height="103" x="1.5" y="172.5" stroke="#1191FF" stroke-width="3" rx="6.5"/><rect width="60" height="60" x="1.5" y="1.5" stroke="#1191FF" stroke-width="3" rx="6.5"/><rect width="62" height="62" x="287.5" y="83.5" stroke="#1191FF" stroke-width="3" rx="3.5"/><rect width="32" height="32" x="385.5" y="99.5" stroke="#1191FF" stroke-width="3" rx="3.5"/><rect width="34" height="34" x="191.5" y="80.5" stroke="#1191FF" stroke-width="3" rx="3.5"/><rect width="20" height="20" x="357.5" y="111.5" stroke="#1191FF" stroke-width="3" rx="3.5"/><rect width="15" height="15" x="233.5" y="99.5" stroke="#1191FF" stroke-width="3" rx="3.5"/><rect width="20" height="20" x="69.5" y="22.5" stroke="#1191FF" stroke-width="3" rx="3.5"/><rect width="20" height="20" x="41.5" y="100.5" stroke="#1191FF" stroke-width="3" rx="3.5"/><rect width="20" height="20" x="329.5" y="203.5" stroke="#1191FF" stroke-width="3" rx="3.5"/><rect width="42" height="42" x="307.5" y="153.5" stroke="#1191FF" stroke-width="3" rx="3.5"/><rect width="12" height="12" x="287.5" y="153.5" stroke="#1191FF" stroke-width="3" rx="3.5"/><rect width="29" height="29" x="501.5" y="52.5" stroke="#1191FF" stroke-width="3" rx="3.5"/><rect width="17" height="17" x="513.5" y="27.5" stroke="#1191FF" stroke-width="3" rx="3.5"/><rect width="21" height="21" x="597.5" y="89.5" stroke="#1191FF" stroke-width="3" rx="3.5"/><rect width="42" height="42" x="501.5" y="185.5" stroke="#1191FF" stroke-width="3" rx="3.5"/><rect width="36" height="36" x="25.5" y="128.5" stroke="#1191FF" stroke-width="3" rx="3.5"/><rect width="136" height="136" x="357.5" y="139.5" stroke="#1191FF" stroke-width="3" rx="3.5"/><path stroke="#1191FF" stroke-width="3" d="M53.5 120.5v8m0 36v8m130 19h8m-79 0h-9m-42-159h8m10 10v8m104 47h8m34 10h8m-32 7v8m86 37h-8m20 0h8m33-6v-8m0 50v8m9-82h8m20 0h8m32 0h8m76 85h-8m-34-75v8m64 46v-8m0-88v-8m0-29v-8m74 56h-8m19-11v-8m-604.605 91c3.254 2 7.385 2 10.64 0m18.036-.114a10.18 10.18 0 0011.002 0m18.036.114c3.255 2 7.385 2 10.64 0m18.251.021a10.185 10.185 0 0010.572 0m416.865 4.979a17.962 17.962 0 00-1.307-5.388 18.02 18.02 0 00-3.902-5.84 18.02 18.02 0 00-5.84-3.902 17.962 17.962 0 00-5.388-1.307m30.465 16.437a31.987 31.987 0 00-9.338-21.127 31.987 31.987 0 00-21.127-9.338m44.476 30.465a46.002 46.002 0 00-44.476-44.476m58.481 44.476a58.187 58.187 0 00-4.548-21.078 58.935 58.935 0 00-13.007-19.141 60.06 60.06 0 00-19.465-12.79 60.883 60.883 0 00-21.461-4.473m72.722 57.482a71.967 71.967 0 00-5.636-26.436 72.928 72.928 0 00-16.092-23.683 74.34 74.34 0 00-24.085-15.824 75.287 75.287 0 00-26.909-5.542m86.487 71.485a86.138 86.138 0 00-6.686-31.793 86.914 86.914 0 00-19.076-28.225 88.065 88.065 0 00-28.549-18.86 88.867 88.867 0 00-32.176-6.61m47.5-2.58a102.888 102.888 0 0123.832 17.564 101.957 101.957 0 0116.668 21.605v-26.15a117.685 117.685 0 00-13.359-13.02"/><rect width="60" height="107" x="372.5" y="153.5" stroke="#1191FF" stroke-width="3" rx="3.471"/><path stroke="#1191FF" stroke-width="3" d="M378.447 159.646c0-.584.474-1.058 1.058-1.058h46.046c.584 0 1.058.474 1.058 1.058v93.796c0 .584-.474 1.058-1.058 1.058h-46.046a1.058 1.058 0 01-1.058-1.058v-93.796zm4.587 18.854H422m0 6h-38.966m0 6H422m0 6h-38.966m-.034 6h38.966"/><mask id="a" fill="#fff"><rect width="25" height="13" x="383" y="207" rx="1.65"/></mask><rect width="25" height="13" x="383" y="207" stroke="#1191FF" stroke-width="6" mask="url(#a)" rx="1.65"/><mask id="b" fill="#fff"><rect width="39" height="13" x="383" y="237" rx="1.65"/></mask><rect width="39" height="13" x="383" y="237" stroke="#1191FF" stroke-width="6" mask="url(#b)" rx="1.65"/><path stroke="#1191FF" stroke-width="3" d="M412.5 208.65a.15.15 0 01.15-.15h7.7a.15.15 0 01.15.15v23.7a.15.15 0 01-.15.15h-7.7a.15.15 0 01-.15-.15v-23.7z"/><mask id="c" fill="#fff"><rect width="11" height="11" x="383" y="223" rx="1.65"/></mask><rect width="11" height="11" x="383" y="223" stroke="#1191FF" stroke-width="6" mask="url(#c)" rx="1.65"/><mask id="d" fill="#fff"><rect width="11" height="11" x="397" y="223" rx="1.65"/></mask><rect width="11" height="11" x="397" y="223" stroke="#1191FF" stroke-width="6" mask="url(#d)" rx="1.65"/><mask id="e" fill="#fff"><rect width="11" height="11" x="397" y="163" rx="1.65"/></mask><rect width="11" height="11" x="397" y="163" stroke="#1191FF" stroke-width="6" mask="url(#e)" rx="1.65"/><path stroke="#1191FF" stroke-width="3" d="M384.5 164.65a.15.15 0 01.15-.15h7.7a.15.15 0 01.15.15v7.7a.15.15 0 01-.15.15h-7.7a.15.15 0 01-.15-.15v-7.7zm28 0a.15.15 0 01.15-.15h7.7a.15.15 0 01.15.15v7.7a.15.15 0 01-.15.15h-7.7a.15.15 0 01-.15-.15v-7.7zm59.121 9.767c0 7.518-6.071 13.603-13.548 13.603s-13.548-6.085-13.548-13.603 6.071-13.604 13.548-13.604 13.548 6.086 13.548 13.604z"/><path stroke="#1191FF" stroke-width="3" d="M448.561 180.264l8.872-5.234a.687.687 0 01.703.003l4.418 2.654a.687.687 0 01-.223 1.264l-13.29 2.58c-.758.147-1.145-.874-.48-1.267zm9.587-6.47v-10.879c0-.782-1.097-.957-1.34-.214l-4.422 13.487a.688.688 0 001.003.806l4.421-2.608a.687.687 0 00.338-.592z"/><path stroke="#1191FF" stroke-width="3" d="M458.141 174.624v-5.506c0-.641.799-.934 1.212-.444l9.017 10.68c.5.593-.212 1.431-.878 1.033l-2.725-1.627-6.276-3.537a.686.686 0 01-.35-.599z"/><circle cx="458.073" cy="174.472" r="18.428" stroke="#1191FF" stroke-width="3"/><path stroke="#1191FF" stroke-width="3" d="M432.207 252.488h23.409a2.544 2.544 0 002.544-2.544v-2.12m-.118-14.978l.118 14.978m-.118-14.978v-39.432m0 39.432L448 224.28a2.544 2.544 0 01-.893-1.936v-13.666m11.053 39.146l10.042-8.566a2.544 2.544 0 00.893-1.936v-13.666"/><circle cx="447.049" cy="203.304" r="6.164" stroke="#1191FF" stroke-width="3"/><circle cx="469.096" cy="218.568" r="6.164" stroke="#1191FF" stroke-width="3"/><circle cx="578.5" cy="41.5" r="21" stroke="#1191FF" stroke-width="3"/><circle cx="578.5" cy="41.5" r="28" stroke="#1191FF" stroke-width="3"/><path stroke="#1191FF" stroke-width="3" d="M588.315 28.5h6.185l1 1L568 55m20.315-26.5h-6.157m6.157 0l-26.815 25m26.815 1.5H595m-6.685 0h-6.811m6.811 0H562h6m-6.5-26.5H576m0 0V20m0 8.5h6.158M576 55v7.5m0-7.5h-8m8 0h5.504m.654-26.5v-8m-.654 34.5v7.5"/><circle cx="148" cy="208" r="18.331" stroke="#1191FF" stroke-width="3"/><circle cx="148" cy="208" r="24.5" stroke="#1191FF" stroke-width="3"/><path stroke="#1191FF" stroke-width="3" d="M146.677 197.424v9.254m0-9.254v-7.932m0 7.932h-5.288m5.288 0h5.068a4.627 4.627 0 014.627 4.627v0a4.628 4.628 0 01-4.627 4.627h-5.068m0 11.898v-11.898m0 11.898v7.492m0-7.492h-5.288m5.288 0h6.39a5.948 5.948 0 005.949-5.949v0a5.948 5.948 0 00-5.949-5.949h-6.39m-14.542-9.254h9.254m-8.814 21.152h8.814m0-21.152v21.152m0-21.152v-6.61 27.762m0 0v7.051"/><circle cx="235.001" cy="166" r="22.907" stroke="#1191FF" stroke-width="3"/><circle cx="235" cy="166" r="30.5" stroke="#1191FF" stroke-width="3"/><path stroke="#1191FF" stroke-width="3" d="M242.051 144.305l-6.72 15.602m-8.466 19.652h27.118m-27.118 0h-10.848m10.848 0l8.466-19.652m-2.5-16.687l-8.912 20.591m-6.817 15.748l6.817-15.748m-11.698 4.358l11.698-4.358m30.064-10.286l-18.652 6.382"/><circle cx="31.501" cy="31.5" r="15.661" stroke="#1191FF" stroke-width="3"/><circle cx="31.5" cy="31.5" r="21" stroke="#1191FF" stroke-width="3"/><path stroke="#1191FF" stroke-width="3" d="M16.627 38.365h6.102V23.873m24.025 14.492h-6.102V23.873M18.915 41.797h25.17M22.729 23.873v-4.958l1.144-.762 7.627 9.915 8.008-9.915 1.144.762v4.958m-17.923 0l8.77 11.44 9.153-11.44M77 125.342h8.973a1.96 1.96 0 011.969 1.952c0 .456-.176.889-.411 1.281a4.333 4.333 0 00-.621 2.238c0 2.472 2.079 4.476 4.643 4.476 2.565 0 4.644-2.004 4.644-4.476 0-.815-.227-1.58-.622-2.238-.235-.392-.41-.825-.41-1.281a1.96 1.96 0 011.968-1.952h8.973c1.936 0 3.505-1.555 3.505-3.474v-8.423c0-1.121.916-2.029 2.047-2.029.459 0 .898.167 1.297.391a4.754 4.754 0 002.331.604c2.564 0 4.643-2.005 4.643-4.477 0-2.472-2.079-4.476-4.643-4.476-.85 0-1.646.22-2.331.604-.399.224-.838.391-1.297.391a2.038 2.038 0 01-2.047-2.03V94c0-1.918-1.569-3.474-3.505-3.474h-8.973a1.96 1.96 0 01-1.968-1.951c0-.456.175-.89.41-1.282a4.334 4.334 0 00.621-2.238c0-2.472-2.078-4.476-4.643-4.476-2.564 0-4.643 2.004-4.643 4.476 0 .816.226 1.58.62 2.238.236.392.412.826.412 1.282a1.96 1.96 0 01-1.97 1.951H77m99 34.816h-8.973a1.96 1.96 0 00-1.969 1.952c0 .456.176.889.411 1.281.395.658.621 1.423.621 2.238 0 2.472-2.079 4.476-4.643 4.476-2.565 0-4.643-2.004-4.643-4.476 0-.815.226-1.58.621-2.238.235-.392.41-.825.41-1.281a1.96 1.96 0 00-1.968-1.952h-8.973c-1.936 0-3.505-1.555-3.505-3.474v-8.423a2.037 2.037 0 00-2.047-2.029c-.459 0-.898.167-1.297.391a4.754 4.754 0 01-2.331.604c-2.564 0-4.643-2.005-4.643-4.477 0-2.472 2.079-4.476 4.643-4.476.85 0 1.646.22 2.331.604.399.224.838.391 1.297.391a2.038 2.038 0 002.047-2.03V94c0-1.918 1.569-3.474 3.505-3.474h8.973a1.96 1.96 0 001.968-1.951c0-.456-.175-.89-.41-1.282a4.334 4.334 0 01-.621-2.238c0-2.472 2.078-4.476 4.643-4.476 2.564 0 4.643 2.004 4.643 4.476a4.33 4.33 0 01-.621 2.238c-.235.392-.411.826-.411 1.282a1.96 1.96 0 001.969 1.951H176M144.062 58v8.894a1.96 1.96 0 001.969 1.952c.46 0 .897-.174 1.292-.407a4.433 4.433 0 012.258-.616c2.494 0 4.516 2.06 4.516 4.602 0 2.542-2.022 4.603-4.516 4.603a4.434 4.434 0 01-2.258-.616c-.395-.233-.832-.407-1.292-.407a1.96 1.96 0 00-1.969 1.952v8.894c0 1.918-1.569 3.474-3.504 3.474h-8.498a2.039 2.039 0 00-2.048 2.029c0 .455.169.89.395 1.286.387.679.609 1.468.609 2.31 0 2.542-2.022 4.603-4.516 4.603s-4.516-2.061-4.516-4.603c0-.842.222-1.631.609-2.31.226-.396.395-.83.395-1.286a2.04 2.04 0 00-2.048-2.03h-8.498c-1.935 0-3.504-1.555-3.504-3.473v-8.894a1.96 1.96 0 00-1.969-1.952c-.46 0-.897.174-1.292.407a4.434 4.434 0 01-2.258.616c-2.494 0-4.516-2.06-4.516-4.603 0-2.541 2.022-4.602 4.516-4.602a4.43 4.43 0 012.258.616c.395.233.832.407 1.292.407a1.96 1.96 0 001.969-1.952V58m35.124 99v-8.894a1.96 1.96 0 011.969-1.952c.46 0 .897.174 1.292.407a4.43 4.43 0 002.258.616c2.494 0 4.516-2.06 4.516-4.602 0-2.542-2.022-4.603-4.516-4.603a4.43 4.43 0 00-2.258.616c-.395.233-.832.407-1.292.407a1.96 1.96 0 01-1.969-1.952v-8.894c0-1.918-1.569-3.474-3.504-3.474h-8.498a2.038 2.038 0 01-2.048-2.029c0-.455.169-.89.395-1.286a4.652 4.652 0 00.609-2.31c0-2.542-2.022-4.603-4.516-4.603s-4.516 2.061-4.516 4.603c0 .842.222 1.631.609 2.31.226.396.395.831.395 1.286a2.038 2.038 0 01-2.048 2.029h-8.498c-1.935 0-3.504 1.556-3.504 3.474v8.894a1.96 1.96 0 01-1.969 1.952c-.46 0-.897-.174-1.292-.407a4.43 4.43 0 00-2.258-.616c-2.494 0-4.516 2.061-4.516 4.603s2.022 4.602 4.516 4.602a4.43 4.43 0 002.258-.616c.395-.233.832-.407 1.292-.407a1.96 1.96 0 011.969 1.952V157"/><path stroke="#1191FF" stroke-width="3" d="M99.4 102.5v2.893a3 3 0 01-3 3h-6.8a3 3 0 00-3 3v2.107m12.8-11h2.6a3 3 0 013 3v5a3 3 0 01-3 3h-9 3.65a2.75 2.75 0 012.75 2.75v0a2.75 2.75 0 01-2.75 2.75H89.6a3 3 0 01-3-3v-2.5m12.8-11V100a3 3 0 00-3-3h-6.8a3 3 0 00-3 3v2.5m9.2 0h-9.2m0 11H84a3 3 0 01-3-3v-5a3 3 0 013-3h2.6m27.9-35.174l11.5-6.597 11.5 6.597v12.738l-11.5 6.23-11.5-6.23V67.326z"/><mask id="f" fill="#fff"><path d="M132.476 77.083a7.136 7.136 0 01-11.577.698 7.138 7.138 0 1111.16-8.905l-2.082 1.63a4.49 4.49 0 00-5.113-1.44 4.492 4.492 0 00-2.916 4.439 4.49 4.49 0 003.352 4.12 4.495 4.495 0 004.94-1.951l2.236 1.41z"/></mask><path stroke="#1191FF" stroke-width="7.857" d="M132.476 77.083a7.136 7.136 0 01-11.577.698 7.138 7.138 0 1111.16-8.905l-2.082 1.63a4.49 4.49 0 00-5.113-1.44 4.492 4.492 0 00-2.916 4.439 4.49 4.49 0 003.352 4.12 4.495 4.495 0 004.94-1.951l2.236 1.41z" mask="url(#f)"/><path stroke="#1191FF" stroke-width="3" d="M154.452 97l-3.178 5.696M154.452 97H148l3.274 5.696M154.452 97l3.274 5.696m-6.452 0l3.274 5.804m16.178-5.804L174 97h-6.452m3.178 5.696L167.548 97m3.178 5.696l-3.274 5.804m.096-11.5l-3.274 5.696m-6.548 0l-3.178 5.804m3.178-5.804L161 108.5m-3.274-5.804l1.595-2.687h3.358l1.595 2.687m-9.726 5.804l3.274 5.804M161 108.5l-3.178 5.804M161 108.5l3.274-5.804M161 108.5l3.178 5.804m-6.356 0L161 120l3.178-5.696m.096-11.608l3.178 5.804m0 0l-3.274 5.804m-51.652 19.886l8.719-4.544a1.995 1.995 0 011.524-.134l6.4 2.014m-16.643 2.664l9.855 18.906m-9.855-18.906l7.19 2.263m21.571 6.789l-4.545-8.719a2 2 0 00-1.173-.983l-6.4-2.014m12.118 11.716l-18.906 9.854m18.906-9.854l-7.191-2.263m-11.715 12.117l-2.665-16.643m2.665 16.643l11.715-12.117m-14.38-4.526l7.19 2.263 7.19 2.263m-14.38-4.526l9.453-4.927m4.927 9.453l-4.927-9.453"/><circle cx="203.5" cy="230.5" r="4" stroke="#1191FF" stroke-width="3"/><circle cx="219.5" cy="230.5" r="4" stroke="#1191FF" stroke-width="3"/><circle cx="235.5" cy="230.5" r="4" stroke="#1191FF" stroke-width="3"/><circle cx="251.5" cy="230.5" r="4" stroke="#1191FF" stroke-width="3"/><circle cx="367.5" cy="91.5" r="4" stroke="#1191FF" stroke-width="3"/><circle cx="267.5" cy="101.5" r="5" stroke="#1191FF" stroke-width="3"/><circle cx="608" cy="129" r="4.5" stroke="#1191FF" stroke-width="3"/><circle cx="608" cy="144" r="4.5" stroke="#1191FF" stroke-width="3"/><circle cx="608" cy="159" r="4.5" stroke="#1191FF" stroke-width="3"/><circle cx="608" cy="174" r="4.5" stroke="#1191FF" stroke-width="3"/><circle cx="608" cy="189" r="4.5" stroke="#1191FF" stroke-width="3"/><circle cx="608" cy="204" r="4.5" stroke="#1191FF" stroke-width="3"/><circle cx="608" cy="219" r="4.5" stroke="#1191FF" stroke-width="3"/><circle cx="608" cy="234" r="4.5" stroke="#1191FF" stroke-width="3"/><circle cx="608" cy="249" r="4.5" stroke="#1191FF" stroke-width="3"/><circle cx="608" cy="264" r="4.5" stroke="#1191FF" stroke-width="3"/><circle cx="267.5" cy="83.5" r="5" stroke="#1191FF" stroke-width="3"/><circle cx="267.5" cy="65.5" r="5" stroke="#1191FF" stroke-width="3"/><circle cx="267.5" cy="47.5" r="5" stroke="#1191FF" stroke-width="3"/><circle cx="267.5" cy="29.5" r="5" stroke="#1191FF" stroke-width="3"/><circle cx="267.5" cy="11.5" r="5" stroke="#1191FF" stroke-width="3"/><circle cx="367.5" cy="75.5" r="4" stroke="#1191FF" stroke-width="3"/><circle cx="367.5" cy="59.5" r="4" stroke="#1191FF" stroke-width="3"/><circle cx="367.5" cy="43.5" r="4" stroke="#1191FF" stroke-width="3"/><circle cx="245" cy="25" r="5.5" stroke="#1191FF" stroke-width="3"/><circle cx="245" cy="7" r="5.5" stroke="#1191FF" stroke-width="3"/><circle cx="245" cy="43" r="5.5" stroke="#1191FF" stroke-width="3"/><circle cx="245" cy="61" r="5.5" stroke="#1191FF" stroke-width="3"/><circle cx="245" cy="79" r="5.5" stroke="#1191FF" stroke-width="3"/><circle cx="367.5" cy="27.5" r="4" stroke="#1191FF" stroke-width="3"/><circle cx="367.5" cy="11.5" r="4" stroke="#1191FF" stroke-width="3"/><circle cx="318.5" cy="114.5" r="4" stroke="#1191FF" stroke-width="3"/><circle cx="267.5" cy="230.5" r="4" stroke="#1191FF" stroke-width="3"/><circle cx="283.5" cy="230.5" r="4" stroke="#1191FF" stroke-width="3"/><circle cx="283.5" cy="246.5" r="4" stroke="#1191FF" stroke-width="3"/><circle cx="267.5" cy="246.5" r="4" stroke="#1191FF" stroke-width="3"/><circle cx="251.5" cy="246.5" r="4" stroke="#1191FF" stroke-width="3"/><circle cx="235.5" cy="246.5" r="4" stroke="#1191FF" stroke-width="3"/><circle cx="110" cy="31" r="5.5" stroke="#1191FF" stroke-width="3"/><circle cx="127" cy="31" r="5.5" stroke="#1191FF" stroke-width="3"/><circle cx="127" cy="13" r="5.5" stroke="#1191FF" stroke-width="3"/><circle cx="144" cy="13" r="5.5" stroke="#1191FF" stroke-width="3"/><circle cx="144" cy="31" r="5.5" stroke="#1191FF" stroke-width="3"/><circle cx="161" cy="31" r="5.5" stroke="#1191FF" stroke-width="3"/><circle cx="161" cy="13" r="5.5" stroke="#1191FF" stroke-width="3"/><circle cx="178" cy="13" r="5.5" stroke="#1191FF" stroke-width="3"/><circle cx="178" cy="31" r="5.5" stroke="#1191FF" stroke-width="3"/><circle cx="110" cy="13" r="5.5" stroke="#1191FF" stroke-width="3"/><circle cx="14" cy="81" r="5.5" stroke="#1191FF" stroke-width="3"/><circle cx="32" cy="81" r="5.5" stroke="#1191FF" stroke-width="3"/><circle cx="50" cy="81" r="5.5" stroke="#1191FF" stroke-width="3"/><circle cx="219.5" cy="246.5" r="4" stroke="#1191FF" stroke-width="3"/><circle cx="203.5" cy="246.5" r="4" stroke="#1191FF" stroke-width="3"/><circle cx="203.5" cy="262.5" r="4" stroke="#1191FF" stroke-width="3"/><circle cx="219.5" cy="262.5" r="4" stroke="#1191FF" stroke-width="3"/><circle cx="235.5" cy="262.5" r="4" stroke="#1191FF" stroke-width="3"/><circle cx="251.5" cy="262.5" r="4" stroke="#1191FF" stroke-width="3"/><circle cx="267.5" cy="262.5" r="4" stroke="#1191FF" stroke-width="3"/><circle cx="283.5" cy="262.5" r="4" stroke="#1191FF" stroke-width="3"/><circle cx="318.5" cy="99.5" r="4" stroke="#1191FF" stroke-width="3"/><circle cx="318.5" cy="129.5" r="4" stroke="#1191FF" stroke-width="3"/><circle cx="333.5" cy="129.5" r="4" stroke="#1191FF" stroke-width="3"/><circle cx="333.5" cy="114.5" r="4" stroke="#1191FF" stroke-width="3"/><circle cx="303.5" cy="114.5" r="4" stroke="#1191FF" stroke-width="3"/><circle cx="303.5" cy="99.5" r="4" stroke="#1191FF" stroke-width="3"/><circle cx="333.5" cy="99.5" r="4" stroke="#1191FF" stroke-width="3"/><circle cx="303.5" cy="129.5" r="4" stroke="#1191FF" stroke-width="3"/><path stroke="#1191FF" stroke-width="3" d="M31.5 128.5V164m24-35v35.5m-18-35.5v35.5m6-35.5v35.5m6-35.5v35.5m299-10l-40 40m-1-31l10-10m-10 18l18-18m-18 26l26-26m-18 42l34-34m-8-8l-34 34m42-17.5l-26 26m26.5-18l-18 18m18-10l-10 10m162.5-10l40 40m1-31l-10-10m10 18l-18-18m18 26l-26-26m18 42l-34-34m8-8l34 34m-42-17.5l26 26m-26.5-18l18 18m-18-10l10 10"/><circle cx="208.5" cy="97.5" r="15" stroke="#1191FF" stroke-width="3"/><circle cx="208.5" cy="97.5" r="9" stroke="#1191FF" stroke-width="3"/><circle cx="208.5" cy="97.5" r="3" stroke="#1191FF" stroke-width="3"/><path stroke="#1191FF" stroke-width="3" d="M99.5 275.5h511a8 8 0 008-8V72m-69-70.5h-497m-51 55V191"/><path stroke="#1191FF" stroke-width="3" d="M112.5 275.5v-19a5 5 0 015-5h74m0 0v-28a5 5 0 015-5h91m-96 33v24m96-57v-40a5 5 0 015-5h2a5 5 0 015 5v25m-12 15v57m12-72h19a5 5 0 015 5v23m-24-28v72m24-44h21a5 5 0 015 5v39m-26-44v44m178 0v-35a5 5 0 015-5h45m0 0v-45a5 5 0 015-5h41m-46 50v40m46-90v-62a5 5 0 015-5h16m-21 67l.5 90M1 69.5h55.5a5 5 0 015 5v13a5 5 0 01-5 5h-23m-32 0h32m-32 28h16m16-28v23a5 5 0 01-5 5h-11M2 164.5h10.5a5 5 0 005-5v-39M69.5 1v9a5 5 0 005 5h23m0 0V1m0 14v22.5a5 5 0 005 5h89m0 0v-41m0 41v25a5 5 0 005 5h37m0 0v-71m0 71v14a5 5 0 005 5h18m0-90.5v90.5m0 0v18a5 5 0 005 5h13a5 5 0 005-5v-34m0-74.5v74.5m0 0h78m0 0v-74m0 74v23a5 5 0 005 5h10a5 5 0 005-5v-7m0-90v90m0 0h35a5 5 0 005-5v-31m0-54.5v54.5m0 0h71a5 5 0 005-5v-6m0-43.5v43.5m0 0h7a5 5 0 005-5v-20m0-18.5v18.5m0 0h20a5 5 0 005-5v-13m55.5 184v90m-11.5-90v90m-11.5-90v11.25m0 78.75v-11.25m0-33.75h34.5m-34.5 0h-11.5m11.5 0v11.25m0-11.25v-11.25m0 33.75h-11.5m11.5 0h34.5m-34.5 0v11.25m0-11.25v-11.25m0 22.5h-11.5 46m-34.5-22.5h-11.5m11.5 0h34.5M563 208h-11.5m11.5 0h34.5m-34.5 0v-11.25m0 11.25v11.25m0-22.5h-11.5m11.5 0h34.5m-34.5 22.5h-11.5m11.5 0h34.5"/><path stroke="#1191FF" stroke-width="3" d="M511.5 274.5v-27a3 3 0 013-3H551"/><path stroke="#1191FF" stroke-width="3" d="M521.5 275.5v-20a2 2 0 012-2h27"/><path stroke="#1191FF" stroke-width="3" d="M531.5 274v-10.5a1 1 0 011-1H550M289.5 2.5v56a5 5 0 005 5h48a5 5 0 005-5v-56"/><path stroke="#1191FF" stroke-width="3" d="M299.5 2.5v43.065a5 5 0 004.934 5l28 .368a5 5 0 005.066-5V3m-28-.5v32a5 5 0 005 5h8a5 5 0 005-5v-32M113 275.913L136 252l23 23.913 22-22.873 10 10.397m0 7.797l-10-10.397-14.5 15.076m-15 0L136 259.798l-15.5 16.115m7 0l8.5-8.837 8.5 8.837m29 0l7.5-7.798 7.798 7.798M300.5 212.5h22m0 9h-22m0 9.5h22m0 8.5h-22m0 27h22m-22-18h22m-22 9h22m8-25v43m6 0v-43m6 0v43m63-184l12-12m0-8l-20 20m-8 0l28-28m0-8.5L381 91.5m-3.5-5l40-40m0-8l-40 40m0-8.5l40-40m-40 32l40-40m-40 32l40-40m-40 32l40-40m-40 32.5l37-37m-37 29.5L407 1.5m-8 0L377.5 23m.5-9l12.5-12.5m-8 0L378 6M191 62l11.812 10.5M191 54l20.812 18.5M191 46l29.812 26.5M191 37.5l39.375 35M191 29l42.5 37.778M191 21l42.5 37.778M191 12.5l42.5 37.778M191 4.5l42.5 37.778M196.625 1.5L233.5 34.278M205.625 1.5L233.5 26.278M214.062 1.5L233.5 18.778M222.5 1.5l11 9.778m-2-9.778l2 1.778M2.5 99h30m0 7.5h-30m0 7.5h30M2 127.5h14m0 6H2m0 6h14m0 6H2m14 6H2m0 6h14m490-150h23m0 6h-23"/></g><defs><clipPath id="clip0"><path fill="#fff" d="M0 0h620v277H0z"/></clipPath></defs></svg>