<svg xmlns="http://www.w3.org/2000/svg"><defs/><symbol id="spinner" viewBox="0 0 369 337"><path fill="currentColor" fill-rule="evenodd" d="M154.663 6.917c3.781-10.937 19.954-8.22 19.954 3.352v197.334a10.26 10.26 0 01-5.249 8.953l-84.572 47.32c-8.227 4.603-17.785-3.395-14.705-12.304L154.663 6.917zm15.954 3.352c0-7.06-9.867-8.718-12.173-2.045L73.872 252.879c-1.88 5.435 3.952 10.314 8.97 7.506l84.573-47.32a6.26 6.26 0 003.202-5.462V10.269zm10.19 216.467a6.258 6.258 0 00-6.14-.016L7.242 320.398c-6.185 3.461-2.759 12.918 4.208 11.613l250.141-46.839c5.736-1.074 7.01-8.722 1.932-11.597l-82.716-46.839zm-8.093-3.507a10.259 10.259 0 0110.064.026l82.716 46.839c8.324 4.714 6.236 17.249-3.167 19.01l-250.14 46.839C.766 338.081-4.85 322.58 5.288 316.907l167.425-93.678zm12.163-114.277c0-5.797 7.201-8.478 10.993-4.093L363.021 298.19c4.594 5.314-1.706 13.001-7.819 9.54l-64.903-36.753-102.248-57.899a6.259 6.259 0 01-3.174-5.446v-98.68zm14.018-6.709c-6.214-7.188-18.018-2.793-18.018 6.709v98.68a10.26 10.26 0 005.203 8.926l102.248 57.9 64.903 36.752c10.02 5.674 20.346-6.925 12.816-15.636L198.895 102.243z" clip-rule="evenodd"/></symbol><symbol id="currs" fill="none" viewBox="0 0 80 80"><path stroke="currentColor" stroke-width="2" d="M68.447 16.657l3.725-2.794V10.45l-2.483-2.173h-2.794m1.552 8.38h-4.966m4.966 0h2.483l2.794 2.484v3.414l-2.794 2.793h-3.724M63.48 8.277v8.38m0-8.38h.62m-.62 0h-3.104m3.104 8.38v8.69m0 0h.62m-.62 0h-3.104m3.725-17.07V3.03m0 5.245h2.793m0 0V3.123m.31 22.224v5.42m0-5.42h-3.103m0 0v5.557M60.377 8.276h-6.279m6.28 0v17.071m0-17.07V3.794m-6.52 21.552h6.52m0 0v4.793M3.565 8.897h9.85m12.64 16.45h-9.224m-3.417-16.45V4.552m0 4.345h3.823m-3.822 16.45v4.656m0-4.655H9.07m4.345 0h3.417m-7.762 0l16.45-15.21-.62-1.24h-3.84M9.07 25.347H4.725M21.06 8.898h-3.822m3.822 0L4 24.5M17.238 8.897V4.552m-.406 20.796v4.655M28.14 67.838h-5.724V56.974M1.795 67.838h6.033V56.974m0 0v-4.035l.931-.62 6.208 8.07 6.518-8.07.931.62v4.035m-14.588 0l7.139 9.312 7.45-9.312M3.791 71.562h22.35m24.924-8.38c0 7.713 6.253 13.967 13.967 13.967S79 70.895 79 63.182c0-3.497-1.285-6.694-3.409-9.144m-24.525 9.144c0-7.714 6.253-13.968 13.967-13.968 4.217 0 7.997 1.87 10.558 4.824m-24.525 9.144l4.207-1.569 4.207-1.569M60.087 72H76 54.99h5.097zm0 0l5.135-12.306.919-2.133M54.5 72l4.191-10.071.79-1.885m9.587-9.278l-2.927 6.795M64 49.252l-4.52 10.792M33.994 45.993l-8.498 8.498m8.498-20.496l-8.998-8.999m20.996 8.999l8.999-8.999m-8.999 20.997l8.999 8.998m20.6-.953l-9.45 3.523M79 16.967c0 7.714-6.253 13.968-13.967 13.968S51.065 24.68 51.065 16.966 57.32 3 65.034 3 79 9.253 79 16.967zm-50.066 0c0 7.714-6.253 13.968-13.967 13.968S1 24.68 1 16.966 7.253 3 14.967 3s13.967 6.253 13.967 13.967zm0 46.215c0 7.713-6.253 13.967-13.967 13.967S1 70.895 1 63.182c0-7.714 6.253-13.968 13.967-13.968s13.967 6.254 13.967 13.968zm25.03-23.11c0 7.713-6.253 13.966-13.966 13.966-7.713 0-13.965-6.253-13.965-13.965 0-7.713 6.252-13.966 13.965-13.966s13.966 6.253 13.966 13.965zm-4.972-.078a8.998 8.998 0 11-17.997 0 8.998 8.998 0 0117.997 0zm-4 0a5 5 0 11-9.998 0 5 5 0 019.998 0z"/></symbol><symbol id="cloud" fill="none" stroke="currentColor" stroke-width="3" viewBox="0 0 80 80"><path stroke-linejoin="round" d="M13.692 40C7.235 40 2 35.523 2 30s5.235-10 11.692-10h.073c.575-3.946 4.511-7 9.281-7 .916 0 1.801.113 2.638.322C27.144 6.872 33.784 2 41.754 2c7.598 0 13.987 4.428 15.832 10.43a19.03 19.03 0 014.045-.43C70.67 12 78 18.268 78 26c0 7.396-6.705 13.452-15.2 13.965V40H13.692z"/><circle cx="9.5" cy="54.5" r="5"/><path d="M31.5 67.5a5 5 0 11-10 0 5 5 0 0110 0z"/><circle cx="44.5" cy="50.5" r="5"/><circle cx="72.5" cy="61.5" r="5"/><circle cx="53.5" cy="72.5" r="5"/><path d="M26.5 61.5v-22m30 0v6a5 5 0 01-5 5H49m12.5-11v17a5 5 0 005 5h1m-35-22v15a3 3 0 003 3v0a3 3 0 013 3v7a5 5 0 005 5h4m-27-33v10a5 5 0 01-5 5H15"/></symbol><symbol id="phone" fill="none" stroke="currentColor" stroke-width="3" viewBox="0 0 80 80"><path d="M21.5 14.831V6.5a4 4 0 014-4h29a4 4 0 014 4v3m-37 31.98v5.923m0 18.753V73.5a4 4 0 004 4h29a4 4 0 004-4V71m0-22.5V55"/><rect width="39" height="27" x="1.5" y="14.5" rx="3.5"/><rect width="31" height="39" x="47.5" y="9.5" rx="3.5"/><rect width="24" height="16" x="47.5" y="54.5" rx="3.5"/><rect width="29" height="19" x="9.5" y="47.5" rx="3.5"/><path d="M20.5 35V21a.5.5 0 01.5-.5h13a.5.5 0 01.5.5v14a.5.5 0 01-.5.5H21a.5.5 0 01-.5-.5zm-11 25v-6a.5.5 0 01.5-.5h5a.5.5 0 01.5.5v6a.5.5 0 01-.5.5h-5a.5.5 0 01-.5-.5zm12 0v-6a.5.5 0 01.5-.5h10a.5.5 0 01.5.5v6a.5.5 0 01-.5.5H22a.5.5 0 01-.5-.5zm32 4v-9a.5.5 0 01.5-.5h11a.5.5 0 01.5.5v9a.5.5 0 01-.5.5H54a.5.5 0 01-.5-.5zm0-22v-8a.5.5 0 01.5-.5h5a.5.5 0 01.5.5v8a.5.5 0 01-.5.5h-5a.5.5 0 01-.5-.5zm12 0v-8a.5.5 0 01.5-.5h6a.5.5 0 01.5.5v8a.5.5 0 01-.5.5h-6a.5.5 0 01-.5-.5zM52 27.5h22m-22-12h22m-22 6h22m-68 13h10m-10-12h10m-10 6h10"/></symbol><symbol id="m" viewBox="0 0 24 24"><path fill-rule="evenodd" d="M3 3h18v18H3V3zm4.143 5.625c.11.1.167.246.152.395v5.345a.615.615 0 01-.163.53l-1.27 1.54v.204h3.601v-.203l-1.27-1.541a.637.637 0 01-.175-.53V9.741l3.161 6.897h.367l2.716-6.897v5.497c0 .147 0 .175-.096.271l-.977.948v.204h4.742v-.204l-.943-.925a.282.282 0 01-.107-.271v-6.8a.282.282 0 01.107-.272l.966-.925v-.203h-3.342l-2.383 5.942-2.71-5.942H6.015v.203l1.129 1.36z" clip-rule="evenodd"/></symbol><symbol id="tw" viewBox="0 0 24 24"><path d="M22.46 6.012a8.58 8.58 0 01-2.465.676 4.305 4.305 0 001.886-2.374 8.591 8.591 0 01-2.725 1.041 4.292 4.292 0 00-7.313 3.914 12.184 12.184 0 01-8.846-4.483 4.271 4.271 0 00-.58 2.157 4.29 4.29 0 001.908 3.572 4.276 4.276 0 01-1.943-.537v.054a4.295 4.295 0 003.442 4.209 4.296 4.296 0 01-1.938.073 4.296 4.296 0 004.009 2.98 8.61 8.61 0 01-5.33 1.838c-.347 0-.688-.02-1.024-.06A12.147 12.147 0 008.12 21c7.894 0 12.21-6.54 12.21-12.21 0-.187-.004-.372-.012-.556a8.719 8.719 0 002.141-2.222z"/></symbol><symbol id="in" viewBox="0 0 24 24"><path d="M21 21h-4v-6.75c0-1.059-1.188-1.944-2.246-1.944-1.06 0-1.754.885-1.754 1.944V21H9V9h4v2c.662-1.071 2.356-1.763 3.525-1.763C18.997 9.237 21 11.28 21 13.75V21zM7 21H3V9h4v12zM5 3a2 2 0 110 4 2 2 0 010-4z"/></symbol></svg>