<svg xmlns="http://www.w3.org/2000/svg"><defs/><symbol id="spinner" viewBox="0 0 369 337"><path fill="currentColor" fill-rule="evenodd" d="M154.663 6.917c3.781-10.937 19.954-8.22 19.954 3.352v197.334a10.26 10.26 0 01-5.249 8.953l-84.572 47.32c-8.227 4.603-17.785-3.395-14.705-12.304L154.663 6.917zm15.954 3.352c0-7.06-9.867-8.718-12.173-2.045L73.872 252.879c-1.88 5.435 3.952 10.314 8.97 7.506l84.573-47.32a6.26 6.26 0 003.202-5.462V10.269zm10.19 216.467a6.258 6.258 0 00-6.14-.016L7.242 320.398c-6.185 3.461-2.759 12.918 4.208 11.613l250.141-46.839c5.736-1.074 7.01-8.722 1.932-11.597l-82.716-46.839zm-8.093-3.507a10.259 10.259 0 0110.064.026l82.716 46.839c8.324 4.714 6.236 17.249-3.167 19.01l-250.14 46.839C.766 338.081-4.85 322.58 5.288 316.907l167.425-93.678zm12.163-114.277c0-5.797 7.201-8.478 10.993-4.093L363.021 298.19c4.594 5.314-1.706 13.001-7.819 9.54l-64.903-36.753-102.248-57.899a6.259 6.259 0 01-3.174-5.446v-98.68zm14.018-6.709c-6.214-7.188-18.018-2.793-18.018 6.709v98.68a10.26 10.26 0 005.203 8.926l102.248 57.9 64.903 36.752c10.02 5.674 20.346-6.925 12.816-15.636L198.895 102.243z" clip-rule="evenodd"/></symbol><symbol id="currs" fill="none" viewBox="0 0 80 80"><path stroke="currentColor" stroke-width="2" d="M68.447 16.657l3.725-2.794V10.45l-2.483-2.173h-2.794m1.552 8.38h-4.966m4.966 0h2.483l2.794 2.484v3.414l-2.794 2.793h-3.724M63.48 8.277v8.38m0-8.38h.62m-.62 0h-3.104m3.104 8.38v8.69m0 0h.62m-.62 0h-3.104m3.725-17.07V3.03m0 5.245h2.793m0 0V3.123m.31 22.224v5.42m0-5.42h-3.103m0 0v5.557M60.377 8.276h-6.279m6.28 0v17.071m0-17.07V3.794m-6.52 21.552h6.52m0 0v4.793M3.565 8.897h9.85m12.64 16.45h-9.224m-3.417-16.45V4.552m0 4.345h3.823m-3.822 16.45v4.656m0-4.655H9.07m4.345 0h3.417m-7.762 0l16.45-15.21-.62-1.24h-3.84M9.07 25.347H4.725M21.06 8.898h-3.822m3.822 0L4 24.5M17.238 8.897V4.552m-.406 20.796v4.655M28.14 67.838h-5.724V56.974M1.795 67.838h6.033V56.974m0 0v-4.035l.931-.62 6.208 8.07 6.518-8.07.931.62v4.035m-14.588 0l7.139 9.312 7.45-9.312M3.791 71.562h22.35m24.924-8.38c0 7.713 6.253 13.967 13.967 13.967S79 70.895 79 63.182c0-3.497-1.285-6.694-3.409-9.144m-24.525 9.144c0-7.714 6.253-13.968 13.967-13.968 4.217 0 7.997 1.87 10.558 4.824m-24.525 9.144l4.207-1.569 4.207-1.569M60.087 72H76 54.99h5.097zm0 0l5.135-12.306.919-2.133M54.5 72l4.191-10.071.79-1.885m9.587-9.278l-2.927 6.795M64 49.252l-4.52 10.792M33.994 45.993l-8.498 8.498m8.498-20.496l-8.998-8.999m20.996 8.999l8.999-8.999m-8.999 20.997l8.999 8.998m20.6-.953l-9.45 3.523M79 16.967c0 7.714-6.253 13.968-13.967 13.968S51.065 24.68 51.065 16.966 57.32 3 65.034 3 79 9.253 79 16.967zm-50.066 0c0 7.714-6.253 13.968-13.967 13.968S1 24.68 1 16.966 7.253 3 14.967 3s13.967 6.253 13.967 13.967zm0 46.215c0 7.713-6.253 13.967-13.967 13.967S1 70.895 1 63.182c0-7.714 6.253-13.968 13.967-13.968s13.967 6.254 13.967 13.968zm25.03-23.11c0 7.713-6.253 13.966-13.966 13.966-7.713 0-13.965-6.253-13.965-13.965 0-7.713 6.252-13.966 13.965-13.966s13.966 6.253 13.966 13.965zm-4.972-.078a8.998 8.998 0 11-17.997 0 8.998 8.998 0 0117.997 0zm-4 0a5 5 0 11-9.998 0 5 5 0 019.998 0z"/></symbol><symbol id="cloud" fill="none" stroke="currentColor" stroke-width="3" viewBox="0 0 80 80"><path stroke-linejoin="round" d="M13.692 40C7.235 40 2 35.523 2 30s5.235-10 11.692-10h.073c.575-3.946 4.511-7 9.281-7 .916 0 1.801.113 2.638.322C27.144 6.872 33.784 2 41.754 2c7.598 0 13.987 4.428 15.832 10.43a19.03 19.03 0 014.045-.43C70.67 12 78 18.268 78 26c0 7.396-6.705 13.452-15.2 13.965V40H13.692z"/><circle cx="9.5" cy="54.5" r="5"/><path d="M31.5 67.5a5 5 0 11-10 0 5 5 0 0110 0z"/><circle cx="44.5" cy="50.5" r="5"/><circle cx="72.5" cy="61.5" r="5"/><circle cx="53.5" cy="72.5" r="5"/><path d="M26.5 61.5v-22m30 0v6a5 5 0 01-5 5H49m12.5-11v17a5 5 0 005 5h1m-35-22v15a3 3 0 003 3v0a3 3 0 013 3v7a5 5 0 005 5h4m-27-33v10a5 5 0 01-5 5H15"/></symbol><symbol id="phone" fill="none" stroke="currentColor" stroke-width="3" viewBox="0 0 80 80"><path d="M21.5 14.831V6.5a4 4 0 014-4h29a4 4 0 014 4v3m-37 31.98v5.923m0 18.753V73.5a4 4 0 004 4h29a4 4 0 004-4V71m0-22.5V55"/><rect width="39" height="27" x="1.5" y="14.5" rx="3.5"/><rect width="31" height="39" x="47.5" y="9.5" rx="3.5"/><rect width="24" height="16" x="47.5" y="54.5" rx="3.5"/><rect width="29" height="19" x="9.5" y="47.5" rx="3.5"/><path d="M20.5 35V21a.5.5 0 01.5-.5h13a.5.5 0 01.5.5v14a.5.5 0 01-.5.5H21a.5.5 0 01-.5-.5zm-11 25v-6a.5.5 0 01.5-.5h5a.5.5 0 01.5.5v6a.5.5 0 01-.5.5h-5a.5.5 0 01-.5-.5zm12 0v-6a.5.5 0 01.5-.5h10a.5.5 0 01.5.5v6a.5.5 0 01-.5.5H22a.5.5 0 01-.5-.5zm32 4v-9a.5.5 0 01.5-.5h11a.5.5 0 01.5.5v9a.5.5 0 01-.5.5H54a.5.5 0 01-.5-.5zm0-22v-8a.5.5 0 01.5-.5h5a.5.5 0 01.5.5v8a.5.5 0 01-.5.5h-5a.5.5 0 01-.5-.5zm12 0v-8a.5.5 0 01.5-.5h6a.5.5 0 01.5.5v8a.5.5 0 01-.5.5h-6a.5.5 0 01-.5-.5zM52 27.5h22m-22-12h22m-22 6h22m-68 13h10m-10-12h10m-10 6h10"/></symbol><symbol id="m" viewBox="0 0 24 24"><path fill-rule="evenodd" d="M3 3h18v18H3V3zm4.143 5.625c.11.1.167.246.152.395v5.345a.615.615 0 01-.163.53l-1.27 1.54v.204h3.601v-.203l-1.27-1.541a.637.637 0 01-.175-.53V9.741l3.161 6.897h.367l2.716-6.897v5.497c0 .147 0 .175-.096.271l-.977.948v.204h4.742v-.204l-.943-.925a.282.282 0 01-.107-.271v-6.8a.282.282 0 01.107-.272l.966-.925v-.203h-3.342l-2.383 5.942-2.71-5.942H6.015v.203l1.129 1.36z" clip-rule="evenodd"/></symbol><symbol id="tw" viewBox="0 0 24 24"><path d="M22.46 6.012a8.58 8.58 0 01-2.465.676 4.305 4.305 0 001.886-2.374 8.591 8.591 0 01-2.725 1.041 4.292 4.292 0 00-7.313 3.914 12.184 12.184 0 01-8.846-4.483 4.271 4.271 0 00-.58 2.157 4.29 4.29 0 001.908 3.572 4.276 4.276 0 01-1.943-.537v.054a4.295 4.295 0 003.442 4.209 4.296 4.296 0 01-1.938.073 4.296 4.296 0 004.009 2.98 8.61 8.61 0 01-5.33 1.838c-.347 0-.688-.02-1.024-.06A12.147 12.147 0 008.12 21c7.894 0 12.21-6.54 12.21-12.21 0-.187-.004-.372-.012-.556a8.719 8.719 0 002.141-2.222z"/></symbol><symbol id="in" viewBox="0 0 24 24"><path d="M21 21h-4v-6.75c0-1.059-1.188-1.944-2.246-1.944-1.06 0-1.754.885-1.754 1.944V21H9V9h4v2c.662-1.071 2.356-1.763 3.525-1.763C18.997 9.237 21 11.28 21 13.75V21zM7 21H3V9h4v12zM5 3a2 2 0 110 4 2 2 0 010-4z"/></symbol><symbol id="interoperability" fill="none" stroke="currentColor" stroke-width="3" viewBox="0 0 128 128"><path d="M89.5 45.205V62.87M56.527 43.582v19.059m0-19.059l-11.93-7.565m11.93 7.565l14.875-8.909M56.527 62.641L72.552 72.5m-16.025-9.86L39.5 72.5m0 0l-16-9.396m16 9.396v7.34m-16-16.736v-7.67m0 7.67L7.5 72.5v10.826m82-20.456L106 72.5l14.605-9.86V50.788M89.5 62.87L72.552 72.5m0 0v19.059m0 0L56.527 100m16.025-8.441L84 97.5"/><circle cx="89.066" cy="25.918" r="19.418"/><path d="M70.938 34.285h7.437V16.621m29.285 17.664h-7.437V16.621M73.727 38.47h30.679M78.375 16.62v-6.043l1.394-.93 9.297 12.086 9.762-12.086 1.395.93v6.043m-21.848 0l10.691 13.945 11.157-13.945"/><circle cx="102.082" cy="103.082" r="19.418"/><path d="M108.125 84.488l-5.76 13.372m-7.256 16.843h23.243m-23.243 0h-9.296m9.296 0l7.256-16.843m-2.142-14.301l-7.639 17.647m-5.842 13.497l5.842-13.497m-10.025 3.735l10.025-3.735m25.768-8.815l-15.987 5.469"/><circle cx="37.004" cy="99.363" r="19.418"/><path d="M35.61 88.207v9.762m0-9.762V79.84m0 8.367h-5.58m5.578 0h5.346a4.88 4.88 0 014.88 4.88v0a4.88 4.88 0 01-4.88 4.882H35.61m0 12.551V97.969m0 12.551v7.902m0-7.902h-5.578m5.578 0h6.74a6.276 6.276 0 006.276-6.276v0a6.275 6.275 0 00-6.275-6.275h-6.74m-15.34-9.762h9.761m-9.297 22.313h9.297m0-22.313v22.313m0-22.313v-6.973 29.286m0 0v7.437"/><circle cx="24.918" cy="36.145" r="19.418"/><path d="M34.508 24.059h5.75m-5.75 0h-5.725m5.725 0L9.578 47.3m24.93 1.394h5.75m-5.75 0h-6.332m6.332 0H10.043h5.578M9.578 24.06H23.06m0 0v-7.903m0 7.903h5.724M23.06 48.695v6.973m0-6.973h-7.44m7.438 0h5.117m-12.555 0l25.567-23.242M28.782 24.06v-7.44m-.607 32.074v6.973"/><circle cx="7.5" cy="89.5" r="6"/><circle cx="120.5" cy="45.5" r="6"/></symbol><symbol id="economy" fill="none" stroke="currentColor" stroke-width="3" viewBox="0 0 128 128"><path d="M71.25 100.5L65.623 9.985A2.117 2.117 0 0063.511 8v0a2.117 2.117 0 00-2.114 2.008L56.75 100.5m14.5 0h-14.5m14.5 0h4.25a3 3 0 013 3v6m0 0h-3.625m3.625 0h3m-32 0v-6a3 3 0 013-3h4.25m-7.25 9h3.625m-3.625 0h-3m13.875 0h-7.25m7.25 0h7.25m-7.25 0v16m0 0h7.25m-7.25 0h-7.25m14.5-16h7.25m-7.25 0v16m0 0h7.25m0-16v16m0 0H81.5m-28.375-16v16m0 0H46.5m35-16H85a3 3 0 013 3v10a3 3 0 01-3 3h-3.5m0-16v16m-35-16H43a3 3 0 00-3 3v10a3 3 0 003 3h3.5m0-16v16M3 89.216C3.782 92.26 13.921 99.5 24.5 99.5S45.218 92.26 46 89.216m-43 0L23.5 28h2L46 89.216m-43 0v7C3.782 99.26 13.921 106.5 24.5 106.5S45.218 99.26 46 96.216v-7m36-13C82.782 79.26 92.921 86.5 103.5 86.5s20.718-7.24 21.5-10.284m-43 0L102.5 15h2L125 76.216m-43 0v7C82.782 86.26 92.921 93.5 103.5 93.5s20.718-7.24 21.5-10.284v-7"/><path d="M23.334 60.444c-1.659 3.742-6.12 8.232-10.026 6.462-.739-.335-1.751.009-1.858.813C8.517 89.9 20.767 92.433 23.478 96.7c.115.18.308.3.522.3.214 0 .406-.12.521-.3 2.711-4.267 14.962-6.8 12.029-28.981-.107-.804-1.12-1.148-1.858-.813-3.906 1.77-8.368-2.72-10.026-6.462A.734.734 0 0024 60a.734.734 0 00-.666.444z"/><circle cx="103.5" cy="68.5" r="15"/><path d="M102.401 59.7v7.7m0-7.7v-6.6m0 6.6h-4.4m4.4 0h4.216a3.85 3.85 0 013.85 3.85v0a3.85 3.85 0 01-3.85 3.85h-4.216m0 9.9v-9.9m0 9.9v6.233m0-6.233h-4.4m4.4 0h5.316a4.95 4.95 0 004.95-4.95v0a4.95 4.95 0 00-4.95-4.95h-5.316m-12.1-7.7H98m-7.334 17.6H98m0-17.6v17.6m0-17.6v-5.5 23.1m0 0v5.867M27.364 80.39c0-.3.139-.58.35-.793A4.438 4.438 0 0029 76.47C29 74 26.985 72 24.5 72S20 74 20 76.469c0 1.218.49 2.322 1.287 3.128.21.214.35.493.35.792V84a1 1 0 001 1h3.727a1 1 0 001-1v-3.61zm33.341-54.807a89.72 89.72 0 01-6 .324m5.5 7.506a59.841 59.841 0 01-5.5-.004 49.664 49.664 0 01-6.929-.823c-2.495-.474-4.788-1.1-7.055-1.784-1.984-.598-3.95-1.239-6.016-1.859a91.561 91.561 0 00-5-1.365 67.737 67.737 0 00-6-1.161 71.623 71.623 0 00-6-.62 85.213 85.213 0 00-5-.159c-1.577-.005-3.24.03-5 .109-.999.045-2.029.105-3.092.18-1.119.08-2.127-.607-2.292-1.604-.188-1.129.76-2.197 2.028-2.29 1.158-.085 2.276-.155 3.356-.212 1.763-.094 3.426-.153 5-.18 1.774-.032 3.435-.025 5 .014a91.961 91.961 0 0112 1.058c1.76.271 3.407.572 5 .877 2.049.393 4.01.794 6.016 1.15 2.215.393 4.484.73 6.984.943a65.834 65.834 0 006 .235m13.108-1.178a98.984 98.984 0 005.84-1.5 80.368 80.368 0 002.052-.627c.69-.221 1.357-.446 2-.673a62.98 62.98 0 007-2.939 84.956 84.956 0 005-2.693c1.656-.955 3.28-1.934 5-2.932a110.605 110.605 0 015-2.75 86.753 86.753 0 016-2.802 99.134 99.134 0 015-1.947 122.156 122.156 0 015-1.674 152.22 152.22 0 016.243-1.798c1.228-.327 2.474.372 2.666 1.5.17.996-.557 1.975-1.641 2.266-.776.21-1.532.42-2.268.634a104.699 104.699 0 00-5 1.58 84.718 84.718 0 00-5 1.898 70.476 70.476 0 00-5 2.312 65.367 65.367 0 00-6 3.487c-1.805 1.178-3.435 2.359-5 3.524-1.696 1.263-3.316 2.508-5 3.714-1.573 1.126-3.201 2.217-5 3.256a48.083 48.083 0 01-5 2.514 54.609 54.609 0 01-4 1.538c-.66.225-1.344.445-2.052.659-1.526.46-3.169.895-4.948 1.3m-14-6.669a74.17 74.17 0 001-.011m-1 .011l1-.011"/></symbol><symbol id="plugins" fill="none" stroke="currentColor" stroke-width="3" viewBox="0 0 128 128"><path d="M3.5 80.5c0 2.21 1.29 4.046 3.5 4.046h10.242a2.247 2.247 0 012.247 2.247c0 .525-.2 1.024-.469 1.475a5.023 5.023 0 00-.709 2.578c0 2.846 2.373 5.154 5.3 5.154 2.927 0 5.3-2.308 5.3-5.154 0-.94-.258-1.82-.709-2.578-.268-.451-.469-.95-.469-1.475a2.247 2.247 0 012.248-2.248h10.241a4 4 0 004-4v-9.699a2.337 2.337 0 012.337-2.337c.524 0 1.025.192 1.481.45a5.39 5.39 0 002.66.695c2.927 0 5.3-2.307 5.3-5.154s-2.373-5.154-5.3-5.154a5.39 5.39 0 00-2.66.695c-.456.258-.957.45-1.48.45a2.337 2.337 0 01-2.338-2.337v-9.7a4 4 0 00-4-4H29.981a2.247 2.247 0 01-2.248-2.247c0-.525.2-1.024.47-1.475.45-.758.708-1.639.708-2.578 0-2.846-2.373-5.154-5.3-5.154-2.927 0-5.3 2.308-5.3 5.154 0 .94.258 1.82.71 2.578.268.451.468.95.468 1.475a2.247 2.247 0 01-2.247 2.248H7c-2.21 0-3.5 1.836-3.5 4.045m0 32v-32m0 32v41a3 3 0 003 3h41m-44-76v-42a3 3 0 013-3h41m76 77c0 2.21-1.291 4.046-3.5 4.046h-10.242a2.247 2.247 0 00-2.247 2.247c0 .525.2 1.024.469 1.475.451.758.709 1.639.709 2.578 0 2.846-2.373 5.154-5.3 5.154-2.927 0-5.3-2.308-5.3-5.154 0-.94.258-1.82.709-2.578.268-.451.469-.95.469-1.475a2.247 2.247 0 00-2.248-2.248H86.778a4 4 0 01-4-4v-9.699a2.337 2.337 0 00-2.337-2.337c-.524 0-1.025.192-1.481.45a5.39 5.39 0 01-2.66.695c-2.927 0-5.3-2.307-5.3-5.154s2.373-5.154 5.3-5.154c.97 0 1.878.253 2.66.695.456.258.957.45 1.48.45a2.337 2.337 0 002.338-2.337v-9.7a4 4 0 014-4h10.241a2.247 2.247 0 002.248-2.247c0-.525-.2-1.024-.47-1.475a5.023 5.023 0 01-.708-2.578c0-2.846 2.373-5.154 5.3-5.154 2.927 0 5.3 2.308 5.3 5.154 0 .94-.258 1.82-.709 2.578-.269.451-.469.95-.469 1.475a2.247 2.247 0 002.247 2.248H120c2.209 0 3.5 1.836 3.5 4.045m0 32v-32m0 32v41a3 3 0 01-3 3h-41m44-76v-42a3 3 0 00-3-3h-41m0 0c2.21 0 4.046 1.29 4.046 3.5v10.242a2.247 2.247 0 002.247 2.247c.525 0 1.024-.2 1.475-.469a5.023 5.023 0 012.578-.709c2.846 0 5.154 2.373 5.154 5.3 0 2.927-2.308 5.3-5.154 5.3-.94 0-1.82-.258-2.578-.709-.451-.268-.95-.469-1.475-.469a2.247 2.247 0 00-2.248 2.248v10.241a4 4 0 01-4 4h-9.699a2.337 2.337 0 00-2.337 2.337c0 .524.192 1.025.45 1.481a5.39 5.39 0 01.695 2.66c0 2.927-2.307 5.3-5.154 5.3s-5.154-2.373-5.154-5.3c0-.97.253-1.878.695-2.66.258-.456.45-.957.45-1.48a2.337 2.337 0 00-2.337-2.338h-9.7a4 4 0 01-4-4V29.981a2.247 2.247 0 00-2.247-2.248c-.525 0-1.024.2-1.475.47a5.023 5.023 0 01-2.578.708c-2.846 0-5.154-2.373-5.154-5.3 0-2.927 2.308-5.3 5.154-5.3.94 0 1.82.258 2.578.71.451.268.95.468 1.475.468a2.247 2.247 0 002.248-2.247V7c0-2.21 1.836-3.5 4.045-3.5m32 0h-32m32 121c2.21 0 4.046-1.291 4.046-3.5v-10.242a2.247 2.247 0 012.247-2.247c.525 0 1.024.2 1.475.469a5.023 5.023 0 002.578.709c2.846 0 5.154-2.373 5.154-5.3 0-2.927-2.308-5.3-5.154-5.3-.94 0-1.82.258-2.578.709-.451.268-.95.469-1.475.469a2.248 2.248 0 01-2.248-2.248V87.778a4 4 0 00-4-4h-9.699a2.337 2.337 0 01-2.337-2.337c0-.524.192-1.025.45-1.481a5.39 5.39 0 00.695-2.66c0-2.927-2.307-5.3-5.154-5.3s-5.154 2.373-5.154 5.3c0 .97.253 1.878.695 2.66.258.456.45.957.45 1.48a2.337 2.337 0 01-2.337 2.338h-9.7a4 4 0 00-4 4v10.241a2.248 2.248 0 01-2.247 2.248c-.525 0-1.024-.201-1.475-.47a5.023 5.023 0 00-2.578-.708c-2.846 0-5.154 2.373-5.154 5.3 0 2.927 2.308 5.3 5.154 5.3.94 0 1.82-.258 2.578-.709.451-.269.95-.469 1.475-.469a2.247 2.247 0 012.248 2.247V121c0 2.209 1.836 3.5 4.045 3.5m32 0h-32"/><path d="M71.5 16.5V21a3 3 0 01-3 3h-10a3 3 0 00-3 3v3.5m16-14h4a3 3 0 013 3v8a3 3 0 01-3 3h-12 5a3 3 0 013 3v1a3 3 0 01-3 3h-10a3 3 0 01-3-3v-4m16-14v-4a3 3 0 00-3-3h-10a3 3 0 00-3 3v4m11.5 0H55.5m0 14h-4a3 3 0 01-3-3v-8a3 3 0 013-3h4M8.013 55.964l9.736-5.075a2 2 0 011.525-.134l7.174 2.258M8.013 55.964l10.916 20.942M8.013 55.964l7.964 2.507m23.894 7.52l-5.075-9.737a2 2 0 00-1.173-.983l-7.175-2.258m13.423 12.978L18.929 76.906M39.87 65.991l-7.965-2.507M18.93 76.906l-2.952-18.435m2.952 18.435l12.977-13.422m-15.929-5.013l7.965 2.507 7.964 2.506m-15.929-5.013l10.471-5.458m5.458 10.471l-5.458-10.47M56.196 91l-3.544 6.44M56.196 91H49l3.652 6.44M56.196 91l3.652 6.44m-7.196 0l3.652 6.56m18.044-6.56L78 91h-7.196m3.544 6.44L70.804 91m3.544 6.44L70.696 104m.108-13l-3.652 6.44m-7.304 0L56.304 104m3.544-6.56L63.5 104m-3.652-6.56l1.78-3.038h3.745l1.779 3.037M56.304 104l3.652 6.561M63.5 104l-3.544 6.561M63.5 104l3.652-6.56M63.5 104l3.544 6.561m-7.088 0L63.5 117l3.544-6.439m.108-13.122L70.696 104m0 0l-3.652 6.561M88.5 56.864l14-8.13 14 8.13v15.748l-14 7.677-14-7.677V56.864z"/><path fill="currentColor" stroke-width="0" d="M110.223 68.56a8.51 8.51 0 11-.498-9.784l-2.482 1.942a5.36 5.36 0 10.314 6.162l2.666 1.68z"/></symbol><symbol id="app" fill="none" stroke="currentColor" stroke-width="3" viewBox="0 0 128 128"><path d="M2.5 4.971A3.471 3.471 0 015.971 1.5H68.03a3.471 3.471 0 013.47 3.471V123.03a3.471 3.471 0 01-3.471 3.471H5.97a3.471 3.471 0 01-3.471-3.471V4.971z"/><path d="M8.5 8.558c0-.584.474-1.058 1.058-1.058h54.884c.584 0 1.058.474 1.058 1.058v110.884c0 .584-.474 1.058-1.058 1.058H9.558a1.058 1.058 0 01-1.058-1.058V8.558zM13.042 34.5H61m0 6H13.042m0 6H61m0 6H13.042m-.042 6h47.958m-47.916 1H61"/><path d="M48.5 64.65a.15.15 0 01.15-.15h10.7a.15.15 0 01.15.15v31.7a.15.15 0 01-.15.15h-10.7a.15.15 0 01-.15-.15v-31.7zm-34-51a.15.15 0 01.15-.15h10.7a.15.15 0 01.15.15v14.7a.15.15 0 01-.15.15h-10.7a.15.15 0 01-.15-.15v-14.7zm0 51a.15.15 0 01.15-.15h10.7a.15.15 0 01.15.15v10.7a.15.15 0 01-.15.15h-10.7a.15.15 0 01-.15-.15v-10.7zm17 0a.15.15 0 01.15-.15h10.7a.15.15 0 01.15.15v10.7a.15.15 0 01-.15.15h-10.7a.15.15 0 01-.15-.15v-10.7zm-17 17a.15.15 0 01.15-.15h27.7a.15.15 0 01.15.15v14.7a.15.15 0 01-.15.15h-27.7a.15.15 0 01-.15-.15v-14.7zm0 21a.15.15 0 01.15-.15h44.7a.15.15 0 01.15.15v11.7a.15.15 0 01-.15.15h-44.7a.15.15 0 01-.15-.15v-11.7zm17-89a.15.15 0 01.15-.15h10.7a.15.15 0 01.15.15v14.7a.15.15 0 01-.15.15h-10.7a.15.15 0 01-.15-.15v-14.7zm17 0a.15.15 0 01.15-.15h10.7a.15.15 0 01.15.15v14.7a.15.15 0 01-.15.15h-10.7a.15.15 0 01-.15-.15v-14.7zm69.064 12.486c0 8.902-7.188 16.11-16.044 16.11-8.856 0-16.045-7.208-16.045-16.11s7.189-16.11 16.045-16.11c8.856 0 16.044 7.208 16.044 16.11z"/><path d="M89.86 33.29l10.972-6.474a.687.687 0 01.703.003l5.464 3.283a.687.687 0 01-.223 1.264L90.34 34.557c-.758.147-1.146-.874-.48-1.267zm11.748-7.815V12.01c0-.781-1.097-.956-1.341-.214L94.795 28.49a.687.687 0 001.003.806l5.472-3.228a.688.688 0 00.338-.592z"/><path d="M101.598 26.444v-6.798c0-.64.799-.933 1.212-.444l11.154 13.212c.501.593-.211 1.431-.878 1.033l-3.762-2.247-7.376-4.157a.688.688 0 01-.35-.599z"/><circle cx="101.52" cy="26.201" r="21.735"/><path d="M71.364 116.5H99.08a2.544 2.544 0 002.544-2.544v-2.232m-.137-17.463l.137 17.463m-.137-17.463V48.286m0 45.975L89.629 84.147a2.544 2.544 0 01-.893-1.936V66.082m12.887 45.642l11.857-10.114a2.543 2.543 0 00.893-1.936V83.546"/><circle cx="88.667" cy="59.817" r="6.938"/><circle cx="114.373" cy="77.614" r="6.938"/></symbol></svg>