<svg xmlns="http://www.w3.org/2000/svg" fill="none" viewBox="0 0 620 360"><defs/><g clip-path="url(#clip0)"><rect width="63.732" height="43.032" x="-1.5" y="1.5" stroke="#1191FF" stroke-width="3" rx="6.5" transform="matrix(-1 0 0 1 106 46.11)"/><mask id="a" fill="#fff"><rect width="18.537" height="34.524" rx="2" transform="matrix(-1 0 0 1 103.439 51.864)"/></mask><rect width="18.537" height="34.524" stroke="#1191FF" stroke-width="6" mask="url(#a)" rx="2" transform="matrix(-1 0 0 1 103.439 51.864)"/><mask id="b" fill="#fff"><rect width="15.756" height="17.262" rx="2" transform="matrix(-1 0 0 1 82.121 69.126)"/></mask><rect width="15.756" height="17.262" stroke="#1191FF" stroke-width="6" mask="url(#b)" rx="2" transform="matrix(-1 0 0 1 82.121 69.126)"/><mask id="c" fill="#fff"><rect width="15.756" height="17.262" rx="2" transform="matrix(-1 0 0 1 63.586 69.126)"/></mask><rect width="15.756" height="17.262" stroke="#1191FF" stroke-width="6" mask="url(#c)" rx="2" transform="matrix(-1 0 0 1 63.586 69.126)"/><path stroke="#1191FF" stroke-linecap="round" stroke-width="3" d="M80.621 53.241H49.328m31.293 5.754H49.328m31.293 5.755H49.328"/><rect width="55.39" height="60.293" x="-1.5" y="1.5" stroke="#1191FF" stroke-width="3" rx="6.5" transform="matrix(-1 0 0 1 182 57.618)"/><mask id="d" fill="#fff"><rect width="12.049" height="30.688" rx="2" transform="matrix(-1 0 0 1 179.439 63.372)"/></mask><rect width="12.049" height="30.688" stroke="#1191FF" stroke-width="6" mask="url(#d)" rx="2" transform="matrix(-1 0 0 1 179.439 63.372)"/><mask id="e" fill="#fff"><rect width="12.049" height="18.221" rx="2" transform="matrix(-1 0 0 1 179.439 96.937)"/></mask><rect width="12.049" height="18.221" stroke="#1191FF" stroke-width="6" mask="url(#e)" rx="2" transform="matrix(-1 0 0 1 179.439 96.937)"/><mask id="f" fill="#fff"><rect width="14.829" height="15.344" rx="2" transform="matrix(-1 0 0 1 164.609 63.372)"/></mask><rect width="14.829" height="15.344" stroke="#1191FF" stroke-width="6" mask="url(#f)" rx="2" transform="matrix(-1 0 0 1 164.609 63.372)"/><mask id="g" fill="#fff"><rect width="14.829" height="15.344" rx="2" transform="matrix(-1 0 0 1 164.609 81.593)"/></mask><rect width="14.829" height="15.344" stroke="#1191FF" stroke-width="6" mask="url(#g)" rx="2" transform="matrix(-1 0 0 1 164.609 81.593)"/><mask id="h" fill="#fff"><rect width="14.829" height="15.344" rx="2" transform="matrix(-1 0 0 1 164.609 99.814)"/></mask><rect width="14.829" height="15.344" stroke="#1191FF" stroke-width="6" mask="url(#h)" rx="2" transform="matrix(-1 0 0 1 164.609 99.814)"/><mask id="i" fill="#fff"><rect width="14.829" height="15.344" rx="2" transform="matrix(-1 0 0 1 147 63.372)"/></mask><rect width="14.829" height="15.344" stroke="#1191FF" stroke-width="6" mask="url(#i)" rx="2" transform="matrix(-1 0 0 1 147 63.372)"/><mask id="j" fill="#fff"><rect width="14.829" height="15.344" rx="2" transform="matrix(-1 0 0 1 147 81.593)"/></mask><rect width="14.829" height="15.344" stroke="#1191FF" stroke-width="6" mask="url(#j)" rx="2" transform="matrix(-1 0 0 1 147 81.593)"/><mask id="k" fill="#fff"><rect width="14.829" height="15.344" rx="2" transform="matrix(-1 0 0 1 147 99.814)"/></mask><rect width="14.829" height="15.344" stroke="#1191FF" stroke-width="6" mask="url(#k)" rx="2" transform="matrix(-1 0 0 1 147 99.814)"/><path stroke="#1191FF" stroke-width="3" d="M74.5 46.56V45a8 8 0 018-8h56.963a8 8 0 018 8v13.986M74.5 89.572v14.337m0 32.498v11.47M88 184.5h51.463a8 8 0 008-8v-2.815m0-39.189v-15.293"/><path stroke="#1191FF" stroke-width="3" d="M141.5 119.473v15.344m0 39.319v1.364a3 3 0 01-3 3H89.073M80.5 148.243v-11.508m0-32.606V89.744m0-43.154V45.5a3 3 0 013-3h55a3 3 0 013 3v13.557"/><rect width="55.39" height="39.196" x="-1.5" y="1.5" stroke="#1191FF" stroke-width="3" rx="6.5" transform="matrix(-1 0 0 1 169.951 132.42)"/><mask id="l" fill="#fff"><rect width="15.756" height="30.688" rx="2" transform="matrix(-1 0 0 1 167.391 138.174)"/></mask><rect width="15.756" height="30.688" stroke="#1191FF" stroke-width="6" mask="url(#l)" rx="2" transform="matrix(-1 0 0 1 167.391 138.174)"/><mask id="m" fill="#fff"><rect width="12.976" height="13.426" rx="2" transform="matrix(-1 0 0 1 133.098 138.174)"/></mask><rect width="12.976" height="13.426" stroke="#1191FF" stroke-width="6" mask="url(#m)" rx="2" transform="matrix(-1 0 0 1 133.098 138.174)"/><mask id="n" fill="#fff"><rect width="12.976" height="13.426" rx="2" transform="matrix(-1 0 0 1 133.098 154.476)"/></mask><rect width="12.976" height="13.426" stroke="#1191FF" stroke-width="6" mask="url(#n)" rx="2" transform="matrix(-1 0 0 1 133.098 154.476)"/><mask id="o" fill="#fff"><rect width="12.976" height="13.426" rx="2" transform="matrix(-1 0 0 1 148.854 138.174)"/></mask><rect width="12.976" height="13.426" stroke="#1191FF" stroke-width="6" mask="url(#o)" rx="2" transform="matrix(-1 0 0 1 148.854 138.174)"/><mask id="p" fill="#fff"><rect width="12.976" height="13.426" rx="2" transform="matrix(-1 0 0 1 148.854 154.476)"/></mask><rect width="12.976" height="13.426" stroke="#1191FF" stroke-width="6" mask="url(#p)" rx="2" transform="matrix(-1 0 0 1 148.854 154.476)"/><rect width="70.219" height="32.483" x="-1.5" y="1.5" stroke="#1191FF" stroke-width="3" rx="6.5" transform="matrix(-1 0 0 1 103.219 102.691)"/><mask id="q" fill="#fff"><rect width="15.756" height="23.975" rx="2" transform="matrix(-1 0 0 1 100.658 108.445)"/></mask><rect width="15.756" height="23.975" stroke="#1191FF" stroke-width="6" mask="url(#q)" rx="2" transform="matrix(-1 0 0 1 100.658 108.445)"/><mask id="r" fill="#fff"><rect width="15.756" height="23.975" rx="2" transform="matrix(-1 0 0 1 82.121 108.445)"/></mask><rect width="15.756" height="23.975" stroke="#1191FF" stroke-width="6" mask="url(#r)" rx="2" transform="matrix(-1 0 0 1 82.121 108.445)"/><mask id="s" fill="#fff"><rect width="15.756" height="23.975" rx="2" transform="matrix(-1 0 0 1 63.584 108.445)"/></mask><rect width="15.756" height="23.975" stroke="#1191FF" stroke-width="6" mask="url(#s)" rx="2" transform="matrix(-1 0 0 1 63.584 108.445)"/><mask id="t" fill="#fff"><rect width="12.049" height="23.975" rx="2" transform="matrix(-1 0 0 1 45.049 108.445)"/></mask><rect width="12.049" height="23.975" stroke="#1191FF" stroke-width="6" mask="url(#t)" rx="2" transform="matrix(-1 0 0 1 45.049 108.445)"/><rect width="26.659" height="39.196" x="-1.5" y="1.5" stroke="#1191FF" stroke-width="3" rx="6.5" transform="matrix(-1 0 0 1 87.463 146.804)"/><mask id="u" fill="#fff"><rect width="18.537" height="19.18" rx="2" transform="matrix(-1 0 0 1 84.902 164.066)"/></mask><rect width="18.537" height="19.18" stroke="#1191FF" stroke-width="6" mask="url(#u)" rx="2" transform="matrix(-1 0 0 1 84.902 164.066)"/><path stroke="#1191FF" stroke-linecap="round" stroke-width="3" d="M83.402 153.935H67.865m15.537 5.754H67.865"/><path stroke="#1191FF" stroke-width="3" d="M414.926 59.951l21.819 21.82m-19.718-40.118l21.341 21.341m-23.442 17.738l21.819 21.819m-21.819-1.039l21.819 21.82m-21.819-1.039l21.819 21.819m-21.819-1.039l21.819 21.82m-21.819-1.039l21.473 21.473m-21.473-.693l21.473 21.473m-21.473-.692l21.819 21.819m-21.819-1.039l21.473 21.473m-21.473-.692l21.473 21.473m-.692-229.279l21.82 21.82m-1.041-21.82l21.82 21.82m-1.038-21.82l21.819 21.82m-1.04-21.82l21.819 21.82m-1.038-21.82l21.82 21.82m-1.039-21.82l21.82 21.82m-1.04-21.82l4.848 4.85m39.485 46.41V68.955a8.303 8.303 0 00-3.463-6.752m3.463 70.825v136.805m-39.829-209.19h-120.18a8.313 8.313 0 00-8.313 8.312v214.732a8.312 8.312 0 008.313 8.312h137.843m0 0v-13.854c0-4.502 3.118-8.312 8.313-8.312h13.853M582.556 292l22.166-22.166"/><path stroke="#1191FF" stroke-linecap="round" stroke-width="3" d="M451.061 82.002h94.668M450.6 121.254h110.483M451.061 95.856H520.1m-69.5 136.227h129.531m9.698 0h-4.849M450.6 218.229h129.531m9.698 0h-4.849M450.6 204.376h129.531m9.698 0h-4.849M450.6 190.522h129.531m9.698 0h-4.849M450.6 176.668h129.531m9.698 0h-4.849M450.6 162.815h129.531m9.698 0h-4.849M450.6 148.961h129.531M450.6 135.107h124.336m-87.969 121.566h39.483m-39.483 11.083h24.936"/><path stroke="#1191FF" stroke-width="3" d="M475.524 279.282h0l-.155-.026s0 0 0 0a7.043 7.043 0 00-6.19 2.012l1.07 1.051-1.07-1.051-.11.112a4.043 4.043 0 01-5.768 0l-1.071 1.051 1.071-1.051-.11-.112a7.045 7.045 0 00-6.191-2.012l-.154.026a4.041 4.041 0 01-4.667-3.39l-.023-.155a7.04 7.04 0 00-3.826-5.266l-.14-.07a4.04 4.04 0 01-1.782-5.485l.072-.14-1.33-.693 1.33.693a7.04 7.04 0 000-6.508l-1.33.693 1.33-.693-.072-.14a4.04 4.04 0 011.782-5.485l-.669-1.343.669 1.343.14-.07a7.04 7.04 0 003.826-5.266l.023-.155a4.041 4.041 0 014.667-3.39l.154.025a7.041 7.041 0 006.191-2.011l.11-.112a4.043 4.043 0 015.768 0l.11.112a7.04 7.04 0 006.19 2.011l.155-.025a4.04 4.04 0 014.666 3.39l.023.155a7.04 7.04 0 003.826 5.266l.14.07a4.041 4.041 0 011.783 5.485l-.073.14a7.04 7.04 0 000 6.508l.073.14 1.33-.694-1.33.694a4.041 4.041 0 01-1.783 5.485l-.14.07.669 1.343-.669-1.343a7.04 7.04 0 00-3.826 5.266l-.023.155a4.04 4.04 0 01-4.666 3.39z"/><circle cx="466.185" cy="261.522" r="15.124" stroke="#1191FF" stroke-width="3"/><mask id="v" fill="#fff"><rect width="9.698" height="13.854" x="577.707" y="235.893" rx="2.078"/></mask><rect width="9.698" height="13.854" x="577.707" y="235.893" stroke="#1191FF" stroke-width="6" mask="url(#v)" rx="2.078"/><mask id="w" fill="#fff"><rect width="6.927" height="206.42" x="579.092" y="31.551" rx="2.078"/></mask><rect width="6.927" height="206.42" x="579.092" y="31.551" stroke="#1191FF" stroke-width="6" mask="url(#w)" rx="2.078"/><path stroke="#1191FF" stroke-linecap="square" stroke-linejoin="round" stroke-width="3" d="M579.092 249.054l3.463 14.546 3.464-14.546"/><path stroke="#1191FF" stroke-linejoin="round" stroke-width="3" d="M584.98 152.771l23.205-23.205v-9.871m-23.205-9.524l23.205-23.205v10.39m0 0l-16.278 16.278m16.278-16.278v12.468m0 0l-6.58 6.581m6.58-6.581v9.871m-23.205 7.793l10.044-10.044m-10.044 18.702l6.927-6.926m16.278-9.525l-10.39 10.39m-12.815-27.187l16.279-16.278V57.873m-16.279 2.425l16.279-16.279v13.854m-16.279 36.02l11.43-11.43m1.385-12.121l-9.005 9.004m-3.81-8.312l6.581-6.58m9.698-6.58l-5.542 5.54m-10.737-10.39l9.352-9.35V32.936m-14.2 55.76l-15.239-15.239v-24.59m29.439-15.931l-5.542 5.541m5.542-5.541V19.083m0 0V8l-9.352 9.351-20.087 20.088v11.43m29.439-29.786l-6.927 6.927m-7.273 48.488l-9.005-9.005m-6.234-16.625l9.004 9.005m6.235-7.273l-9.005-9.005m9.004 55.415l-22.166-22.166v8.658m22.166 56.454l-22.166-22.166v-14.892m22.166 27.014l-10.737-10.736m-11.429-16.278l7.619 7.619m-7.619-7.619V83.502m17.317 25.976L563.16 97.356m-5.195-13.854l6.927 6.927"/><path stroke="#1191FF" stroke-width="3" d="M436.399 271.22h-13.161a8.312 8.312 0 01-8.312-8.313V47.483a8.312 8.312 0 018.312-8.312h141.654"/><path stroke="#1191FF" stroke-width="3" d="M590.868 46.79v7.62M436.4 278.146h-14.546c-7.652 0-13.854-6.202-13.854-13.853V46.79c0-7.65 6.202-13.853 13.854-13.853h147.541m-22.166 219.511c6.234 8.312 18.754 10.365 23.075 7.286 4.321-3.08-7.674-13.955-10.987-9.71-3.313 4.245 2.448 24.936-1.873 27.707-4.321 2.771-6.353-8.226 1.873-11.429 8.226-3.204 22.327 4.457 23.238-2.356"/><circle cx="272.5" cy="199" r="28" stroke="#1191FF" stroke-width="3"/><path stroke="#1191FF" stroke-width="3" d="M293 198.523c0 11.584-9.401 20.977-21 20.977s-21-9.393-21-20.977 9.401-20.977 21-20.977 21 9.393 21 20.977z"/><path stroke="#1191FF" stroke-width="3" d="M256.091 208.215l15.126-8.883a.688.688 0 01.701.003l7.533 4.504a.688.688 0 01-.222 1.265l-22.66 4.379c-.758.147-1.144-.876-.478-1.268zm16.02-10.429v-18.501c0-.782-1.096-.957-1.34-.215l-7.555 22.938c-.198.602.455 1.129 1.001.808l7.555-4.437a.687.687 0 00.339-.593z"/><path stroke="#1191FF" stroke-width="3" d="M272.1 199.026v-9.314c0-.64.797-.933 1.211-.445l15.388 18.141c.502.592-.209 1.432-.876 1.035l-5.815-3.456-9.557-5.361a.688.688 0 01-.351-.6zM119 185.5v16m126-3h-33a5 5 0 00-5 5V222m-69 11.5h-14a5 5 0 01-5-5v-27m19 32l10.566 9.686a5.002 5.002 0 003.379 1.314H164.5m-26.5-11h5m37 11h-15.5M207 222v6.5a5 5 0 01-5 5h-31m36-11.5l-12.216-13.574a4.996 4.996 0 01-1.284-3.345V201.5m0-62.5v31.25M143 233.5V222m0 11.5h14m0 0V222m0 11.5h14m0 0V222m-6.5 22.5v11.023a5 5 0 001.352 3.419l4.666 4.978a5.003 5.003 0 003.648 1.58H200m-81-64h38.5a5 5 0 005-5v-4m31 9l-8.7-9.57a5.001 5.001 0 01-1.3-3.363V176.5m10 25v-31.25m0 0h19m19 6.25v-1.25a5 5 0 00-5-5h-14m0 0v6.25m-12-45a7 7 0 11-14 0 7 7 0 0114 0z"/><circle cx="143" cy="217.5" r="4" stroke="#1191FF" stroke-width="3"/><circle cx="143" cy="217.5" r="4" stroke="#1191FF" stroke-width="3"/><path stroke="#1191FF" stroke-width="3" d="M210.998 265a5 5 0 11-10.001-.001 5 5 0 0110.001.001z"/><circle cx="183.5" cy="170.5" r="5" stroke="#1191FF" stroke-width="3"/><circle cx="162.5" cy="186.5" r="5" stroke="#1191FF" stroke-width="3"/><circle cx="157" cy="217.5" r="4" stroke="#1191FF" stroke-width="3"/><circle cx="171" cy="217.5" r="4" stroke="#1191FF" stroke-width="3"/><circle cx="212.5" cy="181.5" r="4" stroke="#1191FF" stroke-width="3"/><circle cx="231.5" cy="181.5" r="4" stroke="#1191FF" stroke-width="3"/><circle cx="188" cy="244.5" r="7" stroke="#1191FF" stroke-width="3"/><circle cx="43.5" cy="317.5" r="21" stroke="#1191FF" stroke-width="3"/><circle cx="43.5" cy="317.5" r="28" stroke="#1191FF" stroke-width="3"/><path stroke="#1191FF" stroke-width="3" d="M50 297.5l-6.196 14.383M36 330h25m-25 0H26m10 0l7.804-18.117M41.5 296.5l-8.216 18.982M27 330l6.284-14.518M22.5 319.5l10.784-4.018M61 306l-17.196 5.883"/><circle cx="128.5" cy="317.5" r="21" stroke="#1191FF" stroke-width="3"/><circle cx="128.5" cy="317.5" r="28" stroke="#1191FF" stroke-width="3"/><path stroke="#1191FF" stroke-width="3" d="M127 305.5V316m0-10.5v-9m0 9h-6m6 0h5.75a5.25 5.25 0 015.25 5.25v0a5.25 5.25 0 01-5.25 5.25H127m0 13.5V316m0 13.5v8.5m0-8.5h-6m6 0h7.25a6.75 6.75 0 006.75-6.75v0a6.75 6.75 0 00-6.75-6.75H127m-16.5-10.5H121m-10 24h10m0-24v24m0-24V298v31.5m0 0v8"/><circle cx="213.5" cy="317.5" r="21" stroke="#1191FF" stroke-width="3"/><circle cx="213.5" cy="317.5" r="28" stroke="#1191FF" stroke-width="3"/><path stroke="#1191FF" stroke-width="3" d="M223.315 304.5h6.185l1 1L203 331m20.315-26.5h-6.157m6.157 0l-26.815 25m26.815 1.5H230m-6.685 0h-6.811m6.811 0H197h6m-6.5-26.5H211m0 0V296m0 8.5h6.158M211 331v7.5m0-7.5h-8m8 0h5.504m.654-26.5v-8m-.654 34.5v7.5"/><circle cx="299.5" cy="317.5" r="21" stroke="#1191FF" stroke-width="3"/><circle cx="299.5" cy="317.5" r="28" stroke="#1191FF" stroke-width="3"/><path stroke="#1191FF" stroke-width="3" d="M280 326.5h8v-19m31.5 19h-8v-19M283 331h33m-28-23.5V301l1.5-1 10 13 10.5-13 1.5 1v6.5m-23.5 0l11.5 15 12-15m-312-31h86m257 0h-86.125m86.125 0v84m0-84V0m-171 276.5v84m0-84h84.875m-84.875 0h-86m170.875 0v84M85.5 276.5v84M207.5 0v151.5a5 5 0 005 5H342"/><path stroke="#1191FF" stroke-width="3" d="M342.5 146l-.845.943a6.902 6.902 0 01-1.283 1.231c-3.269 2.435-8.569 2.435-11.838 0l-1.856-1.383c-4.294-3.198-11.256-3.198-15.55 0-4.294 3.199-11.256 3.199-15.55 0-4.294-3.198-11.256-3.198-15.55 0-4.295 3.199-11.257 3.199-15.551 0-4.294-3.198-11.256-3.198-15.55 0-4.294 3.199-11.256 3.199-15.55 0-4.294-3.198-11.256-3.198-15.55 0-2.801 2.087-6.737 2.812-10.327 2.177M342.5 133l-.845.943a6.902 6.902 0 01-1.283 1.231c-3.269 2.435-8.569 2.435-11.838 0l-1.856-1.383c-4.294-3.198-11.256-3.198-15.55 0-4.294 3.199-11.256 3.199-15.55 0-4.294-3.198-11.256-3.198-15.55 0-4.295 3.199-11.257 3.199-15.551 0-4.294-3.198-11.256-3.198-15.55 0-4.294 3.199-11.256 3.199-15.55 0-4.294-3.198-11.256-3.198-15.55 0-2.801 2.087-6.737 2.812-10.327 2.177M342.5 119l-.845.943a6.902 6.902 0 01-1.283 1.231c-3.269 2.435-8.569 2.435-11.838 0l-1.856-1.383c-4.294-3.198-11.256-3.198-15.55 0-4.294 3.199-11.256 3.199-15.55 0-4.294-3.198-11.256-3.198-15.55 0-4.295 3.199-11.257 3.199-15.551 0-4.294-3.198-11.256-3.198-15.55 0-4.294 3.199-11.256 3.199-15.55 0-4.294-3.198-11.256-3.198-15.55 0-2.801 2.087-6.737 2.812-10.327 2.177M342.5 107l-.845.943a6.902 6.902 0 01-1.283 1.231c-3.269 2.435-8.569 2.435-11.838 0l-1.856-1.383c-4.294-3.198-11.256-3.198-15.55 0-4.294 3.199-11.256 3.199-15.55 0-4.294-3.198-11.256-3.198-15.55 0-4.295 3.199-11.257 3.199-15.551 0-4.294-3.198-11.256-3.198-15.55 0-4.294 3.199-11.256 3.199-15.55 0-4.294-3.198-11.256-3.198-15.55 0-2.801 2.087-6.737 2.812-10.327 2.177M342.5 94l-.845.944a6.902 6.902 0 01-1.283 1.23c-3.269 2.435-8.569 2.435-11.838 0l-1.856-1.383c-4.294-3.198-11.256-3.198-15.55 0-4.294 3.199-11.256 3.199-15.55 0-4.294-3.198-11.256-3.198-15.55 0-4.295 3.199-11.257 3.199-15.551 0-4.294-3.198-11.256-3.198-15.55 0-4.294 3.199-11.256 3.199-15.55 0-4.294-3.198-11.256-3.198-15.55 0-2.801 2.087-6.737 2.812-10.327 2.177M342.5 82l-.845.944a6.902 6.902 0 01-1.283 1.23c-3.269 2.435-8.569 2.435-11.838 0l-1.856-1.383c-4.294-3.198-11.256-3.198-15.55 0-4.294 3.199-11.256 3.199-15.55 0-4.294-3.198-11.256-3.198-15.55 0-4.295 3.199-11.257 3.199-15.551 0-4.294-3.198-11.256-3.198-15.55 0-4.294 3.199-11.256 3.199-15.55 0-4.294-3.198-11.256-3.198-15.55 0-2.801 2.087-6.737 2.812-10.327 2.177M342.5 69l-.845.944a6.902 6.902 0 01-1.283 1.23c-3.269 2.435-8.569 2.435-11.838 0l-1.856-1.383c-4.294-3.198-11.256-3.198-15.55 0-4.294 3.199-11.256 3.199-15.55 0-4.294-3.198-11.256-3.198-15.55 0-4.295 3.199-11.257 3.199-15.551 0-4.294-3.198-11.256-3.198-15.55 0-4.294 3.199-11.256 3.199-15.55 0-4.294-3.198-11.256-3.198-15.55 0-2.801 2.087-6.737 2.812-10.327 2.177M342.5 56l-.845.944a6.902 6.902 0 01-1.283 1.23c-3.269 2.435-8.569 2.435-11.838 0l-1.856-1.383c-4.294-3.198-11.256-3.198-15.55 0-4.294 3.199-11.256 3.199-15.55 0-4.294-3.198-11.256-3.198-15.55 0-4.295 3.199-11.257 3.199-15.551 0-4.294-3.198-11.256-3.198-15.55 0-4.294 3.199-11.256 3.199-15.55 0-4.294-3.198-11.256-3.198-15.55 0-2.801 2.087-6.737 2.812-10.327 2.177M342.5 43l-.845.944a6.902 6.902 0 01-1.283 1.23c-3.269 2.435-8.569 2.435-11.838 0l-1.856-1.383c-4.294-3.198-11.256-3.198-15.55 0-4.294 3.199-11.256 3.199-15.55 0-4.294-3.198-11.256-3.198-15.55 0-4.295 3.199-11.257 3.199-15.551 0-4.294-3.198-11.256-3.198-15.55 0-4.294 3.199-11.256 3.199-15.55 0-4.294-3.198-11.256-3.198-15.55 0-2.801 2.087-6.737 2.812-10.327 2.177M342.5 31l-.845.944a6.902 6.902 0 01-1.283 1.23c-3.269 2.435-8.569 2.435-11.838 0l-1.856-1.383c-4.294-3.198-11.256-3.198-15.55 0-4.294 3.199-11.256 3.199-15.55 0-4.294-3.198-11.256-3.198-15.55 0-4.295 3.199-11.257 3.199-15.551 0-4.294-3.198-11.256-3.198-15.55 0-4.294 3.199-11.256 3.199-15.55 0-4.294-3.198-11.256-3.198-15.55 0-2.801 2.087-6.737 2.812-10.327 2.177M342.5 18l-.845.944a6.902 6.902 0 01-1.283 1.23c-3.269 2.435-8.569 2.435-11.838 0l-1.856-1.383c-4.294-3.198-11.256-3.198-15.55 0-4.294 3.199-11.256 3.199-15.55 0-4.294-3.198-11.256-3.198-15.55 0-4.295 3.199-11.257 3.199-15.551 0-4.294-3.198-11.256-3.198-15.55 0-4.294 3.199-11.256 3.199-15.55 0-4.294-3.198-11.256-3.198-15.55 0-2.801 2.087-6.737 2.812-10.327 2.177M342.5 5l-.845.943a6.903 6.903 0 01-1.283 1.23c-3.269 2.436-8.569 2.436-11.838 0l-1.856-1.382c-4.294-3.198-11.256-3.198-15.55 0-4.294 3.199-11.256 3.199-15.55 0-4.294-3.198-11.256-3.198-15.55 0-4.295 3.199-11.257 3.199-15.551 0-4.294-3.198-11.256-3.198-15.55 0-4.294 3.199-11.256 3.199-15.55 0-4.294-3.198-11.256-3.198-15.55 0-2.801 2.087-6.737 2.812-10.327 2.177M0 145.5h46.5a5 5 0 015 5v45a5 5 0 005 5h46a5 5 0 015 5v34a5 5 0 005 5h21a5 5 0 015 5v27M0 138.5h14.5a5 5 0 005-5v-35a5 5 0 015-5h1a5 5 0 005-5v-49a5 5 0 015-5H63a4.5 4.5 0 004.5-4.5v0a4.5 4.5 0 014.5-4.5h81.5a5 5 0 015 5v13a5 5 0 005 5h30a5 5 0 005-5V0"/><circle cx="12" cy="157" r="5.5" stroke="#1191FF" stroke-width="3"/><circle cx="12" cy="176" r="5.5" stroke="#1191FF" stroke-width="3"/><circle cx="12" cy="195" r="5.5" stroke="#1191FF" stroke-width="3"/><circle cx="12" cy="214" r="5.5" stroke="#1191FF" stroke-width="3"/><circle cx="12" cy="233" r="5.5" stroke="#1191FF" stroke-width="3"/><circle cx="12" cy="252" r="5.5" stroke="#1191FF" stroke-width="3"/><circle cx="12" cy="271" r="5.5" stroke="#1191FF" stroke-width="3"/><circle cx="34" cy="271" r="5.5" stroke="#1191FF" stroke-width="3"/><circle cx="34" cy="157" r="5.5" stroke="#1191FF" stroke-width="3"/><circle cx="34" cy="176" r="5.5" stroke="#1191FF" stroke-width="3"/><circle cx="34" cy="195" r="5.5" stroke="#1191FF" stroke-width="3"/><circle cx="34" cy="214" r="5.5" stroke="#1191FF" stroke-width="3"/><circle cx="55" cy="214" r="5.5" stroke="#1191FF" stroke-width="3"/><circle cx="76" cy="214" r="5.5" stroke="#1191FF" stroke-width="3"/><circle cx="97" cy="214" r="5.5" stroke="#1191FF" stroke-width="3"/><circle cx="97" cy="233" r="5.5" stroke="#1191FF" stroke-width="3"/><circle cx="76" cy="252" r="5.5" stroke="#1191FF" stroke-width="3"/><circle cx="55" cy="252" r="5.5" stroke="#1191FF" stroke-width="3"/><circle cx="55" cy="233" r="5.5" stroke="#1191FF" stroke-width="3"/><circle cx="76" cy="233" r="5.5" stroke="#1191FF" stroke-width="3"/><circle cx="55" cy="271" r="5.5" stroke="#1191FF" stroke-width="3"/><circle cx="97" cy="252" r="5.5" stroke="#1191FF" stroke-width="3"/><circle cx="76" cy="271" r="5.5" stroke="#1191FF" stroke-width="3"/><circle cx="97" cy="271" r="5.5" stroke="#1191FF" stroke-width="3"/><circle cx="118" cy="271" r="5.5" stroke="#1191FF" stroke-width="3"/><circle cx="118" cy="252" r="5.5" stroke="#1191FF" stroke-width="3"/><path stroke="#1191FF" stroke-width="3" d="M137.5 248.061v8.558a5.502 5.502 0 01-1.626-9.819l1.626 1.261zm-4 22.939a5.503 5.503 0 014-5.293v10.586a5.503 5.503 0 01-4-5.293z"/><circle cx="34" cy="233" r="5.5" stroke="#1191FF" stroke-width="3"/><circle cx="34" cy="252" r="5.5" stroke="#1191FF" stroke-width="3"/><path stroke="#1191FF" stroke-width="3" d="M10.5 138.5l9-9m0-7l-16 16m16-30.5L-2 129.5M19.5 115l-21 21m21-35L-2 122.5m32.5-48L-2 107m32-24l-32.5 32.5m33-49L-2 99m32.5-40.5L-2 91m32-48L-2.5 75.5m33-25L-2 83m0-15.5L30.5 35 67-1.5M-2.5 43L42-1.5m16.5 0l-60 60m0-8l52-52M-2.5 27L26-1.5M-2.5 35L34-1.5m4.5 36l36-36m-28 36l36-36m8 0l-36 36m44-36l-27 27m-9 9l5-5m11.5-4l27-27m-19.5 27l27-27m4.5 27l27-27m-51 27l27-27m-19 27l27-27m-19 27l27-27m-11 27l27-27m-11 27l27-27m-35 27l27-27m-10.5 27l27-27M157 27l27-27 1.5-1.5m7.5 0L158.5 33m0 7.5l40-40m-38 46.5l38-38M168 48l30.5-30.5m-22 30.5l22-22M185 48l13.5-13.5m20 242v-50a5 5 0 015-5h12.415c2.143 0 4.014 1.391 4.926 3.33 11.981 25.484 54.176 25.97 65.757-.994.59-1.373 1.905-2.336 3.4-2.336v0a3.502 3.502 0 003.502-3.502V156.5m-86 119v-54m8 0v54m8 0v-46m8 8v38m8 0v-34m7 2v32m8 0V244m7-.5v32m8 0V241m7-4v38.5m8 0V228m7-6.5v54m8 0v-119m7 0v119m7.5 0v-119"/><path stroke="#1191FF" stroke-width="3" d="M1.5 338.5v-317c0-11.046 8.954-20 20-20h577c11.046 0 20 8.954 20 20v317c0 11.046-8.954 20-20 20h-577c-11.046 0-20-8.954-20-20z"/><path stroke="#1191FF" stroke-width="3" d="M570.5-1l-16.536 16.535A4.998 4.998 0 01550.429 17H364.5a5 5 0 00-5 5v315.5a5 5 0 005 5H619m0-13H377.5a5 5 0 01-5-5v-295m13.5 0v282a5 5 0 005 5h228"/></g><defs><clipPath id="clip0"><path fill="#fff" d="M0 0h620v360H0z"/></clipPath></defs></svg>