<svg xmlns="http://www.w3.org/2000/svg" width="317" height="56" fill="none"><defs/><path fill="#1191FF" d="M1.064 52.574l26.914-15.056c.54-.302 1.2-.3 1.739.005l13.297 7.527c1.438.815 1.077 2.98-.548 3.284l-40.21 7.528c-1.973.37-2.943-2.308-1.192-3.288z"/><path fill="#0FB6FF" d="M27.962 34.22V2.396c0-1.999-2.794-2.468-3.447-.579L10.874 41.272c-.533 1.54 1.119 2.92 2.54 2.126l13.641-7.632a1.77 1.77 0 00.907-1.546z"/><path fill="#0ED9FE" d="M29.734 34.226V18.312c0-1.642 2.04-2.4 3.113-1.16l26.963 31.18c1.3 1.505-.483 3.68-2.214 2.7l-9.474-5.363-17.489-9.901a1.772 1.772 0 01-.899-1.542z"/><path fill="#000" d="M69.883 40.98V12.714h11.279c3.47 0 6.105.912 7.903 2.734 1.81 1.81 2.716 4.143 2.716 6.997 0 2.778-.912 5.053-2.735 6.826-1.823 1.76-4.426 2.64-7.809 2.64h-7.714v7.374c0 1.131-.566 1.697-1.697 1.697h-1.943zm3.64-12.125h7.922c2.138 0 3.791-.622 4.96-1.867 1.17-1.257 1.755-2.772 1.755-4.544 0-1.798-.617-3.363-1.849-4.696-1.22-1.345-2.923-2.018-5.111-2.018h-7.677v13.125zM99.548 40.98V12.714h12.449c2.728 0 4.967.874 6.714 2.621 1.748 1.748 2.622 4.004 2.622 6.77 0 2.427-.622 4.432-1.867 6.016-1.245 1.571-2.936 2.602-5.074 3.092l7.262 9.769h-2.98c-.881 0-1.578-.346-2.094-1.037l-6.13-8.505h-7.262v7.845c0 1.131-.565 1.697-1.697 1.697h-1.943zm3.64-12.672h8.149c1.986 0 3.558-.515 4.715-1.546 1.157-1.03 1.735-2.584 1.735-4.658 0-.616-.1-1.25-.302-1.904-.188-.667-.496-1.352-.924-2.056-.415-.717-1.056-1.295-1.924-1.735-.867-.452-1.88-.679-3.036-.679h-8.413v12.578zm40.473 13.257c-4.124 0-7.563-1.42-10.317-4.261-2.754-2.854-4.131-6.343-4.131-10.467 0-4.098 1.377-7.574 4.131-10.428 2.754-2.854 6.193-4.28 10.317-4.28 4.175 0 7.639 1.433 10.393 4.299 2.754 2.854 4.131 6.324 4.131 10.41 0 4.123-1.377 7.612-4.131 10.465-2.754 2.842-6.218 4.262-10.393 4.262zm0-3.243c2.993 0 5.558-1.138 7.696-3.413 2.137-2.288 3.206-4.979 3.206-8.072 0-3.067-1.069-5.739-3.206-8.014-2.138-2.276-4.703-3.413-7.696-3.413-2.967 0-5.52 1.144-7.657 3.432-2.126 2.275-3.188 4.947-3.188 8.014 0 3.055 1.062 5.733 3.188 8.034 2.137 2.288 4.69 3.432 7.657 3.432zm27.893 2.658V15.73h-8.601v-1.32c0-1.131.566-1.697 1.697-1.697h19.088v1.301c0 1.132-.572 1.704-1.716 1.716h-6.866v23.554c0 1.131-.566 1.697-1.697 1.697h-1.905zm31.476.585c-4.125 0-7.564-1.42-10.318-4.261-2.753-2.854-4.13-6.343-4.13-10.467 0-4.098 1.377-7.574 4.13-10.428 2.754-2.854 6.193-4.28 10.318-4.28 4.174 0 7.638 1.433 10.392 4.299 2.754 2.854 4.131 6.324 4.131 10.41 0 4.123-1.377 7.612-4.131 10.465-2.754 2.842-6.218 4.262-10.392 4.262zm0-3.243c2.992 0 5.557-1.138 7.695-3.413 2.138-2.288 3.207-4.979 3.207-8.072 0-3.067-1.069-5.739-3.207-8.014-2.138-2.276-4.703-3.413-7.695-3.413-2.968 0-5.521 1.144-7.658 3.432-2.125 2.275-3.188 4.947-3.188 8.014 0 3.055 1.063 5.733 3.188 8.034 2.137 2.288 4.69 3.432 7.658 3.432zm36.002 3.281c-4.174 0-7.639-1.42-10.392-4.262-2.754-2.854-4.131-6.336-4.131-10.447 0-4.123 1.377-7.606 4.131-10.447 2.753-2.854 6.218-4.28 10.392-4.28 2.578 0 4.917.584 7.017 1.753 2.1 1.156 3.778 2.722 5.036 4.696l-1.924.81c-.88.365-1.654.17-2.32-.584-2.062-2.238-4.665-3.357-7.809-3.357-3.118 0-5.715 1.113-7.789 3.338-2.063 2.213-3.094 4.903-3.094 8.071 0 3.156 1.031 5.846 3.094 8.071 2.074 2.213 4.671 3.32 7.789 3.32 3.094 0 5.697-1.126 7.809-3.376.717-.792 1.503-.968 2.358-.528l1.848.886a12.545 12.545 0 01-4.828 4.658c-2.037 1.119-4.433 1.678-7.187 1.678zm33.853-.038c-4.124 0-7.564-1.42-10.317-4.261-2.754-2.854-4.131-6.343-4.131-10.467 0-4.098 1.377-7.574 4.131-10.428 2.753-2.854 6.193-4.28 10.317-4.28 4.175 0 7.639 1.433 10.393 4.299 2.753 2.854 4.13 6.324 4.13 10.41 0 4.123-1.377 7.612-4.13 10.465-2.754 2.842-6.218 4.262-10.393 4.262zm0-3.243c2.993 0 5.558-1.138 7.695-3.413 2.138-2.288 3.207-4.979 3.207-8.072 0-3.067-1.069-5.739-3.207-8.014-2.137-2.276-4.702-3.413-7.695-3.413-2.968 0-5.52 1.144-7.658 3.432-2.125 2.275-3.187 4.947-3.187 8.014 0 3.055 1.062 5.733 3.187 8.034 2.138 2.288 4.69 3.432 7.658 3.432zM296.1 40.98V12.714h1.942c1.132 0 1.698.566 1.698 1.697v23.591h14.127c1.132 0 1.698.566 1.698 1.698v1.282H296.1zM76.293 49.39c0 .481-.133.898-.4 1.25-.265.348-.61.53-1.032.546v.011c.473.024.89.223 1.25.599.36.375.54.868.54 1.478 0 .466-.08.867-.241 1.203-.16.336-.383.597-.669.78a3.09 3.09 0 01-.921.405 4.61 4.61 0 01-1.103.123H69.85v-8.794h3.738c1.803-.004 2.705.796 2.705 2.4zm-4.76 1.168h1.884c.794 0 1.192-.364 1.192-1.091 0-.657-.394-.986-1.18-.986h-1.895v2.077zm2.066 3.737c.912 0 1.367-.371 1.367-1.115 0-.747-.467-1.12-1.402-1.12h-2.03v2.235h2.065zm10.509-6.765c.207-.36.522-.54.944-.54h1.338l-3.356 5.469v2.534c0 .528-.264.792-.792.792h-.886V52.46l-3.333-5.468h1.338c.426 0 .743.18.95.54l1.884 3.197 1.913-3.197zm10.349 7.68c-.184.384-.497.575-.94.575h-1.179l4.495-8.794h.17l4.495 8.794h-1.179c-.442 0-.755-.191-.94-.575l-.392-.81h-4.15l-.38.81zm2.464-4.928L95.66 52.94h2.512l-1.25-2.658zm6.143 5.503l3.268-4.347-3.339-4.447h1.491c.414 0 .739.164.974.493l1.919 2.68 1.924-2.68c.231-.329.556-.493.975-.493h1.478l-3.327 4.447 3.269 4.347h-1.503c-.406 0-.727-.164-.962-.492l-1.854-2.57-1.849 2.57a1.11 1.11 0 01-.962.492h-1.502zm11.946-8.795c.528 0 .792.265.792.793v8.002h-.892c-.528 0-.792-.264-.792-.792v-8.002h.892zm4.124 6.994c.266-.383.626-.456 1.08-.217.817.426 1.562.638 2.235.634.587 0 1.013-.098 1.28-.294.269-.195.404-.446.404-.75a.736.736 0 00-.123-.423 1.052 1.052 0 00-.27-.3 1.47 1.47 0 00-.463-.216 5.214 5.214 0 00-.523-.153 45.153 45.153 0 00-.616-.135c-.864-.168-1.477-.332-1.836-.493-1.01-.45-1.514-1.169-1.514-2.159 0-.489.101-.913.305-1.273.203-.36.475-.631.815-.815a4.006 4.006 0 011.063-.405 5.108 5.108 0 011.156-.129c.688 0 1.283.096 1.783.287.501.188 1 .47 1.497.845l-.481.657c-.274.384-.638.46-1.092.23-.634-.306-1.263-.456-1.889-.453-.392 0-.736.07-1.033.212-.294.136-.44.361-.44.674 0 .153.045.294.135.423.094.129.193.228.299.299.11.07.276.143.499.217.227.07.401.121.522.153l.587.123.428.088c.251.047.429.082.534.105.11.024.286.075.528.153.247.074.435.15.564.229.129.074.285.182.469.322a1.5 1.5 0 01.417.452c.098.164.182.366.252.604.074.235.112.497.112.787 0 .88-.302 1.548-.904 2.006-.599.458-1.41.687-2.435.687-.826 0-1.516-.114-2.072-.34a8.02 8.02 0 01-1.696-.998l.423-.634z"/></svg>